<svg xmlns="http://www.w3.org/2000/svg" viewBox="0 0 1184 864">
<path d="M904.9108,155.3228c.6954-.0989,1.4239-.2041,2.126-.0866-.102.5518-.5284,1.1583-.5153,1.7454l20.2169,1.7199c-4.1173,4.6104-4.5035,9.32-5.903,14.0884-7.7546,5.3145-6.9866,9.1587-7.5694,14.2747-.2385,2.0936-3.2895,3.7647-2.38,6.3956.6254,1.809,1.3243,3.9357,3.464,5.1982,2.4655,1.4548,1.7778,4.8529,3.3353,6.6798,2.6542,3.1134,6.9715,4.5382,10.3484,7.4686,5.8717-2.3984,11.5251-3.2457,16.9245-1.0705.0731,2.5489.6391,2.2065,1.8731.4927,9.8282,4.7946,12.3004-.7709,19.329-5.7613-2.0014-1.1196-3.8826-.7822-4.1588-2.6187,15.4207-6.628,5.2939-13.4537,13.6767-15.2288,7.469-1.5816-3.6911-11.304,4.391-25.5167l15.7694,1.3031c-17.8889,9.3829-4.6161,11.9161-12.0922,18.9951-.8195.7759.6336,4.2528-.6604,4.9625l-3.7209,2.0406c-4.9271,2.702-6.3825,12.106-4.3829,18.0602.9756,2.9052,4.8748,4.8573,4.8324,8.469,2.0018,1.1519,4.5892,1.0883,5.9164,2.4166,9.4785,11.0333,13.8029,2.2227,25.0692,3.5745.1194,7.4892-1.3236,13.9314-2.3865,21.1092l-6.5013,43.9026-9.2959,64.499-1.9654,14.8206c-.6714,5.0628-1.2697,9.8934-2.3944,14.842-1.3514,5.9462.4069,11.7898-3.0669,17.2438,1.3249-5.5717-3.8089-8.7862-4.6424-12.5629-.9908-4.4895.4862-7.9609-4.0245-11.7857-2.3208-1.9679-6.1804-6.415-6.0545-10.2307.186-5.6366-.2451-14.7304-6.5774-17.004-5.7274-2.0564-9.8906-3.0615-13.8064-8.3211-1.9036-2.5569-7.9813-6.709-10.8852-6.3473l-10.0272,1.2487c-3.5417.4411-6.9601-.6318-8.9886,2.8325-6.1895,10.5705-16.4022,5.5404-26.0652,3.7315-11.5718,10.236-11.6618-6.0451-27.581,3.4109-3.1959,1.8984-5.0536.4391-7.5827-1.2702-11.1472-7.5338-5.2985-4.5351-20.8151-3.0673-.2702-1.2307.5221-2.022.6183-2.8038,6.6329-3.9314-1.761-8.5645-1.3854-18.6296.0505-1.3532-1.045-3.4735-2.1892-3.9322-1.3127-.5263-3.2584-.0994-4.1046,1.2862-2.746.8806-8.7134,1.0703-8.3357-3.0722.3404-3.7342,4.2124-8.3136,1.5261-12.3986-2.6172-3.98-8.1188-6.2537-12.7893-6.792-3.8524-.444-6.5223-1.9795-9.9628-3.3922-2.497-1.0253-5.3338.9152-7.6628.6668-.0906-.7012.3285-.9385-.4338-.9418-.6716-.0029-1.1442-.1227-2.2847-.0149-1.1833-2.6229-4.5673-3.2793-7.2969-2.2665-2.8421,1.0545-4.5675-2.166-6.2904-2.8328-6.2718-2.4274-7.2828-7.0643-7.0053-13.0768.3179-6.8855-6.0207-13.9921-11.4835-17.3325-1.9099-1.1679-5.83.6004-5.8897-2.2354-.0695-3.3007,4.261-3.458,5.453-5.5575,5.3413-9.4079,2.7-9.0851.6267-18.9367-.9673-4.5964-3.6634-8.5317-2.3205-13.3913-2.0914-1.2426-3.7078-1.495-5.2225-3.4098l22.491-63.6989c1.5558-2.0358,5.9708.8873,7.9041.736,4.4075-.345,9.2693.4788,13.8756.8207l13.0199.9663,11.9879,1.0101,13.0027,1.0135c6.0625.4726,24.8378.5121,28.1787,3.0031-4.4974.0832-16.1748-.5031-16.9998,4.7363-.2345,1.4896.5373,3.0773,1.187,5.0072-1.8514,2.1364-12.6467-7.3521-15.2647-1.7113-1.7786,3.8323-4.7102,6.8628-6.2024,10.6239-1.1932,3.0075-1.1001,7.85-5.2695,8.5381-.3472.0573-1.4969-1.2124-1.5797-.6255-.0565.4002-1.0848.8475-.9478,1.1418.1479.318,1.5607.5297,2.185,1.2641-5.9587,6.1175-7.2899,15.2297-8.59,24.3276-.5885,4.1187-1.145,11.2009,4.8164,12.3153,7.9772,1.4912,17.2138.4506,25.0789,4.6257,4.8361,2.5672,10.5991,7.4518,16.9296,5.0615,4.7624-1.7982,9.2751-3.4959,14.6037-3.5176l12.5987-.0513c4.5083-2.0156,3.4476-9.7891,5.0916-13.6008,2.2835-.2132,4.2642.4046,6.0115-.3865,1.0359-.469,1.2625-2.2542,2.0878-3.6282,7.2309-12.0381-.6207-11.7,5.4197-20.7933,1.9765-2.9754-.2473-10.1047-3.8843-11.2068-5.6022-1.6976-8.6643-3.9567-11.4135-9.1849-7.3034-13.8888-10.8428-2.5847-14.1998-13.0421l14.3853,1.7924c2.0921.2607,4.1184-.9615,6.6567-.299,3.2954.8601,8.2488,2.1955,10.0434-.8282ZM805.8499,197.2219c1.1665-1.6984.5448-4.7733,1.5592-6.6974,10.8061-1.6402,5.2758-7.5866,10.3703-16.5406,1.7873-3.1413.0498-6.4384-2.8599-7.9787-3.3571-1.7771-1.795-11.0231-8.3774-12.6683-2.2237-.5558-5.2902-.9986-7.5407-1.2845-5.624,4.1718-12.6211,5.759-19.8236,4.8756l-2.3729,10.0577c-.7091,3.0054-3.157,5.3244-2.028,8.5531l-4.5199-.1371c-1.7786,3.7335-4.3727,8.0512-3.8629,12.3022.5128,4.2762,4.9637,5.7632,7.2562,8.5145,2.2815,2.7381,3.7612,7.2357,8.2343,6.4498,10.1435-1.7821,21.214-1.4404,23.9653-5.4464Z" fill="#839c5e"/>
<path d="M791.1358,289.9528c.7071,1.5673,1.3641.8122,2.7185.9567.7007,5.4231-5.6074.2007-.8359,16.9897-9.5382.5683-7.4628-2.5209-13.1903,5.3283-3.8048-1.8529-5.534,1.0259-8.0301,2.2296-3.6167,1.7441-7.4764,2.0061-10.2975,4.9505-.8675-2.1199-.3968-3.2796-1.1293-4.194-.3798-.474-1.9077,1.0281-2.6696.6112-1.8757-1.0263-1.6443-5.4492.6598-6.5778,1.4283-.6996,4.7687.257,5.7095-1.0582,1.4162-5.0067,4.7418-8.2093,7.5064-12.3529,1.9613-2.9396-1.1513-8.2759,1.3816-10.9536,1.9218-2.0317,4.8063,1.4526,6.678,2.288,3.8372,1.7127,7.9186.5557,11.4988,1.7825Z" fill="#839c5e"/>
<path d="M838.7579,337.1732l-3.7433,2.2187-12.8578-.6719c-4.1067-.2146-7.3842,6.8067-12.1929,6.7586-6.2124-.0622-14.9298,1.0381-18.291,6.4224-1.3837,2.2165-5.7784,1.3982-7.4499-.4231-1.6202-1.7654-1.6971-3.6518-1.8654-6.5904-.1848-3.2279-3.2272-6.9832-.5488-10.2017,1.5089-1.8132,4.8943-.8595,6.7418-2.1139,1.417-.9621.6435-3.8038,2.0892-4.5689,1.8814-.9956,4.0618-.5486,6.2779-1.3473,3.7714-8.898,7.2686-.6861,16.3441-7.2977,8.6256-6.2838,11.9892,3.4394,17.8169-3.4603,1.3148-.4217,2.8958-.2698,3.9416.7107,2.8222,2.646-1.1434,6.3251,3.6828,12.8023,1.7059,2.2894.3305,5.5208.0547,7.7626Z" fill="#839c5e"/>
<path d="M729,712.0814l-7,.6798c-2.3692-1.8488-5.5834-1.9307-8.9405-1.5364-6.7234.7897-28.724.6391-29.0185,1.3209-.2135.4943-.0548,1.1521-.041,1.5986-1.7366.2278-4.3402.7844-6-.1443-3.7977-2.125-8.4656-.1626-13.0685-.1045l-10.8952.1375c-8.1301.1026-15.9475.8031-24.098,1.2103l-17.9706.8978c-12.259.6124-24.1107,1.7921-36.3655.4396-2.701-.2981-5.3747.5032-8.2969-.5709-12.5402-4.6093-25.0817-8.3783-36.9275-14.6821,5.6523-1.6875,9.8783,1.867,14.755,2.3605l19.1507,1.9382c8.4688.8571,16.7695.6025,25.3302-.0872,31.0067-2.498,60.5288-9.9755,88.4089-23.7259,1.1514-.5679,2.5444-.8273,3.3394-.5662.9125.2998.6811,2.0461,1.6774,2.9604,1.8143,1.6649,7.8133,2.6148,9.2258.3075,1.3399-2.1886,2.4261-4.5524,5.2311-5.0308.615-13.3008,2.5608-1.573,10.64-18.1387l-2.3319.299c-.2705.0347-1.2594-1.3283-.8316-1.6877,6.2432-5.2445,9.266-12.0491,14.9145-17.6616-1.6183,7.1109-7.5293,10.6486-9.7,16.4905l3.369-1.7708c-.5736.3015,6.8328,6.4118,8.6428,6.6161,3.0495-1.6808,7.1121-4.0296,9.9543-3.1482,3.2802,1.0173,1.6288,6.9558,3.5784,8.5164,3.8209,3.0584,5.9533,7.3364,8.5373,10.7154,2.3446,2.6239,10.9996,2.1692,13.6208.3363,2.0569-3.1123,3.4946-4.5186,8.058-4.959,1.9818-.1913,4.8419-3.3029,7.1534-4.0521,3.6961-1.198.985-6.605,1.5666-8.3748,10.8192-1.9738,6.422-7.5927,15.2599-4.0303-1.3341-2.3468-5.1961-1.9311-3.8029-5.7846,20.5962,11.342,30.9784,6.4437,51.2382.7566-8.3752,6.6508-19.3481,8.0603-29.1766,8.2287-5.2811.0905-9.8732-2.6731-15.3492-1.5376,6.1848,3.6201,25.8762,3.9359,33.6632.3925,1.7401,11.7018-4.9176,8.5985,4.4543,22.4314-4.0418,3.8872-8.9827,9.6376-4.4791,15.2965,1.6221,2.0382,3.6582,3.8558,5.0215,6.218-5.6181,1.761-10.4247,1.264-15.5048,1.4386-7.8404.2695-15.0068,1.7655-23.7239.4319,6.5106-6.7323-1.9927-8.3261,11.4567-14.9853,2.2792-1.1285,5.3337-3.8364,6.3873-6.0214.2555-2.7282-.4608-6.6681-.8134-9.1116-.8622-5.976-6.833-4.197-9.9207-5.0263-3.4662-.931-4.7951-2.6164-9.0203-.7342-3.3217,1.4797-9.1258.9988-9.2119,7.1252,3.3122-4.0451,5.8499-5.059,10.2008-5.4693,2.6143-.2465,4.0116-1.4238,7.0277.4865,2.0573,1.3031,6.2737-.7584,8.2932,1.5738,1.2246,1.4142,1.2948,11.7691.7557,12.4741-.7527.9842-3.0661.898-3.8196,1.6676-3.773,3.8539-7.7717,3.6364-12.1491,4.4354-3.0388.5547-5.2221,3.9965-9.2361,1.4491-1.9408-1.2317-4.9967-2.5511-4.9804-6.1262.0186-4.0776.8369-7.4947,3.1532-11.1366-5.407,1.5132-3.2728,7.5625-5.7845,10.6121-1.0093,1.2255-14.2624,6.6919-8.7422,18.2771.2763.5799,2.7764,1.5392,1.5252,2.1774-3.0615,1.5617-37.9652,1.6701-38.3474,2.3762-.2307.4264-.0501,1.1001-.0427,1.531Z" fill="#839c5e"/>
<path d="M756.0262,142.7533c1.4445-4.9327,1.0304-8.5896-.1391-13.769.9398-.1237,1.7023-.4915,3.4655-.5094.74,4.7641,2.0505,11.1259.0287,16.3008-3.2683,8.3651-6.2117,16.4066-8.8776,24.8618-2.5832,8.193-6.491,15.4939-9.4476,23.4482-1.4181,3.8153-1.0658,8.16-4.9183,10.8257-.4195-3.9047-.1664-7.9982.1425-11.4176,1.0368-.3352,2.2387.1488,2.7124-.1972.6293-.4596,7.6047-21.9726,8.278-23.4751,1.923-4.2912,3.5952-8.991,5.792-12.9316,2.5594-4.5911,1.7507-8.9953,2.9634-13.1367Z" fill="#839c5e"/>
<path d="M863.9029,705.9554c.8517,8.1638-4.223,5.3302-4.9029,9.0446-3.5337.3926-7.7181-.9008-11.147-.1155-1.8882-3.3304-4.9758-3.6353-4.8425-7.9108,6.9201-.3141,13.9334-1.7421,20.8924-1.0184Z" fill="#839c5e"/>
<path d="M1019.8557,211.9213c-.8152,1.8531-.4753,4.3631-1.7824,6.3476-1.0996,1.6696-3.602,1.4154-5.0733,1.7311.3076-2.1973,2.9618-4.4783.9835-7.6653,2.0556-.6051,3.8745-.1097,5.8721-.4135Z" fill="#839c5e"/>
<path d="M597,726v2c-3.0613-.3828-6.1843,1.0707-9.8043-.9743,3.5756-2.2466,6.7567-.4762,9.8043-1.0257Z" fill="#839c5e"/>
<path d="M876,714v1c-2.4172.012-5.0859,1.8562-8,1v-2c2.6173-.2908,5.3641-.0794,8,0Z" fill="#839c5e"/>
<path d="M695,722v2c-1.6279-.2382-3.3559.1028-5,0v-2c1.486-.5371,3.4645.3996,5,0Z" fill="#839c5e"/>
<path d="M871.5672,585.8709c3.6885.0971,6.3034-.6053,9.8202-.1492,4.6028.5969,10.9126-3.5636,12.7038-7.374.5852-1.2448-1.0657-2.8594-.6743-3.5217,1.7939-3.0349,8.8346-1.9669,10.3389-5.9309.7783-2.0509-.9796-4.6679-.018-6.7789,1.4318-3.1433.9808-6.0017-1.1283-9.3239,7.3429,1.0775,14.6178-7.4292,14.4837-11.3053-.1582-4.5728,2.529-6.5484,5.9135-8.782,3.828-2.5263-1.128-9.7071,5.2376-13.2777,1.0071-.5649,1.4408.5024,3.0776,1.867.8814-1.6146,1.8063-4.2361,4.0213-3.9128,3.3059.4826,7.6991,4.1553,11.3556,2.3999,3.3639-1.615,14.7872-8.053,17.7554-10.4694,1.9535-1.5903,2.3576-4.5873,5.4614-4.5667.7876,3.3618-.0308,7.2279-.6446,11.3858l-9.3958,63.6567-9.6658,64.78c-5.712-.4356-6.8515-5.9952-13.7826-.021-4.797.3414-9.2696-4.3494-14.159-4.3035-4.0346.0379-7.8367,2.7628-11.9506,1.3999l-3.7644-6.1864c-3.9788-.5333-6.8594-4.659-10.1788-5.442-4.9185-1.1603-9.8294-.8593-14.8686-3.3573-2.0021-.9925-5.4908,1.2812-7.7224-.3023-3.5196-2.4975-6.8581-2.5936-11.2987-1.5137,3.8594-8.7044,3.1292-26.7227.5526-33.0124-.9914-2.4199-2.4715-4.8566-1.7833-7.4361,3.4977-1.0689,6.6489,1.3816,10.3135,1.478ZM943.9764,530.939c-.9237-.0106-1.7015.487-1.9764,2.061-.7968.1621-1.6404.4747-2,2-3.2197,1.0275.6521,6.9818-2.2018,7.6188-2.6568.593-4.8963.5423-6.2497,2.3474-3.0263,4.0363-1.2198,16.8314,8.8569,18.9914,2.3227.4979,6.089,1.5948,6.4419-2.1132,1.543-.9929,3.903-.513,5.5667-2.0145.5263-2.1078-.7161-4.9238.8855-6.4202,1.1026-1.0301,3.388-.0906,4.221-1.3019.6087-.8851,1.0716-2.1888,1.5031-3.9838,4.1996,1.1972,1.4738-13.7084-1.8976-13.2205-.0436-3.3205-11.6547-8.0858-13.1496-3.9646Z" fill="#839c5e"/>
<path d="M957.126,534.9036c1.3443,3.2236,3.404,8.9783,1.8976,13.2205-4.3525,4.132-11.4324,5.2019-16.3708,1.4086l-2.6529-14.5326c.9777.1029,1.6113-.5224,2-2,.8948-.2689,2.2781-.7211,1.9764-2.061,4.3085-.6793,8.6805,1.636,13.1496,3.9646Z" fill="#839c5e"/>
<path d="M641.3917,175.0728c.8507,2.4159,5.3589,8.5093.6317,10.7583-2.5741,1.2247-5.4535-.192-8.0754,1.7174,3.5834,1.0876,7.6517,1.9877,11.768,1.1649,1.3253-.2649,2.057-3.1209,1.5654-3.8387l-2.0796-3.0369c-1.1078-1.6177,2.0676-2.2601,3.5757-1.3436,1.0816.6574.9762,2.342,1.1497,3.5107,2.012,1.5862,4.7037,2.8669,6.9212,4.0638-.1804,2.5349,2.2281,4.6107,1.5137,6.8263-2.3236,2.3013-2.6709,6.7877-4.7725,8.6199-2.8268,2.4644-7.0089-1.597-9.8525-1.5349-1.9771,10.5011-11.822-1.9763-19.4965,3.3132-3.0237,2.084-4.8948,4.2028-9.2802,4.0694-3.0312-.0922-7.4098.9839-9.6564-1.9682-1.2457-1.6369-.3902-4.7841-.9149-6.7978,8.7914-5.8705.4783-5.5287,9.4361-11.4826-1.0383-1.4661-1.5961-2.6387-1.6709-3.6519-.1993-2.6997,10.3355-8.3243,8.2433-8.046l5.2674-.7005c5.242-.6971,10.4914-3.9365,15.7265-1.643Z" fill="#839c5e"/>
<path d="M683.8189,213.2047c2.9055,3.225-6.1703-10.7004-7.7623-10.0781l-32.3553,12.6478c-1.2076.4721-2.4468.0312-3.7877-1.2495,2.0346-1.1591,3.9382-1.953,6.0821-3.6842-.6504-.853-1.4946-.7548-2.9793-1.3464,1.4928-1.0094,1.6987-2.9975,2.9966-4.9641,3.0071.9118,7.8126,3.1315,9.2833-.0997l3.9482-8.6744c1.8919-4.1567-.5451-5.7927-2.3961-7.6872-1.5781-1.6151-3.4576-3.4458-4.3845-5.0902-4.803-8.521-5.8874-1.5094-11.0723-7.9058-4.3832-5.4075-11.6737-3.0923-17.5438.2192.376-6.4994,11.4608-8.6115,11.2012-11.3471l24.6661-12.6862c2.1198-.0352,2.0033,4.0755,2.8637,5.2171,1.9577,2.5977,6.2633,3.4763,7.2358,6.8273,1.0403,3.5843,2.3413,6.0806,5.4988,7.0443,6.1244,1.8692,9.5134-3.0077,17.4796-5.6341.5185,3.0483,1.4371,5.2464,4.1592,5.4757,7.6084.641,14.7054,2.3504,21.5954,5.6976,3.9463-3.6402,7.6141-7.304,12.9414-6.2815-7.3731,22.2037-15.3933,42.8763-23.8591,63.8426-3.7808,9.3635,2.9153,22.6301-3.116,27.8232-3.7242-18.2233-9.0818-35.1754-20.6953-48.0662Z" fill="#839c5e"/>
<path d="M354.0099,343.9586c-.935,2.9413-.0245,3.5199,1.9901,5.0414-.2868,2.7211,2.4677,8.4726-1.4848,10.6359-3.9953,2.1867-9.8572,1.8278-13.4855,5.6333-3.1485-.1447-5.1105-2.0224-8.1927-1.0846,1.3005,1.6021,3.7144,1.4878,3.6522,3.3489-.1456,4.3577-8.6173-1.0335-6.7066,15.3035-1.0723,1.2031-3.987,1.2287-4.4144,3.3162-.7142-2.5301-.1684-4.1856-.3367-6.0036,4.7717-2.7193,3.1703-12.3643-2.7559-14.1082-.1525-.9491-.3287-2.0862-2.2756-2.0414-.1048-.2404-.5892-.4509-1-1-.9535-3.9598-5.4729-.8119-7.9363-1.5275-4.5626-1.3254-8.499-2.8052-12.6103,1.384-.8544.8706-3.1513,1.1526-3.2585,3.3069-1.0926.269-.9802,1.0588-1.3268,2.7441-4.0569,1.1693-1.5558,4.8806-3.127,10.1477l-1.4178-1.766c-3.0163,4.8715-7.6492,6.144-13.0163,6.4397-3.5033.193-7.9587,12.5619-6.5794,14.0567-1.9856-1.0058-5.2746-.4496-6.4386,1.1095-2.0137,4.436-.2249,11.4422,4.3023,14.5549,3.3611,2.3109,8.8465,3.3986,12.8025,2.6355,3.3145-.6393,5.6839-3.3778,9.8759-1.5488-2.3125,3.4654-27.1004,9.37-32.2768,10.5948-8.4478,1.9989-16.2837,5.216-25.3239,6.8306-.7267-3.7767,2.0031-6.3734,4.4033-8.8309,1.4713-1.5065.8566-4.9248,3.213-5.7616,1.9333-.6865,6.3843-.4506,6.3147-3.452-.0947-4.0851,2.4484-6.3456,3.7798-9.2741,2.0691-4.5511,5.0734-5.1259,8.8145-7.5779,6.3416-4.1562,4.9595-14.1301-.5173-18.751,1.7465-1.7713,3.0856-2.3956,3.6424-4.0875,1.7803,5.6046,13.886-4.3254,10.6325-6.7827,2.3141-.8982,4.3074-.3183,5.3825-2.8718-16.3595-.739-2.7927,2.5519-15.6038.2934-5.6315-.9928-11.3544-2.1637-14.2766-6.1909-3.5836-4.9388-6.7301-13.7028-1.8008-16.9888l9.847-6.5643c1.7057-1.1371,1.213-5.2811,2.4996-8.1219.9549-2.1085,2.0724-3.8445,4.1181-5.8609,9.8966-9.7548,12.4225-25.2319,24.5498-24.5006-5.9228,5.983-9.8667,15.9005-13.1722,23.1446-1.2568,2.7543-5.0298,4.3309-5.628,8.1839-.2858,1.8407-1.1232,3.067-2.0492,3.8835-1.2016,1.0595-4.1342.4007-6.5934,1.4328,11.7071,4.0348,8.9154-.968,18.3222,9.256,2.8527,3.1006,4.0878,9.8359,2.9501,13.5683-1.0321,3.3861-2.6185,5.5865-4.0853,8.9816,3.7337,2.4603,7.1948-16.5312,7.2473-17.6985,8.0941,3.9347,16.1662,4.842,23.7896,2.6723.8004,1.1827,1.1001,2.7899,1.6802,3.3131,2.0778,1.8739,12.9327-4.9953,16.5361-7.2257.9817,1.4938-.1165,3.6775.7037,5.6457,4.1636,1.7776-.459-7.7274,5.6974-7.6445,8.792.1183,1.5784-5.8492,20.9433-.1927Z" fill="#839c5e"/>
<path d="M319,363c.4625.5963.7608.8325,1,1,.3871,1.0217,1.2363,1.7355,2.2756,2.0414.4358,2.7112,3.0923,3.5897,3.6932,6.0292.7515,3.0508-1.175,5.5113-.9374,8.0791-2.1715,1.2375-2.4922,1.4612-2.6263,4.2974-.1295,2.7397-4.3281,5.0398-7.2115,4.2009-5.4279-1.5793-10.5208-3.2878-15.4995-5.3568-5.4552-2.2669-6.0808-13.1445-5.826-14.3836,1.4993-.4321,1.2385-2.1011,1.3268-2.7441,7.485-.5669,2.3377-6.3461,15.9799-3.4035,2.8478.6143,5.4009.0984,7.8252.2401Z" fill="#839c5e"/>
<path d="M373,395.1102c-1.0348.3227-1.6643.3271-2,.2126-.2872-.0979-.529-1.1177-1.0669-1.0157-5.3597,1.017-10.0795,4.1612-16.381,2.5508,11.0863-5.833-2.3844-.7211,13.7083-11.6266,2.0341-1.3784,4.4349-.8451,5.1041-4.3892.604,2.9277,2.8861,2.7531,5.3811,3.4236,2.0647.5549,3.6046,4.3248,6.0951,3.6045,2.5434-.7357,4.6663-2.2163,7.2086-2.1917-1.0927-1.3884-2.4749-.3719-3.0631-1.7663,1.3543-1.4376,3.1442-.7426,3.9421-1.9586.7253-1.1054.4212-2.7628,1.0154-3.4431,1.66-1.9007,4.913.0887,5.9307-2.1713.3053-.678.2151-2.5157-.3732-2.2504-5.5349,4.2575-13.2272,3.0301-17.328-2.4001-.5569-1.4359.8988-3.4691.8268-4.6887,1.6095-.7448,1.9212-1.9217,2-3,3.5261-1.4954,6.1651-.2277,9.1929.8407,4.0581,1.4319,6.0443,4.284,5.5476,9.1038,3.0633-.0504,5.251.8369,7.6768,1.7617,3.3067,1.2607,6.6932-.362,7.2778-4.0448,6.2033-.8413,8.0796-2.9259,11.4103,1.141,2.9418-1.7189,5.3344-4.4622,8.6429-5.0719,1.1805-.2175,1.6524,1.6433,1.8137,2.2345,1.047-1.2443,4.1406-2.7418,4.2596-.6286.404,7.1735-25.9799,12.594-32.1788,14.3379-11.1161,3.1273-21.5555,6.836-32.8989,8.9931-1.2507.2378-1.6525,1.8137-1.7439,2.4428Z" fill="#839c5e"/>
<path d="M356.8937,363.3189c-.1625,2.2031,3.1557,3.1135,4.7972,3.0337,1.1393-.0554,10.1484,4.9599,10.1815,5.2096.1264.9537.5513,4.1373-.8725,4.4379-3.1959.6746-.7107,4.6875-1.8225,5.9852-2.1749,1.2815-5.1173,2.061-6.6782,4.0392-3.4768,4.4065-9.0217.4445-12.498.4803-4.5736.0471-7.5397,1.0458-11.9212-1.3085-1.8267-.9815-4.404-.6233-5.6921-2.3162-5.2048-6.8402,6.0581-16.6667,3.1176-12.1674,2.5444-3.8933,4.9853-4.067,9.0257-5.4622,4.2453-1.4661,7.1112-3.6537,12.3625-1.9314Z" fill="#839c5e"/>
<path d="M384,364c-.6784.0062-1.4931.2062-1.7546.7488-.3663.76-.2634,1.5317-.2454,2.2512-2.8487,2.15-2.3313,5.7403-.6765,8.6512-3.6908.7885-8.8301,5.4136-10.2292,2.9082-.3246-.5812.1488-1.7734-.0944-2.5595,2.9101-.6324,2.566-3.1952,2.1733-4.8239-.4987-2.0683-2.9401-1.903-4.1811-2.9229-3.9516-3.2474-7.9154-3.5624-12.0985-4.9343.3834-5.1982,3.1775-11.2443-.8937-14.3189.3128-2.9672-1.2621-3.9171-1.9901-5.0414-1.9425-2.9996-3.7547-11.6066-1.639-15.0339,4.0897,2.0089,9.8187,1.8741,10.4833-2.8516.5827-4.1432-3.5569-9.3769-2.5181-13.9081.6858-2.9916,4.2214-4.7259,3.0116-8.6529-.6846-2.2222-2.1574-3.631-5.6234-6.8825,5.0073-2.4952,8.4742-8.1248,13.4565-8.3195l11.6392-.4547c1.6249-.0635,3.0141-1.2637,4.4812-1.318,1.1487-.0426,2.3953,2.1194,3.5867,2.3854,2.3309-1.1254,1.8583-4.3798,2.1252-6.7794.1464-1.316,2.4083-1.124,3.3144-.9336.5872.1234.5156,1.4519,1.1088,2.554.7668,1.4247,5.2329,2.0953,5.6103.6348.8774-3.3948-.5634-6.2932.0597-9.5297,2.6022-.1895,4.9663-.004,7.8974.3228.2859,7.5018-5.715,14.7359-1.5998,23.6508,3.3391,7.2336,6.0645,13.8148,9.964,21.2344-4.2776-1.3808-5.4721.8633-7.7367,2.5136-10.7237,7.8145-5.3932,10.0017-9.9181,13.5919-.8688.6894-2.0624.5755-3.3769.1085.4653,4.7512-5.3328,7.5585-7.0101,12.9128-3.1506-1.0447-2.7808-3.5251-4.318-5.5843-2.5367-3.3981-9.3019-6.0836-13.2296-3.7476-2.6426,1.5717-4.9799,3.0144-8.1176,3.7582-1.2235,2.3822-3.1271,6.6395-3.4048,9.3283-.5584,5.406,5.3011,5.998,8.6466,7.9689,1.9234,1.1331,1.8858,5.188,5.0142,4.7039l2.3663-5.2254c2.4352-.5196,5.2537-.4879,5.9167-3.2501-7.2364,2.2605-17.9013,3.4403-21.1826-3.7022-.5742-1.2498,2.007-2.4166,1.9349-3.5351-.2639-4.0953,2.4822-5.7089,6.3369-7.0785,3.7362-1.3276,6.3043-2.9973,10.6908-.7546.8657.4426,2.8179.5843,3.383,1.8364.2893.6409-.2215,2.1379.2897,2.8433,1.4223,1.9627,3.011,2.9081,2.1014,5.5022-.6045,1.724-2.4091,2.4703-4.0385,4.752l4.5928-.766c.842-.1404,1.3919,2.3518,1.6204,3.2772.6335,2.565-4.3425,1.5957-5.9287,4.4698Z" fill="#839c5e"/>
<path d="M759.0866,540.1752c.9925.9151,1.5184-.2038,2.1536-1.0709,1.3737-.5485,2.792-1.4383,4.8115.4266l-6.3497,3.7037c-.6958-.9161-.6195-2.0171-.6153-3.0595Z" fill="#839c5e"/>
<path d="M854.0052,575.0971l-1.0919-.0866c-.7666-.5369-1.2714-2.3163-3.059-2.0737.4278,3.2015,1.7877,5.3923,2.8307,7.6958-1.6628.6103-3.475.1327-5.1997-.9771-6.3702-4.0993-17.5092,1.488-20.2724-3.96-.8235-1.6237-2.7085-5.3317-4.8502-3.7269-4.7073,3.5272-7.5301,1.1789-11.4535-.9309-7.1099-3.8231-12.1859-8.1466-12.3887-17.0554-.0798-3.5064-5.4041-15.2811-6.3788-18.8196,6.5107-1.8626,15.2939.9711,21.1974,4.308,3.7355,15.231,5.0143,13.3501,18.6369,21.5768,2.5555-.6973,4.0317-2.1532,6.3167-2.5056,1.4855,4.579,5.5893,8.1417,10.059,5.8956,2.4192,3.7196,4.5572,6.942,5.6534,10.6596ZM848.3375,569.4564c-.9354,1.9902-.2383,2.7978,1.1072,2.5808.6774-.1092.8169-1.3903.1543-1.9599-.2718-.2336-.9114-1.3658-1.2615-.6209Z" fill="#839c5e"/>
<path d="M761.2402,539.1043c-.6349.2535-2.4426-.9309-2.1536,1.0709-6.0169.6263-9.5112-5.5256-12.9626-7.2618l-2.3385-6.9009c-.5744-1.5663.0716-3.4999,1.0649-4.7927.5038-.6557,2.0927-.3497,3.2147-.992,8.1611-4.6719,17.3464-1.3786,18.4778-8.1502.4687-2.8051-2.0963-5.2598-2.9398-7.8439,6.0075-1.0229,11.1576-1.895,14.2192-6.5997,2.4452-3.7575-6.2955-4.937-.468-13.0911,3.0154-4.2193-2.0742-8.7866-1.5894-12.5862.7202-5.6451,1.6346-10.3801-2.0743-16.8211,11.5261,6.3989,12.0484-8.3726,22.603-2.2415-7.6827,9.1976,4.8749,10.7273,1.1025,20.1883-1.0893,2.7318,2.8939,4.6772,3.0263,6.8736.5103,8.4683-9.3475,14.2924-11.8051,19.548-1.9078,4.0798-3.0549,9.7801-2.3588,14.1746.6451,4.0727,6.4737,4.0899,8.6522,6.462,2.7263,2.9686-1.1668,8.3829-3.7711,9.4577-.8362-2.8852-.3933-4.9652-1.6645-6.4837-1.0688-1.2768-2.913-.8599-4.7646-1.6449-7.2921-3.0914-16.5439-1.3638-21.0069,5.7372,4.1432-1.7697,6.1008-4.7859,10.3033-5.0171,3.914-.2153,15.8695-.991,14.8562,5.3477-.7938,4.9659-7.4584.2519-9.964,3.5281-.6984.9131-1.995,2.7677-1.4753,4.0849,12.2589-4.309,25.4176-6.1565,36.5719,1.4396-12.0692-2.5989-22.0954-4.7375-33.7836-1.1565.9902-.3034-16.5433,2.6729-16.8117,1.244-3.1196-1.7179-1.4829-7.0367.6636-9.6313-3.3895.7993-5.3225,5.3085-4.344,8.1043.5893,1.6839,2.681,2.3691,1.5204,3.9535Z" fill="#839c5e"/>
<path d="M459.9974,341.8583c-.6795-1.0768-1.952-2.4852-2.2914-3.6851-1.2517-4.3083-4.8414-7.5201-6.9893-12.3123,4.31-2.7907,7.314.1231,10.8052,2.8386,3.4516,2.6846,11.1862,2.3367,14.817-.0313,4.1733-2.7219,6.1668-7.8195,11.0908-9.0545,3.4238-.8588,7.3209-2.581,10.6608-2.8669,2.6502-.2269,3.559,6.0162,1.8969,8.2431l16.6306,12.4096c2.3854,1.7799,4.0311,3.953,6.2034,5.8653,2.5964,2.2857,6.6891,2.8721,8.2894,6.8331l-47.1126.0353-15.0887,2.337c-3.223-2.7697-6.126-9.6428-8.9121-10.6119Z" fill="#839c5e"/>
<path d="M650.8563,433.0768c.7973,4.0865-3.5925,8.3402-6.6504,10.9529-8.5698,7.3221,1.7339,8.6346-7.7518,12.2363-2.3503.8924-4.1517,2.4195-4.7671,5.6555l-27.6711-5.0441c-.8443-.1539-1.5666.3388-1.9857.6726-.2954.2353-.5127.759-.1825,1.2506-1.2993-.1433-2.5895-.3517-3.8478-.7139-.5457-2.1384-4.1923-1.1142-5.8808-2.3303.983-10.8755,3.8897-13.1944,3.1337-25.8604,1.1345,1.842,1.7369,3.726,4.4283,3.6127l2.3833,3.5678c.8943-1.6776,1.4034-4.4417,3.5123-3.8859.9141.2409,1.2758,2.3236,1.8588,2.6131.5096.2531,1.3836-1.9886,2.16-1.5026,3.3288,2.0837,7.1381,4.5532,11.0955,2.1114,1.1687-.7211,1.0303-2.4607,1.5579-4.1344,2.886.8295,4.9638.9436,6.8144-.7086,5.3321-4.7603,1.3391-5.8187,3.8194-9.0656.4485-.5871,1.9806-.8287,2.7414-.0544,2.8204,2.8707,6.3237,4.1194,9.4801,6.536,1.8766,1.4368,3.2882,4.406,5.7521,4.0912Z" fill="#839c5e"/>
<path d="M625,223.8937c-5.904,2.0307-10.6006,3.1804-15.3674,5.051l-23.4885,9.2178-27.2384,10.9639c-1.7779.7156-13.7122-7.0333-11.3009-13.8537,1.2175-3.4435,6.5928-1.7909,9.1422-1.5713,3.9309.3385,5.8848-3.555,8.6891-5.0443,4.2572-2.2608,2.8288,1.3302,5.5153-7.0115,8.0716,9.1307,6.8315-2.9421,25.8042,1.7621,16.1139,3.9954,14.4664-7.1409,29.6347-3.0327.6846.1854,1.6823-1.9959,2.3042-1.9965,6.2705-.0065-4.3098,4.9691-3.6944,5.5153Z" fill="#839c5e"/>
<path d="M463,468c-1.5324.416-1.3753-1.5461-2-2,1.0052.3088,2.1367.5986,2,2Z" fill="#839c5e"/>
<path d="M461,466c-.7102-.5161-2.228-.5697-2.1634-1.8898,1.1522-.0887,1.5656,1.4024,2.1634,1.8898Z" fill="#839c5e"/>
<path d="M560.7303,466.8661c-1.0413,2.9451-3.7556,5.3133-6.8484,5.8819.8446-2.8765,4.1121-5.3354,6.8484-5.8819Z" fill="#839c5e"/>
<path d="M463.9311,468.9862c-.1529-.3737-.7883-.5697-.9311-.9862l.9311.9862Z" fill="#839c5e"/>
<path d="M475.8445,477.0315c-4.7012-.4491-10.1026-3.6209-11.9134-8.0453,4.2102,1.9722,8.8257,4.535,11.9134,8.0453Z" fill="#839c5e"/>
<path d="M564.8287,461.9291c.0786,1.6045-.9191,2.8891-2.5787,2.9468-.3653-2.0309,1.5448-2.1929,2.5787-2.9468Z" fill="#839c5e"/>
<path d="M458.8366,464.1102c-2.3612-.4824-4.1439-2.5042-3.9291-5.0216,1.9153,1.1632,3.8678,2.4723,3.9291,5.0216Z" fill="#839c5e"/>
<path d="M553.8819,472.748c-.6098,2.0769-1.7109,1.1972-2.8819,2.252.0988-.6741.3188-1.4128.7767-1.8071.6551-.5642,1.4576-.3258,2.1052-.4449Z" fill="#839c5e"/>
<path d="M551,475c-8.6782,7.8165-20.9118,9.735-32.7215,11.4761-11.3602,1.6748-29.0432-1.549-39.3199-6.4489-1.8125-.8642-2.7213-1.4342-3.1141-2.9957,22.5239,9.9802,47.309,11.4845,69.7579-.3033,1.8755-.9848,3.575-1.8455,5.3976-1.7282Z" fill="#839c5e"/>
<path d="M465.7972,394.8996c-2.6967,4.9431-19.7634,16.262-18.7837,41.2134.4576,11.6542,8.135,20.1503,7.8939,22.9756-5.3076-3.2235-6.9158-10.4003-8.3911-16.5866-4.2252-17.7178,2.6815-33.6902,15.1457-45.7926,1.547-1.5021,2.6986-1.3655,4.1351-1.8098Z" fill="#839c5e"/>
<path d="M548.9921,384.2073c1.371,1.0197,3.7963.861,4.7787,2.8318-5.1599,12.3423,3.213,5.1175,2.7248,18.211l12.0306,3.4561c3.7013,1.0633,6.1843,4.886,9.9392,6.8553,3.3522,1.7582,2.5486,7.5225,3.3771,10.3413-2.2989-.0086-4.6522-.4208-7.3108.954,4.001,9.3586-2.0931,29.5232-9.703,35.0722-.0773-1.5776.8895-2.8069,1.8921-4.3674,6.0633-9.4376,9.1201-21.1846,6.1707-32.0683-4.0306-1.3558-7.4702-.5379-10.7839-.5774-3.9062-9.6119-9.5331-20.5296-19.6746-26.0919l-.652-10.2191c-9.1301-4.0793-18.1369-6.7811-27.7933-6.8172-35.3947-.1322-37.8923,9.9267-48.1906,13.1117.551-1.0099.5043-2.1549,1.9058-3.057,13.918-8.9582,29.673-12.7387,46.2315-11.8765,9.1143.4746,17.3208,1.8826,25.5512,5.9125,3.1546,1.5446,8.1741,1.4709,9.5064-1.6713Z" fill="#839c5e"/>
<path d="M560.7303,466.8661c.063-.8991.932-1.5176,1.5197-1.9902.053.9462-1.1955,1.3932-1.5197,1.9902Z" fill="#839c5e"/>
<path d="M653.916,407.1653c-.5959-.2403-1.6954-.1707-2.4059-.2344-1.2454-.1117-1.056,1.8888-1.9756,2.7086-1.7893,1.5948-4.2298-.1377-6.0226-.3954.3276.6901-4.2317-3.7349-1.156-11.4538l9.9594,8.6135,4.4698-7.7431c.1253-2.0954,1.5801-1.8618,1.4433.5499.3577.5434.8406-.2699,1.0741-.4836.686-.628.8142,1.4895,1.5757,1.697,7.7406,2.1094,17.9526-1.7813,25.492-4.1643,2.676-.7749,7.6764,2.2336,10.4837-1.5262,1.5283-2.0468.2222-6.171,1.8464-8.0115,1.8548-2.1018,5.6227-1.6538,8.3815-2.643-.3489,8.3148-.0363,17.8219.8328,26.0368-.7587.775-3.2766.0568-3.4345,1.997-.9813-1.1345.1035-1.5525.2963-1.8664.8727-1.4212-.7557-1.0583-1.2734-1.224-.838-.2682-3.5855,3.2763-4.1731,5.9304-.3015-4.2379-.3815-8.2884-3.1554-12.0629l-24.7065,2.8442c-1.372,4.377.3812,8.4309-.5016,13.4533-4.8153-2.3381-14.9842-13.8838-17.0503-12.0218Z" fill="#839c5e"/>
<path d="M633.1234,485c2.623-8.5434-2.5415-10.107-1.1234-20.0735,2.6589,1.1946,7.5354-.338,10.2633,2.9979,2.24,2.7393,4.6263,7.8657,4.1044,11.5904-.4271,3.0477-3.332,5.6694-3.0609,8.6159-4.5707.3232-7.1931-2.2676-10.1835-3.1307Z" fill="#839c5e"/>
<path d="M631.0709,509.8563c1.1113,1.5386,2.6738,2.3063,4.7756,2.0728.0593.9951-.0726,2.069-.52,2.711-2.4463,3.5107-7.2969-.852-8.1847.1472.1615-1.0684-.4573-2.8867.2583-3.8476.8708-1.1694,2.4429-1.0429,3.6708-1.0835Z" fill="#839c5e"/>
<path d="M699.9974,533.0892c-.7019.1524-1.374.4497-1.8635.9869l-5.183-5.9482c-.248-.8704.9213-2.0672,1.6411-2.2121,2.4493-.4932,4.9513,6.8266,5.4055,7.1734Z" fill="#839c5e"/>
<path d="M692.9508,528.1279c.6077,2.133,1.6838,3.6108,2.0492,5.8721.3885,1.2118-.6625,2.0359-1,3-.7039-.2027-1.2897-.8357-2-1,.0882-2.2346-.4697-4.7462-3-5,.1144-1.2797-.3451-4.3102-2.0177-3.8287,1.8542-1.398,4.3459-.9054,5.9685.9567Z" fill="#839c5e"/>
<path d="M686.9823,527.1713c-1.5855,1.7551,1.52,2.7472,2.0177,3.8287.7562,1.6431.659,4.4584,3,5-.0439,1.1122.6824,2.2417.8819,3.3071-.9237,1.264-2.6119.8457-3.7402,1.7533-1.7365-1.4952-1.9852-4.0269-4.1417-5.0604l-1-1c.032-.6888.1271-1.4551-.2796-2.1873-.2782-.5009-1.0668-.7187-1.7204-.8127-.0153-1.4681-.717-2.4358-1.939-3.0197.0764-.5789-.2895-1.8378.1679-2.3445,2.1764-2.4105,4.9285.3829,6.7533.5354Z" fill="#839c5e"/>
<path d="M627.1417,514.7874c1.9514,3.2151,6.7622,2.9438,9.8583,4.0905.2544.4348.7682,1.2444,1.5766,1.5589,6.6602,2.5912,12.0733,6.5298,17.4234,10.5632.6597.8033,1.0353,1.473,2,2,.701.3829.8517,1.9944,2,2,1.3636,1.8724,3.0826,3.7178,5,5,.5534.8567.6956,1.9909,2,2,.4709,1.8636,1.3904,3.7746,3,5l-.0236,2.0315c-1.2239.1857-2.7259.8237-3.7874.2178l-2.189-1.2493c-.0075-.4177.0578-.9068-.1702-1.3674-.3349-.6764-1.2565-.3872-1.8298-.6326-.037-.7844-.661-1.4589-1.1653-1.9193.7189-2.0476-2.3869-2.194-2.878-3.246-.6498-1.3918-2.3161-3.2399-4.0511-3.7815-.2235-1.1917-2.5223-1.4143-2.8681-2.3012-.4949-1.2693-2.0495-1.7161-3.002-2.5315-1.4102-1.2073-2.0519-1.8515-3.8878-2.4645-.8907-3.0597-5.1092-4.6174-8.0276-4.8642-4.0707-4.4742-6.117-2.3362-10.8057-5.5784-1.6904-1.1689.5357-3.9824,1.8274-4.5259Z" fill="#839c5e"/>
<path d="M639,493.061c.842,1.5746,2.0627,2.4998,4,1.8209,1.3257,2.8973,7.9572,3.0982,8.0432,6.584.0324,1.3137-.567,2.3405-2.0334,2.6837-.3885-.8724-1.2104-1.2937-3.0098-1.1496-.595-1.798-2.3921-2.2884-5-2-.7588-1.303-1.4247-2.4674-4-1.878-.4558-1.1422-1.8311-1.2563-3.2252-2.0473-1.8386-1.0432-.9476-4.7228,1.073-4.8395,1.4071-.0813,2.4692,1.091,4.1522.8258Z" fill="#839c5e"/>
<path d="M636.1201,524.8917c1.9872,2.1842,5.1475,3.9025,8.0276,4.8642.6197,2.1289,2.5774,1.3961,3.8878,2.4645.8414.6861,1.7077,2.3692,3.002,2.5315.9286.1164,1.6388,2.3949,2.8681,2.3012.5366,1.98,2.3576,2.9861,4.0511,3.7815.7992.8697,1.0019,3.3611,2.878,3.246.1639.6649.4567,1.6159,1.1653,1.9193.0197.4181.0195.9043.2236,1.3652.3103.7007,1.2554.3374,1.7764.6348l.0604,3.3753c-.5494,1.0837-1.6735,1.6314-2.8557,1.7271-.7705-.2934-1.4626-.7525-2.2047-1.1024.0516-.7566-.2029-1.9896-1.1673-1.9075.3231-2.0692-1.8537-2.2268-2.7815-3.1791-2.0864-2.1417-2.6956-5.8708-6.004-6.0787-1.0924-1.2426-1.437-3.4594-3.9351-2.9331l-1.1122-.9016c.0267-.7166-.1988-1.4732-.7024-1.8139-.694-.4696-1.7481-.0252-2.2976-.1861-.7652-2.462-2.8429-2.8008-4.9724-3.1772-.6018-.9092-1.1211-1.6378-2.6233-2.4134-1.1053-.5707-.5064-2.7068.1154-3.2546.5734-.5053,1.6527-1.3432,2.6004-1.2631Z" fill="#839c5e"/>
<path d="M636.0276,531.8228c1.0656,1.6098,3.6157,1.9882,4.9724,3.1772.4137,1.3311,1.6233,1.9945,3,2l1.1122.9016c1.1667.9458,2.233,2.8261,3.9351,2.9331,1.8989,2.1602,3.68,4.4618,6.004,6.0787.9401.7802.8167,3.3465,2.7815,3.1791-.1297.8306.4752,1.5813,1.1673,1.9075l-.084,1.231c-1.5254.6232-3.1483.0605-4.7139-.0289-.7451-.0425-1.619-.9383-2.3714-1.1824-1.2012-2.4541-3.1367-4.638-5.6614-5.7894-.1381-2.1127-2.1357-3.2966-4.1693-3.2303.1607-1.8237-1.4501-1.2279-2-2-.9776-1.3724-1.9951-2.4382-4-2-.1188-.3927-.7454-.6678-1-1-3.0363-3.9623-8.5743-4.4702-13.0246-6.9484-2.0265-1.1285-3.0881-1.7538-5.3785-2.0502-4.0587-.5253-7.9109-2.0908-11.5522-3.1615-.0825-1.1362-1.0196-1.9089-2.0295-2.3607,1.0174-.8228,1.6235-.9724,1.9849-1.4792l10.7074,2.0038c2.2161.4147,3.6778,2.1019,4.8995,2.9322,9.0676.2125,3.3959,2.7613,15.4207,4.8868Z" fill="#839c5e"/>
<path d="M635,538l1,1c.4542,1.8452,2.387,1.9527,4,2,.2752.9711.6554,2.0438,2,2-.2038,2.3132,3.2752,2.1841,4.1693,3.2303,1.4626,1.7814,3.162,4.9788,5.6614,5.7894,1.1086,2.2649,2.8899,4.2681,3.0145,6.8779-10.857,1.0576-17.7441,8.3449-26.4653-1.5334-5.1189,2.0176-9.1773.4254-11.6523-3.9226l-7.1858-12.6239c-1.6358-2.8737.0399-6.6702-.3738-9.4346,9.4987-1.1239,17.2261,4.1085,25.832,6.6168Z" fill="#839c5e"/>
<path d="M641,507c1.8408,2.6301,5.0261,3.8379,8.9429,4.2539,3.019,2.4636,9.567,16.4689,21.6362,18.3313,1.3863.2139,3.0791-2.0676,4.1534-2.2768,1.7247-.3359,2.7951.9392,4.3285,1.6719-.184,1.3946,1.4963,2.0248,1.939,3.0197.5089,1.1438.3424,2.7332,2,3,.384.118.6162.8161,1,1-.5069,2.0938,1.2967,3.3871,1.9816,5.0866-1.6124-.1643-3.7123-.0171-3.9108,1.9134-1.5293-2.2409-3.4592-5.8212-4.1071-3.507-.1153.4119.4156,1.4575.115,1.8036-.7604.8752-1.9974,1.3854-3.0787,1.7034-.4681-.3405-1.0457-1.051-1.1202-1.5086-.1618-.9944-2.3962-.3611-1.9096.3685,1.3419,2.012,2.7783,3.296,3.0297,5.3789-1.2352.8133-2.5928,1.3432-4,1.7612-.2528-1.0604-1.24-1.4214-2-2,.0232-1.9966-1.6954-3.6504-3-5-.0977-.3374-.1043-.8892-.2666-1.3109-.2807-.7293-1.2683-.3781-1.7334-.6891-1.3396-2.0737-2.3385-4.9871-5-5-.5807-.7974-1.6138-1.3201-2-2-.6035-1.0624-1.0344-1.272-2-2-4.7096-5.7347-12.0024-9.5303-19-12.1221-.4811-.8223-2.0372-2.5996-1.0302-3.9131,1.4821-1.9332,3.5842.507,6.1104-.149-1.367-1.9662-4.0063-3.134-6.2338-2.8866-.1352-2.2694-2.9787-2.1323-4.7756-2.0728-.8868-1.2279-3.7303-5.0793-.7593-5.4337,3.8208-.4558,7.0139,3.2884,10.6885,2.5774ZM647.9949,517.8838c-1.083-1.8066-3.2473-3.3432-5.027-2.4491l5.027,2.4491ZM650,518.5c0-.2761-.2239-.5-.5-.5s-.5.2239-.5.5.2239.5.5.5.5-.2239.5-.5ZM655.8938,522.6969c-2.0891-2.2255-3.2565-2.6899-4.8631-3.6228,1.0958,2.1623,3.0071,3.1498,4.8631,3.6228ZM669.8603,535c0-.4751-.3852-.8603-.8603-.8603s-.8603.3852-.8603.8603.3852.8603.8603.8603.8603-.3852.8603-.8603ZM670.6182,537.24c.0652,1.3595.3396,2.3329.8591,2.7433.3389.2678.9524.1932,1.5179-.4424.6418-.7214-.7992-1.1378-1.3666-1.5561l-1.0103-.7448ZM679,537.5c0-.2761-.2239-.5-.5-.5s-.5.2239-.5.5.2239.5.5.5.5-.2239.5-.5Z" fill="#839c5e"/>
<path d="M643,494.8819c-.9404-2.0551-2.4371-2.0671-4-1.8209-1.1198-2.0941-4.0276-2.4257-6.0919-3.229.0032-.9068.0548-1.8124.1522-2.7139,4.2278,1.7136,10.289,1.133,12.758,7.2781-.4469.3761-1.9858.1939-2.8184.4857Z" fill="#839c5e"/>
<path d="M637,499.122c.8032,2.0127,2.5899,2.0339,4,1.878,1.1889,2.0414,3.4753,1.8283,5,2,1.0403,1.3195,2.076,1.3682,3.0098,1.1496,1.0846,2.4358,3.4854,4.0636,2.7161,6.6492-.1763.5926-1.7429.2204-1.783.4551-2.2318-1.8212-5.6279-4.8954-8.9429-4.2539-1.6741-2.392-11.3951-2.8183-10.1476-6.4351.2525-.732.482-2.4522,1.8525-2.3064,1.6651.1771,2.9969,1.1607,4.2951.8636Z" fill="#839c5e"/>
<path d="M637,155.2493c-.6413.2285-1.1862.8071-1.9239.979-1.0538.2456-2.1867.9394-3.055.0918-.6534-.6378-1.3737-1.5983-1.7059-2.5479-3.7923-10.838-12.5767-2.0188-15.3779-8.6018-1.9306-4.537-6.0341-1.9841-5.9761-3.6729l.0448-1.3046c3.2581,1.1624,22.6842-17.0281,24.9796-13.8799-2.2023,9.7271,9.2764,9.2224,11.2679,12.1916,1.6887,2.5178,2.2408,5.1622,5.3697,5.77-.9128,1.1559-1.113,1.6184.336,2.3917-2.852.3529-11.4264,6.5059-13.9591,8.5831Z" fill="#839c5e"/>
<path d="M766.4587,353.7838c1.7795.7203,3.2847,3.7259,6.0282,4.0091-2.442,10.6662-4.813,2.3096-10.4843,17.7632-.6819,1.8582-4.9173.0173-5.5658-1.8537-1.1219-3.2368-3.6868-6.3564-7.1772-6.2898-3.4572.0659-6.3637,1.679-9.194,3.6572-.1435-3.9775-.6278-6.8003-.7401-10.1929l-.4929-14.8871c-.1328-4.0106-2.2367-9.8792.8158-13.2548,1.4874-1.6449,3.5344.6715,6.45-7.1052.3275-.8734,2.9284-.526,2.7567.2609-4.5992,9.9268,2.4673,11.0658,2.2457,13.6291-.3887,4.4976-3.6069,1.3727-2.434,10.8862-1.3824,1.0542-5.2823.8207-5.5479,3.2015-.1725,1.5462-2.0215,4.4649.2151,5.7671,7.5157,4.3756,6.3564,6.6073,10.9031,5.3431-.247.0687,3.6782-7.8248,4.9795-8.6438,1.8833-1.1853,5.3877-1.5234,7.2421-2.29Z" fill="#839c5e"/>
<path d="M873.4054,570.5322c-2.0199.0544-9.6864,1.7202-9.0986-2.0063.5935-3.7623,4.4904,3.0834,10.7658-6.7689,1.5339-2.4082,4.8501-3.4524,5.9139-6.7339,1.7576-5.4214,9.326,1.4982,14.2081-7.3405,8.8603,4.0085,8.5295,17.4408,6.2917,21.2967-1.1661,2.0092-4.134,1.3303-6.1247,2.4131-3.9296,2.1374-7.4599,4.2429-11.8344.6984-3.4849,2.7542-7.3497,1.6133-10.122-1.5587Z" fill="#839c5e"/>
<path d="M442.815,312.876l-8.815-10.876c-.3877-1.5635-2.0172-3.8121-3-5-.9356-7.5538,3.2374-14.5591,7.6956-20.5102-.738-.7155-1.7467-1.3013-1.8328-1.9398-.2368-1.7571,3.0707-4.1177,3.1372-6.55,1.3301-.2479,1.996-1.7701,2-3,.787-.1493,1.4963.0418,1.9186.5568.285.3476-.0241,1.7892.3482,2.0232,5.8776,3.6943-1.7577,7.9759,4.9536,17.1491,7.1986,9.8392,2.1055,6.2682-6.4054,28.1469Z" fill="#839c5e"/>
<path d="M454.9606,252.8465c-1.1388.1011-2.3241.4419-2.9606,2.1535-.5179.2238-10.6751,7.9073-10,10-.3181,1.0126-1.9643,1.6938-2,3-.6504.1212-1.6232.3876-2.2677.2756-8.6091-1.4953-6.3699,10.0874-23.6614,7.685l6.7394-18.75,20.8086,2.3051c2.7894-3.61,6.5926-5.4447,8.8736-9.1442.9997-1.6213.8739-4.1244,2.8943-3.8316,1.4353.208,4.0698,1.2944,3.3522,3.078-.5566,1.3835-1.4753,2.2052-1.7784,3.2284Z" fill="#839c5e"/>
<path d="M452,255c1.0711-.463,2.5819-.8751,2.9606-2.1535,1.6339-.145,2.4512-1.4512,3.8594-.5677-1.5929,2.8014-4.3013,3.7498-6.5722,5.8727-.6561-1.5614-.0613-2.3262-.2479-3.1514Z" fill="#839c5e"/>
<path d="M447.6929,324.979c-1.8236.2036-3.6805.1815-5.5066-.0289-.7076-.0815-1.331-.7656-1.9948-.9843,2.2504.1534-2.6072-7.4756.0945-9.8924.7505-.1205,2.1936-.3356,2.5289-1.1975.3603,4.3208,2.2215,8.5726,4.8779,12.103Z" fill="#839c5e"/>
<path d="M741.1548,521.1365c-2.1954,1.3289-4.7028-1.2703-7.3241-.9776-9.2342,1.0312-16.4314,10.5259-24.4286,5.1994-2.6342-1.7545-3.5303,6.7929-7.2577,7.7073-1.6404-2.9059-6.7734-7.5404-4.2512-11.9395,1.0011-1.746,3.088-1.0455,5.1393-1.1104,2.1759-.0689,3.6073-2.3972,5.8663-2.1628,3.5466.3681,6.7521.5233,9.2669-2.0212,1.6243-1.6434,2.2096-4.5412,3.076-7.8479,14.8072,4.1859,13.7298-4.3691,20.4255-2.928.392,5.7757.2686,10.9221-.5124,16.0806Z" fill="#839c5e"/>
<path d="M897.1522,712.7349c.0489-1.8582-1.8261-2.2259-3.4795-3.474-11.0736-8.3596-6.5276,1.2877-18.7971.0656-3.0784-.3066-5.9651-.9225-6.9989-3.8225l48.0003-2.6102c2.129-.1158,4.6989-1.6108,6.6023-.2491,2.6022,1.8616,4.8319,5.8373,8.6084,5.6654,4.2993-.1957,8.4925-.5217,12.9479-.0431,5.0688.5445-.694-7.6916,11.4188-9.0235-.6738,4.6482-1.0199,7.6488-2.2716,11.3272l-56.0307,2.1643Z" fill="#839c5e"/>
<path d="M291.6155,404.6095c-5.9766,1.2755-12.2327,2.2405-16.6178-2.7373-2.4976-6.4401-4.0615-8.2032.2493-15.8344,16.676-4.1726,8.5528-.1193,17.6834,1.4722,6.8575,1.1953,10.0917,10.3713,6.6503,15.779-1.9552,3.0724-5.1732.7246-7.9653,1.3205Z" fill="#839c5e"/>
<path d="M318.7795,408.8766c-.0155.2018-.1127.4056-.1024.6063-8.5257-.0712-21.2411,7.2248-27.7562,4.2963,1.5384-1.4302,3.5791-.5162,4.3623-1.9856.4102-.7695-.0072-1.721-1.243-3.1633l6.5805-3.8713c2.5859-1.5213,1.6635-6.1833,2.8675-8.8079,1.9424,1.3509,4.0755,3.4846,5.6816,2.1407,2.0224-1.6923,3.8274-2.9979,6.1152-4.1273-10.1469-3.1882,5.5773-3.8208,4.0032-2.6155.9276,3.9943,1.8834,7.4732,6.8368,7.4902,8.7436.03,3.5342,2.2133,10.9707,4.5979l-18.3162,5.4394Z" fill="#839c5e"/>
<path d="M538.0262,317.8819c-5.3415,5.9422-13.5124.8507-24.8797,7.651-2.5126-.0008-5.7754-3.1704-5.4904-5.3728.6998-5.4078-.8306-11.0229-.4347-16.8046,1.1677-1.6061,3.432,1.1247,4.3237,1.9562,1.9542,1.8222,5.2609,1.3732,5.6766,4.5501.2114,1.6157,1.3128,2.4154,2.3872,2.7088,1.9471.5318,2.3731-1.274,3.4552-2.6224,3.5064-4.3696,15.919,8.4768,14.9622,7.9337Z" fill="#839c5e"/>
<path d="M732.9186,331.9921l-7.7468-.5855c-4.2917-.3244-8.5567,1.31-12.3188-.3305.8637-2.5537-1.4041-5.4165-2.0148-8.0741-1.1207-4.8765.9497-9.3128-.8029-14.2027l-1.7679,13.3767c-1.3967-6.0894-1.467-11.5893-.5809-17.7887,1.6213,2.9744,5.6204,4.2243,6.3606,6.3134,1.6893,4.768,3.4824,7.4903,8.7261,8.9245,3.2831.898,6.5136,2.1901,9.8499-.5142,1.2729,4.8246-.2751,8.7734.2956,12.8813Z" fill="#839c5e"/>
<path d="M725.3215,261.8341c-4.1089,1.7567-6.1781,1.5859-9.3732-1.058-.937-.7754-3.0799-.6606-3.8048-1.7052-1.8073-2.6042-.7589-14.9187-.5519-19.3495,8.5174,16.7957,13.6492,3.8,17.989,13.3548,1.472,3.2407-.6438,7.2121-4.2591,8.7578Z" fill="#839c5e"/>
<path d="M509.7638,202.9764c-.7636,4.1517,1.8693,8.4673,1.9359,12.9011-.7438,1.6378-4.4465,2.683-4.1412,5.5892-2.1413-.8931-3.6869.0766-5.422.1816-1.0347-7.261-4.2079-1.7593-2.5214-6.939-1.2655-1.0234-3.1105-.4709-4.5494-.9377-.8233-2.7321-1.9601-5.9001-.2566-8.7832.7089-1.1997,2.5206-2.2347,3.6594-1.8926,1.194.3587,1.3057,2.4497,1.7843,3.913.6265,1.9155,2.5613.5699,3.1938-.1317.7408-.8218.7588-2.1426,1.0521-2.9585,1.9076-.5877,3.7553-2.8086,5.2651-.9423Z" fill="#839c5e"/>
<path d="M325.2467,277.5564c-1.4041-3.342-2.3466-7.5228-5.3832-9.6273,6.5334-2.6965,12.7335-6.1257,20.3235-8.5922,1.302,3.8137,1.3395,7.5391,1.5056,11.6126l-16.4458,6.6068Z" fill="#839c5e"/>
<path d="M193,427c2.9243.0144,8.2152,6.7564,19.1934,3.0967,2.8956,3.8601,6.9954,2.8419,11.9439,4.4793-5.2363.6475-10.9863,5.6701-16.2585,3.9331l-17.0593-5.6205c2.2715-2.0335,1.8473-3.8235,2.1805-5.8886Z" fill="#839c5e"/>
<path d="M193,427c-.9688-.0048-1.4179-.1863-1.7979-.1155.0449-2.762-6.6151-2.9443-8.0656-5.8871-1.4183-2.8775,3.5214-9.0861,5.162-10.8793,3.5946-.0816,8.3166-.5472,11.5971.9841,4.2338,1.9763-6.1087,11.021-6.8956,15.8978Z" fill="#839c5e"/>
<path d="M637.9134,364.9816c-1.156-1.2224-1.5237-3.0853-1.9829-4.6316-.1783-.6003,5.1193-10.4715,7.0932-9.5153,2.2244.8766,5.422,2.8349,3.8176,5.9295-1.377,2.6559-4.6818,3.4311-5.8961,6.4101,3.42-.8839,4.3036-4.1465,7.4273-6.1048,5.0185,3.3496,4.6635,10.4673,1.5671,11.5988-3.6956,1.3504-7.7805-1.296-10.8595-1.9743.2694-.9691.769-1.6051.8535-2.0443.0958-.498-.4614-.8642-.9422-.3121-.2162.2483-.655.3678-1.0779.6441Z" fill="#839c5e"/>
<path d="M763.8881,352.5418c-3.0381,1.0969-5.7755.9901-8.6492.3223-1.4662-2.1191-3.0867-3.3803-5.1869-5.1275.2181-2.4462,1.3803-5.9767,4.1028-6.7251,3.6598-1.006,7.2227,1.1357,10.4502,2.3088.9206,3.2313.7335,5.9187-.7169,9.2214Z" fill="#839c5e"/>
<path d="M700.5478,308.1706c-1.2848,3.1689-.7757,6.9652-2.8662,8.5231-3.622,2.1443-8.2179,1.199-12.5183,2.6715l4.3-14.4851c.9302,2.4201,1.2157,4.4413,3.6616,5.0081,2.8695.1419,5.1472-.7474,7.4229-1.7175Z" fill="#839c5e"/>
<path d="M679.0052,317.9344c1.3557-2.577.3928-5.7329.9819-8.9099.7902-4.2611,2.884-7.8891,2.7898-11.8408,1.8441-.0093,5.8593-.2869,5.728,1.6624-.1958,2.9049-3.4305,27.0407-9.4996,19.0882Z" fill="#839c5e"/>
<path d="M983.056,421.4898l-3.0251,18.5296c-3.9047-3.2137-7.0855-6.4811-5.8648-11.4785.9172-3.7553,4.1158-8.5694,8.8899-7.0511Z" fill="#839c5e"/>
<path d="M737.6795,378.8455c-.8249-3.0575-1.3026-6.3641-1.421-9.936l-.7407-22.3471c-.2938-8.8654-.0515-17.4641-.52-26.685,3.5049,2.2818,1.3354,17.2225,2.4902,27.585,1.1298,10.1378.4926,20.0458.1914,31.3832Z" fill="#839c5e"/>
<path d="M712.4934,416.189c.4875,2.3117.5662,5.136.4908,7.5407-.7764-.1716-3.3288.6149-3.404-.7737-.8028-14.8231-.6103-29.0324-.4918-44.0634,1.2477,1.2914,1.7999,3.3658,1.8096,5.229l.1554,29.9365c.0064,1.2249.9471,1.8072,1.44,2.1309Z" fill="#839c5e"/>
<path d="M574,345c1.2942.636,3.3694-.1447,4.4098,2.5364-1.9094.4075-3.7972-1.0694-4.4098-2.5364Z" fill="#839c5e"/>
<path d="M574,343c.1665.5991-.2377,1.4306,0,2-1.8098-.8894-3.2969-1.1843-4.0956-2.8736l4.0956.8736Z" fill="#839c5e"/>
<path d="M554.8609,302.7244c1.5528,1.9006,2.5206,4.4885,2.2735,7.5347-.1563,1.926-2.6171,3.7504-3.9848,5.7173-2.8584-2.1493-6.9597-3.0427-8.643-6.5899,9.7351-4.7742,3.6889-3.0738,10.3543-6.6621Z" fill="#839c5e"/>
<path d="M570,330c1.3634.6257,2.7823,2.2256,4,3,.9177,2.6898,4.6058,3.2329,6.7356,5.2025,6.3948,5.9135,23.6279,16.5796,32.4965,24.2109-7.1748.8357-13.2379-2.2447-19.2088-6.3772l-12.4838-8.64c-2.5965-1.797-5.0905-3.6157-7.5396-4.3962-6.557-5.9002-12.8966-12.7324-21.0262-16.273-2.4442-1.0645-3.7155-2.4692-5.9081-3.7139-.3634-1.2023-1.6199-3.1322-1.4167-4.3787.153-.9384,1.8182-2.7362,2.9411-3.2412,2.7536-.1868,4.6413,3.5324,7.0396,4.9723,5.2388,3.1451,9.2902,7.3033,14.3704,9.6346Z" fill="#839c5e"/>
<path d="M657.5419,149.8622c.4802-8.2633,6.9533-9.5839,12.8979-11.4028,1.5871,10.0979-8.4009,7.6038-12.8979,11.4028Z" fill="#839c5e"/>
<path d="M765.768,444.6558c-1.4775,1.3757-4.7823-1.2113-6.1278-2.056-1.5145-.9509-2.4413-5.3009-.912-6.7288,1.9743-1.8433,4.9919.6637,6.4462,1.6072,1.7036,1.1052,2.9555,4.9784.5936,7.1776Z" fill="#839c5e"/>
<path d="M736.1207,395.063c-1.1064-2.6294-.5151-5.5235-.6352-8.2887,5.4261-5.3493,3.0881,20.6135,3.6433,27.1597.2615,3.0832,1.8352,5.8117.4212,9.1828-.6038-1.4905-1.4465-3.2406-1.4672-5.1602l-.2359-21.9334c-.0096-.8904-1.3395-.9723-1.7262-.9603Z" fill="#839c5e"/>
<path d="M750.988,431.7693c-2.3795.4406-6.2885-1.1032-8.1293-2.6561-2.0825-1.7567-.6752-5.8072-.2781-7.5606,1.2028-.9573,12.0338,9.9916,8.4075,10.2167Z" fill="#839c5e"/>
<path d="M690.042,286.1102c-.0104,2.8743-.099,6.5071-1.757,9.3222-1.2007,2.0386-3.9815.1134-5.2955-.2724.3339-1.7773-.3911-4.6023,1.2679-6.2175,1.2434-1.2106,3.7295-2.3884,5.7846-2.8323Z" fill="#839c5e"/>
<path d="M323.9429,278.8465c3.752-.0396,5.7628,2.6564,8.9425,5.9888-4.7713,1.4441-9.1052-.9725-13.7243-2.4689,3.2186-.9137,4.1476-1.9487,4.7818-3.5198Z" fill="#839c5e"/>
<path d="M870.0228,367.9326l-8.0877-2.7696c-1.0262-.9012-1.8631-1.577-1.8916-2.6482-.0239-.9005.8435-1.753,1.8492-2.4525.9706-.675,2.1378.9174,2.9183,2.0273,1.3546,2.6048,3.0804,4.0548,5.2119,5.843Z" fill="#839c5e"/>
<path d="M837.6063,646.9108c.5748,5.1324-4.3723,4.5953-7.6037,6.1916.6363-3.4107,4.0771-6.5282,7.6037-6.1916Z" fill="#839c5e"/>
<path d="M1018.106,171.4287c-2.7663-.4905-4.4461-3.5267-5.0983-5.3129,2.9524-.2423,4.8374-.6949,6.0469.4256,1.0097.9353.5664,5.156-.9487,4.8873Z" fill="#839c5e"/>
<path d="M709.6931,355.1662c-2.4982-4.2445-2.677-9.4261-.092-14.281.7649,4.6066.5252,9.0569.092,14.281Z" fill="#839c5e"/>
<path d="M639.4304,116.8005c.2946,2.3854-3.1542,4.2783-4.4698,5.1916-.9134-2.5271.3854-4.3745,2.6552-6.8298.2728.7678.8739,1.4667,1.8145,1.6382Z" fill="#839c5e"/>
<path d="M710.4966,236.297c-2.0799-.3102-1.6289-1.7505-1.4461-2.7135.108-.5691.8489-1.1094,1.7805-1.6315.1778,1.6416.6327,2.6713-.3344,4.3451Z" fill="#839c5e"/>
<path d="M1028.3698,199.6835c-.5018,2.1367-2.1464.8219-2.5407-1.13.3758-2.5806,2.4196-2.0989,2.5407,1.13Z" fill="#839c5e"/>
<path d="M583,419v1c-.9371-1.4977-2.8528-3.3509-1.2909-5.5014,2.3013,1.1883,1.0115,3.145,1.2909,4.5014Z" fill="#839c5e"/>
<path d="M1027.5993,194.8249c-.6546.4911-.7642-1.5982-.5914-2.1944.1611-.5557,1.1326-1.639,1.6535-1.3779,1.3745.6889.7202,2.2352-1.0622,3.5723Z" fill="#839c5e"/>
<circle cx="545.1391" cy="314.1391" r=".9793" fill="#839c5e"/>
<circle cx="711.5" cy="230" r=".6349" fill="#839c5e"/>
<circle cx="712.5" cy="227.5" r=".5" fill="#839c5e"/>
<path d="M445.1138,263.6152c1.4359-1.6476,2.5976-3.3349,4.8245-4.5566-1.1442,1.8774-2.3281,3.4646-4.8245,4.5566Z" fill="#839c5e"/>
<circle cx="632" cy="219" r=".8603" fill="#839c5e"/>
<circle cx="731.5" cy="166.5" r=".5" fill="#839c5e"/>
<circle cx="292.5" cy="415.5" r=".5" fill="#839c5e"/>
<circle cx="328.5" cy="386.5" r=".5" fill="#839c5e"/>
<path d="M460.3412,515.0945c-.2859.6905-1.2514,1.1615-1.4488,1.9134-.4569.3959-1.0148,1.0371-1.5151,1.0479-.9255.0198-4.8479-5.2749-4.388-6.252.4298-.9132,1.7467-2.4058,2.8512-2.9337,5.9011-2.8205,2.6752-9.2726,1.5998-14.2275-.6369-2.9349-.7594-3.9626-2.4404-5.6426-1.4718-1.471-1.6189-3.8715-5.1628-3.9908-10.0157-.3371-10.3381-9.6266-20.4474-.7947-8.7436,7.6389-5.2641,11.3054-7.1956,12.9183l-6.0524,5.0539c-6.5278.6087-12.1253,6.0073-12.8383,13.0409-.9192,9.0672-11.8892,2.9472-12.8069,18.7793-1.1049,1.5763-4.5585,2.2516-3.6733,5.5816,1.5335,5.7692,10.8387,5.6914,8.8818,8.7106-2.743,4.232-.4023,5.9691.6466,9.389.9986,3.2559-2.1367,6.953,1.0679,10.2722,2.7128,2.8098,4.9817,4.6823,9.9625,4.7556,2.2744.0334,4.2728,3.0418,6.797,3.3666,2.2997.2959,4.3661-1.758,6.8298-1.1586,4.2461,1.033,10.6082.1473,11.7357-4.686.3117-1.336-2.4942-3.0524-1.4571-4.4513.79-1.0656.6234-3.3663,2.7584-3.576,2.3404-.2299,4.5984.2976,6.8511.2065.9031,3.3253-.4082,6.2973-.753,9.6433-.7647,7.4205.6507,14.3896.8468,22.1876-7.5492-1.9056-2.0727-6.875-16.9778-9.2399-2.4173-.3835-5.5406-2.9888-7.262-1.1922l-6.2694,6.5433c-2.9696,3.0993-8.698,1.7513-12.8538,3.4373-1.646.6678-2.0649,3.4027-3.7897,3.9394-5.5344,1.7223-9.085,6.947-6.9677,12.6089,1.6875,4.5126-7.2822,12.694-12.8388,10.6372-16.8118,14.7319,2.0878,11.6308-17.1707,21.9766-.7713-10.8868,7.7386-16.3274,3.2782-25.2996-.7071-1.4223,1.6403-3.183,1.6476-4.7512.0133-2.8659.6481-5.4192,3.723-6.5492,2.5453-.9354,6.5703-4.6814,4.7689-7.8276-7.7624-13.5574-10.8631-16.5122-11.1968-33.447.3553-1.6379,2.7189-2.1484,3.4909-4.3535-7.0841-5.0353-14.4235-8.9746-22.6305-11.603-1.3117-2.0857-1.6298-4.2215-3.242-6.2513-13.9028,5.0532-11.135,7.4973-24.6023,2.4316-3.9961-1.5031-8.8958-1.7231-12.8001-4.3877-5.7639-3.9337-12.452-2.2622-15.95,3.4075-3.377,5.4736-22.557,10.4959-24.0767,11.8092-3.5601,3.0764-5.4002,6.1099-10.0112,7.3518-2.5574.6888-6.2094,3.9179-8.2829,5.5866-3.6896,2.9692-1.5098,8.7708-.8285,13.317-4.735.5672-8.1536-3.1424-11.9835-5.4714l-8.0924-4.9211-23.0151-16.0089-34.4526-23.8557c3.3695-5.5484,1.5227-.2069,1.5196-6.35,2.1565.3202,1.3,2.2564,2.9179,3.6188,4.3435-3.0352,10.0636-3.9569,13.4298-7.9945.6492-8.1164,12.5052-3.2124,10.6662-14.9018,10.8096.6789,6.3975,3.6804,9.3912,4.478,2.3997.6393,2.8424-1.1515,4.4077-2.5759,1.8844-1.7149,4.9271,2.2104,7.0425,2.4345,2.6544-8.6196,3.9999,2.8529,7.3631-13.4982,2.811-.9987,6.4229.2816,9.0953-1.1771,4.1618-2.2716,3.7799-7.4774,1.0196-10.6214-2.0067-2.2856-2.942-4.6181-5.8309-6.2934,2.8214-2.851,1.8004-4.9619,1.2416-7.7665-.6126-3.0746-2.78-4.0201-6.4314-5.6618,1.9641-2.9832,5.1425-.9174,7.5086-1.932,3.0974-1.3282,5.842-2.098,9.0888-3.0153l53.8432-15.2127c9.5614-2.7014,18.5951-4.5067,28.5768-8.6937.2584,4.0359-.7634,6.4069.8568,10.1174-4.361-.425-7.4749.1206-8.2985,3.4795-1.9518,7.9602,6.7985,6.2082,8.4759,10.8517.5126,1.4191.7981,2.3538,2.0169,2.2987,4.2069-.1902.8301-5.7507,5.9891-6.0986,2.6091-.1759,3.4675,1.1015,4.4704,3.5745,1.5666,3.8627,6.6988,5.4466,10.6245,4.227,11.6535-3.6205,8.5912,7.3484,19.6613-.267,2.823-1.942,7.5334,1.01,10.6322-.3251,6.3519-2.7368,13.0711-2.2299,12.7773-7.0498-.1233-2.0224-1.0411-3.9104-3.257-4.2186,4.5012-2.8802,6.7884-5.0282,11.2674-4.9554,4.7488.0772,3.2974-6.1394,3.9811-8.4463.4336-1.4631,2.6899-.9399,3.7599-1.7625,7.8547-6.0388,11.1347-3.4203,13.0714-7.2739,1.2568-2.5007,2.3918-4.8982.9947-7.1664-1.0562,1.4261-.1197,2.5185-.6327,4.2075-1.6242-.1125-1.9885-1.4118-2.5897-1.9798-.7094-.6701-.5927-3.7103.6789-3.527,4.6011.6631,9.4286.4943,11.4994-3.8972,1.5998-3.3928-1.7815-7.6233-1.2762-10.5971-.4665-2.7475,14.8339-6.4137,16.3453-5.7353,1.2757.5726,1.1294,2.6023.3047,4.2178-9.8289,19.2533-7.8123,42.1823,5.4591,58.9725,4.8269,6.1067,9.2651,11.1037,15.7859,15.3529,5.5681,3.6284,10.36,7.485,17.0725,9.2821-2.5519,1.6344-2.6167,3.3186-3.6315,5.11-4.0099,7.0784-10.1779,12.5481-13.1518,19.7308ZM295.0237,518.0653c-.6505-2.5678-1.3523-7.0031.6882-8.0956,4.9273.8834,6.2079-2.0602,8.3938-5.0861,4.0881-5.6593,6.6061-10.5422,6.0808-18.0505-.3242-4.6338-2.0169-8.3823-7.6714-8.5436-1.5956-.9068-2.6421-3.8359-4.5884-4.344l-12.6727-.8823c-2.2103,4.8913-7.083,4.0075-11.0995,5.5074-4.4242,1.6521-3.6327,8.4762-4.1689,12.0786-.4123,2.7698-4.1143,1.7528-5.6466,2.9224-1.5395,1.1751-4.3217,5.0098-3.6734,6.9172,1.2812,3.7697.737,8.8291,3.3987,11.4811,3.2585,3.2468,7.4336,5.0863,10.9866,8.0989,1.2572,1.066,5.294,1.6393,6.8958,1.2138,10.4666-2.7807,7.3209-5.5524,13.077-3.2175ZM197,515c-5.9887,3.6703-.0695,12.5064-3.1896,13.1905-2.9632-.3185-5.7206-1.12-7.995,1.0519-2.1133,2.0181-1.7659,4.7812-1.4016,8.0012,1.4193,12.542,6.4859,8.464,15.7255,16.7865,1.4976.1688,2.3558-2.9644,2.1747-5.0721l8.9096.9781c-.8454,4.3681-.8464,9.6572,3.4375,11.0294,2.7873.8928,4.8305,1.6535,6.1643,5.6077,2.9533-2.2164,1.6363-4.5733,3.1067-6.5634,3.848-1.6995,5.5512-5.5223,3.0462-8.9567-.9662-1.3247-.0638-3.2614-3.5578-3.5592-2.4241-.2066-7.843-3.7846-8.5131.6891-.7946.2989-2.712.1889-3.926-.3073-.2119-2.0488-.1621-4.287-.6135-6.4584,3.7353-1.0958,7.5806-.5206,11.2147-1.897,3.117-1.1805,3.6952-5.1893,2.7241-8.06-2.0391-6.0279,3.129-5.3482-11.2181-11.4348,1.3602-4.7549-14.6317-6.9242-16.0886-5.0256Z" fill="#839c5e"/>
<path d="M226.9783,551.0532c.1509,5.6304-3.8625,8.7177-8.7968,8.6628-2.2472-.025-3.657-.0803-4.7994-1.6667-3.1438-4.3658,1.1181-7.1475,1.5253-9.8663,4.3984-1.6544,8.1489.7516,12.0709,2.8701Z" fill="#839c5e"/>
<path d="M455,489c.1601,11.5404,4.9494,8.6268.8405,19.8701-1.9295.0018-3.3341,1.7402-4.6485,1.9774-11.7192-7.228-11.4924-12.5055-26.0265-12.9025-1.4132-5.7615.9247-10.3549,5.8939-12.8567,1.7437-.8779,2.598-3.499,4.5915-3.3066,8.0912.7807,3.2558,3.836,13.2223,4.4128,2.4936.1443,3.8811,2.869,6.1268,2.8055Z" fill="#839c5e"/>
<path d="M213.0886,520.0256c-.2563,3.9208,4.2,2.912,8.0888,5.257-.3567-.2151,2.7718,8.2978,1.0929,11.4769-1.3343,2.5268-4.4265,2.096-7.0948,2.4299-4.1275.5166-6.3261-1.1076-9.4331-2.6452-1.789-.8854-4.6315,1.1042-6.3163-.4142-2.5244-2.2751-4.7173-16.8679-2.4262-21.13,5.4445.5278,11.1932,1.2014,16.0886,5.0256Z" fill="#839c5e"/>
<path d="M459,648c-.3982.0579-.9515-.137-1.4862.002-.848.2205-.5659,1.5302-.1506,1.9564.3497.3588,1.1015.5987,1.6369,1.0416.0802,1.3271.717,2.5705,2,3,.0601.3434.5447.9785.872,1.1181.1619,1.8536,1.6767,4.1768,3.1546,6.0745-5.1445,6.0973-10.1397,11.5421-14.5528,18.0096,2.9232,1.7039,4.5502,5.2053,7.3373,5.8667-.1134.4422.1787.9901-.0033,1.379-.4278.9143-10.2136,4.1045-13.479,4.8322,4.0883,2.2581,7.4526-.9334,11.5889-1.2457,5.7766-.4362,14.0206,1.3101,16.5046,6.437.6351,2.136.6539,7.4005.3418,9.6232-.7934,5.6507-9.325,5.6087-13.0699,7.748-4.6174,2.6378-10.49,5.3813-14.9405.2334-1.2485-1.4441-1.1894-4.8807-3.3896-6.511-3.2834-2.4328,2.0286-12.2109,3.6808-15.6128-6.6788,3.4299-2.3106,9.0877-10.8894,14.1634-4.0154,2.3758-4.4724,6.1982-4.1478,11.4458l-25.9996-17.4748c-1.3553-.9109-2.104-2.0781-1.6712-3.1378.637-1.5599,1.8257-2.5938,3.5461-1.8476l4.2703,1.8523c.9827-1.3586,2.2041-3.0708,4.119-3.4859,1.1317-.2453,2.3586.8931,3.7047,1.6087,2.2082-5.0239,7.468-6.2302,11.2248-8.7819,1.8986-1.2896-.4143-4.1037.0876-5.52,2.9236-8.2501,12.9324-6.4919,12.5905-12.6734-.2532-4.5778,2.2592-7.3151,4.4118-10.7139l5.4154-8.5506c2.7601-4.358,2.4341-8.4291.5257-12.9325,3.1083,3.701,5.4974,7.8449,6.7675,12.0958Z" fill="#839c5e"/>
<path d="M465,657c-.1696.9859-.1934,1.1824-.1629,1.0341s.1153-.6412.1629-1.0341Z" fill="#839c5e"/>
<path d="M465,657c-1.1595-.3-2.1101-1.4477-3.128-1.8819-.0879-.3294-.5355-1.0054-.872-1.1181-.0988-1.3071-.6861-2.5603-2-3v-3c1.9103,2.7243,5.2898,5.5208,6,9Z" fill="#839c5e"/>
<path d="M448.5749,730.3292c-2.3619-5.7766,6.9656-4.9867,11.5699-8.282,1.3105-.9379,3.6738-1.1056,3.8402-2.4912l.4823-4.0144c.3958-3.2943,6.6116-4.0281,9.2976-6.7813,2.1878-2.3605.0321-4.4416.5604-9.1154l52.3633,29.3315-72.4101,3.5569c-2.5165.1236-4.8247-.0547-5.7035-2.2042ZM452,728.5c0-.2761-.2239-.5-.5-.5s-.5.2239-.5.5.2239.5.5.5.5-.2239.5-.5Z" fill="#839c5e"/>
<path d="M438.3344,560.2262c-2.8178.3416-5.853,1.0664-8.3368,1.6534-3.8648.9134-6.3721-2.886-9.4672-3.3191-3.7934-.5308-7.3572.9809-9.576-3.7771-.8164-1.7506-2.6739-3.1935-2.8372-5.3239-.1458-1.9025,2.8302-4.3019,2.4363-6.3379-.4719-2.4387-3.8028-3.6303-2.5329-6.6529,3.7512-8.9285,16.1806-2.9297,23.7571.0216,1.6915.6589,4.0845-1.3929,5.9306.0662,1.2255.9686,1.9297,3.2475,3.1033,4.6362,3.0445,3.6025,3.3888,6.4652,3.2192,10.7732-.144,3.6592-.0219,7.5723-5.6963,8.2602Z" fill="#839c5e"/>
<path d="M344.9646,660.126c.0109-.1188-15.2672-11.003-8.8475-10.0397,3.9062.5862,8.4184,1.9018,11.4069-1.5516.9644-1.1144,1.1633-2.8801,2.3203-3.211,1.3034-.3728,3.3256-.6904,4.1693.6816-2.7953,5.5699-2.8324,11.6853-.6329,17.9569-4.0544-.4106-5.2536-3.8859-8.4161-3.8361Z" fill="#839c5e"/>
<path d="M183,468c.3541-.9529,2.0051-1.7293,2-3,4.1884-.8129,8.7251-1.493,13-1,.3818,1.0962,1.6596,1.4774,2.4843,1.7528,1.3003.4343,1.5451-1.5549,2.3044-1.8847,3.6058-1.5664,6.9646,1.7607,10.3541,2.2066,5.1044.6716,10.3045,2.7703,10.0592,8.9-.0561,1.4006-2.1485,4.0505-.5225,5.5389,2.933,2.6847,6.4974,5.3403,7.343,9.586.6099,3.0621-1.235,4.8004-3.8685,5.3522-3.6952.7742-6.1842-2.2725-9.3652-2.3943-2.6477-.1014-5.9757,2.2335-8.9176,3.1462-6.2592,1.9417-13.8846-2.2355-14.5393-9.0716-.0924-.965,1.0755-2.1895-.0673-2.5747-.3864-.1302-1.3105.0451-1.8297-.2001-2.9878-1.4104-1.4836-6.1508-2.7429-7.8112-3.2667-2.2912-6.9544-4.2246-5.692-8.546Z" fill="#839c5e"/>
<path d="M185,465c-1.3771.2673-1.9059,1.7279-2,3-.2117.2278-1.6822.5739-1.7401,1.3317-.2768,3.6211,2.577,5.9941,5.0546,8.2178-.025,4.7191,3.8558,7.7672,4.2499,12.5681-1.9012.4414-2.5-1.8026-3.0203-1.5594-1.263.5904-3.3971,3.6406-4.2005,3.5169-5.8119-.8953,2.0867-5.9285-7.087-13.3866-1.5786-1.2834-2.695-3.5739-5.1475-2.6886,3.5488,3.2697,7.5656,6.7259,7.7347,12.0118-4.4511.3469-9.4401-1.2689-12.5547,3.1404,6.9672-1.9222,10.6919-1.5598,15.5147,1.8511,3.44,2.4329,10.547,3.8184,9.2295,10.0979-.5107,2.4339-1.6868,5.5083-2.0669,8.1147-.4481,3.0722-5.4962,2.9987-7.1318,4.2077-4.7125,3.4833-7.8762,1.6177-12.5515.253-3.2986-.9628-7.7091.9979-11.4783-1.6225-.568-.3949-2.5317.8397-3.074.407-.7893-.63-1.6058-1.873-1.7642-3.483l-.8691-8.8344c2.4947-3.5321,6.5941-6.5502,10.1436-9.0064,1.4928-1.033,4.3828.7134,4.7437-2.0384-4.1224-.0828-7.897,2.0535-11.0795,3.2908-1.6717.65-5.5244-3.4004-4.6694-5.1395,1.7799-3.6199,1.9849-7.4009,3.4139-10.9161,1.2368-3.0425,7.3342-1.1121,9.8741-1.8106,2.1475-.5906,3.9948-2.0536,6.7178-.8631.565-2.2324-9.875-.8993-14.2087-.6836-8.0785.4022-2.1376,7.7501-6.7987,10.6392-1.2469.7729-3.284.4182-5.2935.8917l-9.5745,2.2562c-3.6713.8651-7.6003-.7474-10.8514,1.889-2.3919,1.9396-5.3334,1.3973-7.2138-.9511-8.3344-10.4086-4.1969-15.9634.5519-23.761,1.5779-2.5909,5.7508-.4122,7.6949-1.5514,1.3968-.8184,1.1533-3.143,2.1776-3.4543,7.2504-2.2039,10.9344,3.5113,16.4407,3.4-.5337-1.8266-14.4179-7.6411-16.62-3.993-1.9251,3.1891-4.0441,2.3445-6.8057,2.4548-4.4889.1794-6.0746,5.875-8.0328,8.8827-1.8398,2.8259-3.7646,4.6443-1.3565,8.617-.4019,1.9553-1.4012,2.1138-1.5834-.5075-11.8873-2.8041-9.4178,5.1522-14.127,5.4436-1.3938.0862-4.9385-2.4057-3.5114-3.9446l32.0766-34.5896,29.1084,7.9398c3.2938.8984,32.3646,7.4669,32.5592,8.6253.0786.4677-.8758,1.2614-.8739,1.7367ZM144.6531,465.2396c8.1851,9.6592,1.414,15.3492,3.844,16.7768,2.1504,1.2633,3.8259-17.1177-3.844-16.7768Z" fill="#839c5e"/>
<path d="M416.8084,400.1207c1.2944,1.1174,1.9591,1.275,2.4698,3.1759.5616,2.0904.3807,4.1507.6091,6.54.062.649,5.3036,8.5107-.3207,11.2857-4.5331,2.2367-6.8667-2.882-9.5409-.1379-2.5171,2.583-5.0449,2.3268-8.3223,1.3032-2.0123-.6284-4.7195.6435-6.1796-1.0998-3.7144-4.4345.2922-6.1049-4.8773-13.5562-1.9205-2.7681,1.1581-6.1168,3.0895-7.3182,5.8713-3.6522,10.1094,3.7463,12.0385-1.4027.542-1.4466,1.5908-2.4948,2.8332-2.5493,2.9933-.1314,5.7789,3.317,8.2008,3.7592Z" fill="#839c5e"/>
<path d="M336.2719,447.5445c-.3386,3.295-5.2541,3.9047-7.4413,3.9789-3.0707.1042-5.7937-1.8388-7.815-4.5817-2.4257-3.2917-3.6118-8.8045.5976-11.6639,2.98-2.0242,10.2686-.4448,11.61,2.6953,1.3215,3.0937,3.3682,6.4625,3.0488,9.5715Z" fill="#839c5e"/>
<circle cx="216" cy="496" r="1.1135" fill="#839c5e"/>
<path d="M122.1614,505.1319l-3.1678-5.1514c1.3976,1.7541,8.885,2.1192,8.7948,2.2159.485-.5198.9516-3.0349,1.6659-3.1058,4.4009-.4368,9.2628.3703,13.5343-2.2284,1.2835-.6596,3.9541,7.861,3.8002,8.4166-.9761,3.5247-7.6423,2.7013-5.0633,8.8693.4089.9779.8034,1.819-.1742,2.0507-.6056.1435-1.1014.1301-1.7965-.2955l-17.5935-10.7714Z" fill="#839c5e"/>
<path d="M680.8445,675.7677c2.4663.5751,2.3707,1.7599,1.7266,2.1771-.4304.2787-1.6706.3108-2.4902-.3806-.3896-.3287,1.5616-.8797.7636-1.7965Z" fill="#839c5e"/>
<path d="M684.0847,674.0512c.7213.0656,1.723.215,1.0728-.815,1.6131.2744,2.4274-1.1611,4.0349.0462-1.386,1.3049-3.1718,2.0205-4.9055,2.5203-.2416-.6313.2985-1.4573-.2022-1.7515Z" fill="#839c5e"/>
<path d="M682.5197,666c.1999,2.8716,3.2312,4.3126,2.6378,7.2362-.5447-.1193-.9139-.782-1.0728.815-1.3678-.1244-2.9121.2346-3.2402,1.7165-1.2416-.0251-2.4746.139-3.6818.4239-.8598-2.1874-2.9648-4.9041-1.2453-7.4563,1.4452-2.1451,4.551-2.1182,6.6023-2.7353Z" fill="#839c5e"/>
<path d="M528,701c.9859.1696,1.1824.1934,1.0341.1629s-.6412-.1153-1.0341-.1629Z" fill="#839c5e"/>
<path d="M165.7527,455.4401c-6.8288-.6326-13.0096-1.7521-19.5224-5.2322,6.7012-.131,13.2656,1.4607,19.5224,5.2322Z" fill="#839c5e"/>
<path d="M145.2658,450.5198c-1.2451.3514-2.9608-.6889-4.3528-.9913,1.5041-.7422,3.0433-1.7625,4.3528.9913Z" fill="#839c5e"/>
<rect x="136.0251" y="444.6083" width="1.3728" height="6.6679" transform="translate(-329.3434 494.1503) rotate(-78.6901)" fill="#839c5e"/>
<path d="M770.958,541.2231c-.0847,1.45-1.0062,2.3731-2.237,3.8921-1.0742,1.3257-1.6317-.7955-3.2947-.5705-.2737.9917-.693,1.8186-1.2302,2.0109-1.2715.4552-1.9546-.9996-2.2145-1.8574,1.4631-3.4652,5.9494-2.6091,8.9764-3.4751Z" fill="#839c5e"/>
<path d="M475.3727,617.084c.2227.4491.6176.4468.063.9239-.4686.4032-.8116.2767-1.3018.147-.6806-.1801-1.4428-.0248-2.1339-.1548.0537-.3124.043-.6856,0-1-.105-.7678.3499-.9327,1-1,1.0541-.1092,1.8746.0796,2.3727,1.084Z" fill="#839c5e"/>
<path d="M475.6378,606.7979c-.1771,1.061,1.4751,4.0387-.6454,4.1794-2.067.1372-.3213-3.2156-.9924-3.9773l1.6378-.2021Z" fill="#839c5e"/>
<path d="M604.9895,672.2231c-3.7699,1.6175-7.8282,1.9614-11.79,3.3491-.2406-1.238-.9423-2.3952-3.2389-2.7945l.0395,3.3325c-1.0161.639-1.7467.8339-3,.8898.0895-.7502.0762-2.191-.3951-2.8927-.3896-.58-2.1945-.8732-2.8163-.372-3.3774,2.7227-6.3696.2933-9.6837.413-12.9648.4684-20.0957-3.0715-31.0918-3.9833,3.5846,2.9686,8.2256.7642,11.5144,4.5254l-16.1121-4.0759c3.0921-3.9074,5.9717-1.8725,8.9636-1.1394,13.25,3.2467,28.2436,5.0673,40.7303,2.0375-6.4555-1.9298-12.2029,1.403-18.1093.4874v-2c6.1523-.1539,12.3831.4888,19.0026-1.3144,1.2338,1.0141,2.8628-.2582,1.1155-.8405.5439-.9198-.8588-.9558-1.3097-1.1758-1.3875-4.2491-8.5103-2.6135-8.6772-2.2556-.2919.6262.7173,1.7495.79,2.5968.0427.4969.0166.9288-.4551.9606-.5642.038-1.0223-.2308-1.3769-.1679.401-.635-.389-.6843-1.149-.7028l-12.8454-.3115c-.6542-1.04,1.1003-1.9424,1.9638-2.4606-2.6084-.5344-4.4712-.6108-7.3845.046.9113,1.0227,2.1553.9514,2.4144,2.3446-1.7301.6026-2.7154,1.1608-3.0885,2.2811-.6342-.0737-1.089-.2335-1-1,.0821-.7066,1.0004-2.0224.6747-2.8064-1.5835-2.2139-4.4157-.6025-7.0966-2.7373,3.6817-1.4303,7.4452-.0323,11.4513.3144,6.5928.5706,12.8693.1983,18.9262.0611-.3583-.8615-.6688-1.078-.9557-.8318v-1l16.8669-4.1296c4.0427-.9898,7.3091-3.1544,11.1331-2.8704-3.4275,3.5497-9.0141,2.8594-14.7267,5.2759-3.3825,3.159,20.7916-4.2356,19.9058-6.0869,8.4488,2.0749,2.6397,4.5008,13.0183,2.9755-5.2692,2.9984-10.8351,5.3244-17.3244,5.8006l9.1546-3.8163c-13.3451.584-9.3477,2.4629-21.1758,5.425,3.4654.0655,6.9511,1.6125,9.6667.8359l22.231-6.3577-10.7721,4.567c3.634,1.0417,6.2937-1.6084,9.3429.3536-6.6611,2.8664-13.9974,5.7714-20.7032,7.054-.949-1.1113-1.355-3.1784-2.1356-3.1587-.6129.0155-2.681-.0457-2.4729.8735.4458,1.9692,2.2956,1.8891,4.0796,2.5661-.6914.8924-1.7179,1.0188-2.0988,1.9156ZM568,665v1h10.5v-1h-10.5ZM601.8813,668.3477c-3.0375-.6453-5.3964.4203-8.0062,1.2403,3.0051.7952,5.3085-.1793,8.0062-1.2403Z" fill="#839c5e"/>
<path d="M614.1791,653.189c-1.8335-.4503-3.488.9367-5.1791.811,2.0732-2.1471,4.3709-3.6532,7.063-2.6017-1.0902.8992-1.8006,1.0906-1.8839,1.7907Z" fill="#839c5e"/>
<path d="M495.6982,644.21c1.5635,1.8278,3.6684,5.1601,6.3018,4.79.3454-.3599.7152-.695,1.0971-1.0157,1.2896,1.4516.4391,3.4448,1.8041,5.6184-.7999.7259-1.9579.1685-2.9616.4419-.2729-.2881-.8788-.5888-.9948-.9738-1.0026-3.3272-4.5215-4.6538-6.643-7.1968l-.0044-1.2215c-.002-.5464.9131-.5122,1.4007-.4426Z" fill="#839c5e"/>
<path d="M730.7264,626.8248c3.1181-1.1416,9.5609-22.5453,11.579-28.1678,4.7216,6.1482,2.6891,5.6477,7.8717,14.0555,2.117,3.4344,2.5983,7.526,5.8281,10.7568-1.0899,1.236-2.7502,1.3906-4.5933.9785-7.6186-1.7035-6.9629,9.7296-9.6734,11.8841-1.9554-1.2257.0666-2.7364-.4498-3.342-.5993-.7029-2.6357-1.627-1.8899-.4917.4093,4.6465.353,10.1127-1.0241,14.1752-1.848,1.386-6.0492,3.3504-8.5726,4.3052-5.2981-1.9429-9.334-10.7291-5.8388-15.9567,3.1468-4.7065,10.2675-4.9366,14.8088-2.8504-.6728-5.7454-7.2059-.4668-8.0456-5.3467Z" fill="#839c5e"/>
<circle cx="720.5" cy="641" r=".6349" fill="#839c5e"/>
<path d="M498.9116,372.3282c-3.8867,1.4632-7.333,2.801-11.6715,1.8917,4.047-1.9863,7.7354-2.1017,11.6715-1.8917Z" fill="#839c5e"/>
<path d="M440.4832,442.9828c-2.1745-1.766-2.2281-5.5498-.5308-8.6971,1.9336,2.7476,1.158,5.0265.5308,8.6971Z" fill="#839c5e"/>
<path d="M529.8182,489.2814c-3.655,1.4078-7.4943,3.2522-12.3413,2.0855,3.3535-2.2099,7.4063-1.8832,12.3413-2.0855Z" fill="#839c5e"/>
<path d="M500,351v2c-9.9478-.6782-19.5109.8854-30.3993,2.0204.2682-3.6023,28.1659-3.9844,30.3993-4.0204Z" fill="#839c5e"/>
<path d="M494.6449,592.5245c3.857-.8683,3.4971,9.2707,2.4999,10.9724-3.7158-.1792-3.0984-10.8376-2.4999-10.9724Z" fill="#839c5e"/>
<path d="M483.126,586.6877c-1.4853,2.9457.6012,6.173-.126,9.3123l-2,.3097v-10.3097c.6367.204,1.4952.2618,2.126.6877Z" fill="#839c5e"/>
<path d="M619.9108,506.8688c-.6793.4652-2.0039.619-2.5332.9316-.3969.2344-.6519-2.2222-.6156-2.681.1471-1.8641,2.7647-2.3325,3.1514-4.1141,2.1461.8624,5.2728-.2577,7.7377,1.6077,1.2076.9139.7279,2.5502.0924,3.8232-1.1766,2.3569-4.2403-2.0274-7.8327.4327Z" fill="#839c5e"/>
<path d="M541.7874,521.4173c-.9258-.1527-1.8544-.315-2.7874-.4173.0671-.6575-.1022-1.3476,0-2,.0898-.5731.2897-1.589,1.1339-1.1339.2449,1.0112,2.3824,1.9827,1.6536,3.5511Z" fill="#839c5e"/>
<path d="M483,469c-6.7301-3.9685-11.4496-8.8658-15.7432-14.5312-9.5978-12.6644-10.1309-28.7124-.7702-42.0667,16.6634-23.7725,55.0066-25.9152,77.5008-9.7227-1.9877,4.0501-1.0976,6.9711,1.3111,10.0784,2.1651,2.7932,2.2428,7.4801,5.1647,9.8876,2.3846,1.9648,6.4764.6785,9.1321,2.4647,4.3411,9.1756-1.1758,25.4751-7.8091,32.8439-10.7308,11.9207-26.6717,16.9984-42.7508,16.1807-18.7174-.9519-8.9753-.9287-26.0354-5.1346ZM504.4991,436.1124c14.7776-.8191,8.2025-5.8502,17.1756-13.3263,1.5116-1.2594,2.3073-3.0603,4.2983-3.9159,2.0445-.8786,2.7873-2.8905,3.2586-4.3514.5572-1.727-1.7928-3.3406-1.6443-4.7118.3598-3.322-1.1568-4.7058-2.0429-7.0551-1.2836-3.403-2.6692-3.675-5.4646-4.9008-6.1729-2.7067-10.8829-2.8931-16.6738.5413-4.2013,2.4916-9.5805,5.2923-9.6164,11.1508-.0094,1.5378,2.7123,3.382.9353,5.6107-1.6267-.5059-.2786-2.1344-1.3552-2.7421-2.0192,4.3825-8.1602,4.771-8.465,9.1647-.2556,3.6847,3.5256,7.9226,5.0087,11.4526,1.0998,2.6176,5.0513,1.3254,6.6959,2.381,2.8307,1.8169,4.6821.8799,7.8897.7021Z" fill="#839c5e"/>
<path d="M527,657v-1c3.2233,1.7802,6.41,1.7392,9.1535,3.6574-3.9766,1.3435-6.4182-1.3704-9.1535-2.6574Z" fill="#839c5e"/>
<path d="M541,655v-1c3.2232,2.1427,6.5922,2.2879,9.2804,4.6688-4.2717,1.2459-6.3563-2.4505-9.2804-3.6688Z" fill="#839c5e"/>
<path d="M551.0974,661.5663c-2.9465,1.1725-5.1106.1027-7.2223-1.2647,2.9339-.7535,5.0185.4153,7.2223,1.2647Z" fill="#839c5e"/>
<path d="M520,654c-.3677.2975-.7025.6323-1,1-1.4545.4546-2.0357-.46-3.0079-1.1286.729-.2777,1.4336-.6136,2.1155-.9921.5201.4411,1.5354.3689,1.8924,1.1207Z" fill="#839c5e"/>
<path d="M522,659l.0341-2.0971c.75.151,3.0078-.5009,2.9989,1.1246-.0086,1.5754-2.2859.8634-3.033.9725Z" fill="#839c5e"/>
<path d="M560.1171,660.4056c-3.0584,1.4057-6.3097.3794-9.2459-1.1447,3.424-.1308,5.8762.8482,9.2459,1.1447Z" fill="#839c5e"/>
<circle cx="538" cy="660.5" r=".6349" fill="#839c5e"/>
<circle cx="541" cy="661.5" r=".6349" fill="#839c5e"/>
<path d="M655.0709,630.147c-.332.278-.5684.686-.9186.9475-.3914.2922-.7893.5773-1.1522.9055-.3172.0879-.6726-.0417-1,0-.9371.0709-.7687.6616,0,1-.8694,1.9999-2.9492,2.9714-4.105,4.7559-1.0384.0139-2.3923.7032-3.4003.8944-1.2017.2279-2.4644-1.1395-2.2664-2.4298,3.3485-1.4184,6.6533-4.8588,7.7717-8.2205.9425-.2197,2.026-.9897,1.9094-2.1614,2.5125-.25,2.4353-3.1935,2.1699-5.8473,2.2736-.089,4.2444,2.6291,3.5246,4.578-.7763,2.1019-2.9164,3.4101-2.533,5.5777Z" fill="#839c5e"/>
<path d="M651.9094,625.8386c-1.1538.1404-1.3875,1.2806-1.9094,2.1614-1.9538,3.2972-5.5261,5.1996-7.7717,8.2205-1.3413.5682-2.9363.4672-5.116.8945-.1104-1.2342.8976-1.3974,1.0451-2.0258.3952-.2083.5762-.6969.9134-.9528,4.523-3.4327,8.6762-7.594,10.7558-13.4954,2.1094,1.3507,2.2934,3.599,2.0827,5.1975Z" fill="#839c5e"/>
<circle cx="629.5" cy="661.5" r=".5" fill="#839c5e"/>
<path d="M542.8032,523.0052c1.6483,1.3005,1.1207,3.3323.1942,4.9764-1.161-1.6763-3.1653-3.1601-3.0844-5.9134,1.5937-.1289,2.1326.8433,2.8902.937Z" fill="#839c5e"/>
<path d="M520.3081,657.9111c1.0453.5653.6065,1.0981-.5455,1.2278-2.3226-.1606-2.0273-1.3644.5455-1.2278Z" fill="#839c5e"/>
<path d="M601.1732,525.7979c-1.1716.062-2.3587.1263-3.1732-.7979-.0993-1.2797,1.3994-1.2121,2.4725-.9621.563.1312,1.1137,1.0946.7007,1.76Z" fill="#839c5e"/>
<path d="M622.0295,523.1004c.7129-.4941,1.2134-1.4793,1.9081-1.7063,1.6085-.5255,6.0461,2.1093,6.1097,2.2791.2523.6728.1597,1.781-.2208,2.6803-.3185.7527-7.6781.0933-7.797-3.2531Z" fill="#839c5e"/>
</svg>
