<svg xmlns="http://www.w3.org/2000/svg" viewBox="0 0 1088 960">
<rect x="908.9205" y="273.0517" width="99.4223" height="2.1372" transform="translate(549.273 1183.2639) rotate(-81.7173)" fill="#546444"/>
<path d="M553.1575,65c.037-3.1772,3.9899-3.5668,4.7084-7.6804-3.5063.3982-6.7536,4.3368-6.8659,7.6804-1.692-.0411-2.7016.4918-3.4926,1.5431-4.9662,6.6001-11.6979,11.4342-15.5141,18.5258,6.0165-1.2664,6.1212-7.8393,11.1139-7.6525l-21.9378,23.1373c1.5528-6.7157,9.968-8.0988,10.4446-15.4394l-23.7833,24.2278c.7743-4.2158,4.3465-6.1283,6.7542-8.859l8.9148-10.1107c9.9974-11.3386,20.4962-22.0053,30.475-33.5051,1.8966-2.1857-1.3513-6.6978-.5198-8.5991,3.416-4.9726,8.5606-8.2704,13.2736-12.2964,6.5717,7.8821,12.7835,14.6713,20.1186,21.2977,1.7246,1.558,4.7392,1.7463,7.1791,1.4873,11.6471-1.2361,23.2233-1.0215,34.5035-3.2593,11.9382-7.362,5.192-12.6771,21.5797-11.5577l45.2672,65.6315c1.1615,1.684,3.8792,1.3268,5.7194,1.0099l126.4501-6.2403-132.0313,8.7684-45.9025-66.6119c-2.3446-2.3375-8.0895-.6375-10.0582.8002l-10.0366,10.3181-38.5231,3.1212c-2.3252.1884-4.0802-.8133-5.5619-2.284l-17.2387-17.11-9.2272,8.0449c-.3301-4.2536,3.96-4.0741,4.4304-7.5874-3.5901,1.4672-5.4562,4.278-7.561,6.4614,6.0721,2.1611.1515-.5273,3.6322,9.7834-.9084,3.1116-3.6456,5.9083-6.3105,6.9547ZM566.3088,40.5164c1.3841-1.5302-.7909-2.368-1.3667-.5776-1.107,2.2235-.6186,2.2058,1.3667.5776Z" fill="#546444"/>
<path d="M553.1575,65c-.8367,1.2372-1.3828,2.8333-3.159,2.866.6044-1.1699.9609-1.8904,1.0015-2.866.4524.011.978-.1099,2.1575,0Z" fill="#546444"/>
<rect x="541.5524" y="71.5641" width="9.989" height="1.6545" transform="translate(132.0046 435.859) rotate(-48.7891)" fill="#546444"/>
<rect x="511.9691" y="105.0951" width="7.3975" height="1.7079" transform="translate(79.9988 401.4673) rotate(-45.7598)" fill="#546444"/>
<circle cx="520" cy="101.5" r=".6349" fill="#546444"/>
<path d="M337.0167,859.0347c-1.5897,4.9907-5.0776,4.1132-7.5905,6.3054-6.5052,5.675-12.4963,12.7001-20.4424,8.4643-3.6669-1.9548-8.8956-3.2302-13.0786-2.358-4.5145.9413-6.3743-1.501-9.3784-3.8652-1.9305-1.5193-4.502-1.1023-4.4001-4.6591.1538-5.3693,1.7339-10.364.8361-16.5604-7.0389,5.2539-15.8656,4.5452-20.8181-1.7102l-7.6656-.3974c-.4823-4.466-4.8657-6.3652-6.984-9.7356-1.0143-3.7608-.8383-9.9485.5763-13.883,1.3457-3.7429,7.4738-6.8531,6.7252-11.8118-.8064-5.3414-6.5194-9.5958-7.9271-14.969.1507-2.6013,4.2681-5.9407,6.6046-6.893,5.927-2.4155,6.5045-12.7433,5.3028-16.3719-.8347-2.5203,3.41-4.3068,4.7017-5.8101,7.119-8.2854,12.4561.635,15.9798-3.3112,2.3442-2.6254,3.2158-6.1123,4.8209-9.1283,3.5359-6.6443,6.5959,1.6013,12.1444-4.8067,2.1776-2.5149,4.7602-3.3778,7.8656-3.0999,2.789.2495,3.8075,2.9701,6.471,4.9339l6.5667,4.8417c5.1245-.8358,12.0396.2716,17.5737-1.8215,3.973-1.5027,13.2296-5.0651,15.9375.3188,1.9706,3.918.3239,8.867,4.9039,12.6188,2.8335,2.3212.0104,9.2968.9476,12.5227,1.1318,3.8959,2.0864,6.5174.3017,10.3252-.9658,2.0606.3333,5.6723,2.4296,6.372,4.3296,1.445,4.6721,4.8702,6.7649,8.0375,2.2018,3.3322,2.7576,5.743,2.1859,9.6102-.7782.808,9.7874,12.0064,9.6185,10.3127.0923.9257.2205,2.3856-.5686,2.3423l-10.0388-10.7326c-.9161-.1709-1.8012,2.3713-.9721,3.3076,2.8762,3.2481,2.2211,7.741,3.8376,11.1234,2.3087,4.8307,2.1509,8.3958-1.4135,12.3957-3.1288,3.5111-6.0545,6.962-10.1888,9.7965-1.2963.8887-1.6616,3.155-2.8235,3.5628-4.4341,1.5563-9.2371-3.5213-12.438-.9621-1.8267,1.4605-5.6659,3.4914-6.3679,5.6954Z" fill="#546444"/>
<circle cx="380" cy="826.5" r=".6349" fill="#546444"/>
<path d="M437.9311,146.8425c-.3826.7405-1.3476.8774-1.9311,1.1575.8437-.7915,1.211-1.2301,1.9311-1.1575Z" fill="#546444"/>
<path d="M375,407c-.4095-.0618-.9476-.038-1.3638-.2815-.6608-.3865-.4074-1.3862-.5338-1.9272.8273.1062,1.9727.4606,1.8976,2.2086Z" fill="#546444"/>
<path d="M784.8839,730.8602c1.184-2.8997,3.4088-4.104,5.2795-5.5217-1.3171,2.0393-2.0566,5.2566-5.2795,5.5217Z" fill="#546444"/>
<path d="M417.1614,459.0099c-1.6459,1.4562-2.8202,4.3956-6.2984,4.6676l-12.842-19.5531c-1.0867-1.6546-1.6155-2.7674-1.9029-4.3271.9567.7011,1.8683.8861,2.7921,2.3367l12.1753,19.1175c2.4786-.0003,3.5105-2.0732,6.0759-2.2416Z" fill="#546444"/>
<path d="M475.065,431.1122c-3.9521,2.7323-7.6136,6.0602-12.2141,7.641-14.2609,4.9003-28.2044,9.6843-40.71,18.1681-1.737,1.1784-3.2576,1.9756-4.9795,2.0886,17.2059-15.2224,45.4509-19.8433,54.8166-27.1341.8821-.6867,2.3209-.75,3.0869-.7635Z" fill="#546444"/>
<path d="M638.8347,218.9711c-.2497-4.5747,1.394-9.1772,2.4724-14.1215l13.241-60.712c-9.7016,4.1231-7.2717-2.347-17.5208-6.0166-4.2957,4.6549-8.3732,3.3811-12.6455.4916-4.7248-.5611-11.7068,1.3691-16.4764,1.9684-1.4283,8.2616-6.96,4.5988-15.3182,6.9829l-5.4252-5.95c-5.2287,3.2263-11.1831,4.9446-16.219,1.7428-3.0197,11.4306-12.2933,18.3328-23.5629,16.5469-.3071,4.0893-4.1721,6.22-5.0297,9.3693-1.0734,3.9417,3.6912,8.6149,2.9256,12.3932-2.021,9.9735,2.8947,14.5499-8.1294,20.1375-12.1396,6.153-3.3221,15.0134-15.1333,13.2454-2.7849,6.5895-8.4396,10.5897-16.1579,9.2093l-9.8782,3.3721c-.3812,5.0268-3.9021,6.2156-7.3295,8.1517-3.9812,2.249-17.2657,10.2811-20.8909,4.8175-7.5314-11.3505-9.0251,1.6897-19.6657-8.1444-3.2096,1.5087-4.1667,5.7907-6.3712,8.1883-2.5764,2.8021-5.3422,4.4205-5.1837,9.1322.0325.9668-.7043,2.5086-1.2168,3.129-1.9314,2.3379-15.8633-1.8624-15.778,5.5694.0396,3.4458,2.5163,7.0074-1.8736,9.9895,4.3962,10.6824,2.2451,10.4159,8.8598,12.6983,2.1705.7489,3.1825-1.5032,5.0721-2.1308,7.1941-2.3896,14.5882-2.8029,22.0048-1.4772,1.3189.7361,1.384,3.1379,2.6248,4.2028l13.6191.2492,126.8911-85.8195c18.6621,23.8299,30.3999,51.4678,36.6312,82.1251l1.1999-33.3104c-.316-1.1127.3371-1.7938,1.6764-1.9223l-.5879,18.0191c-.6182,18.9462.7494,37.5312,4.1461,56.8919,2.3077-21.6233-4.6649-47.8917-.8053-69.8913,2.3206,10.7007.3216,20.4725,1.0466,30.9537l3.1829,46.0144,5.8239-12.1976c1.6708-3.4993,15.3381-2.7695,16.1336-3.9833.815-1.2434.9299-2.7439.4514-4.3652-1.7441-5.9107.7593-12.4262-1.8642-18.067-12.0104.0816-6.8282-12.3134-12.0688-15.9714-3.5463-2.4753-4.0753-4.8615-3.3295-8.9903,2.494-13.8063,15.4601-5.2389,12.6072-12.5282-1.5594-3.9842,3.0805-5.9631,3.874-8.9443l5.7174-21.4812c.5373,7.643-2.9766,13.9004-3.1564,20.8435-.0207.7975,1.7238.8011,1.9158.3027.155-.4022.6395-.7704.8392-1.7411l22.5214-109.4393,58.3296-3.1796c3.6847-.2009,6.8241.502,9.9762-.6077-.1852.9916-1.3711,2.3802-2.9495,2.2472-6.9488-.5855-12.9546.4715-20.237,1.3159,2.5946,17.5164.8453,6.4842,6.6911,20.4468,2.5554,6.1036,1.3033,14.8702-3.7668,19.603-1.2164,1.1355-4.774-.7159-5.4251,1.6404l-1.2085,4.3738c-1.0833,3.9206-4.2147,7.3339-7.5953,7.4294-4.0011.1131-7.1444-1.4989-8.8494-5.2686-2.5104-5.5504-6.796.7938-12.7471-5.8842-3.9969-4.4851-.5983-17.8201-.4035-20.3782s-3.2911-5.7045-.5548-8.5385c2.5218-2.6119,6.0747-4.7028,10.0378-4.5124,6.9752-.7356,13.2241-3.2612,17.1167-9.1759l-37.2089,2.0521-22.0856,109.3645c3.538,3.4534,7.683.606,11.0242,1.3779,9.4082,2.1735,7.9138,20.515,8.406,21.8102,3.998,10.5218.9432,6.4033-6.081,16.5978-1.8087,2.625-4.4898,2.6592-7.5875,1.8191-2.5106-.6809-6.8819,1.8458-6.9196,4.8-.1057,8.2798,1.3902,15.405,1.8476,24.0266,8.5639-6.9055,12.9418,1.6419,16.021,2.0322,1.0348.1311,2.2494-1.0349,3.4545-1.1855,3.0043-.3754,4.0106,2.8864,6.1129,4.0895,2.1797,1.2474,4.0644,1.8638,5.0286,3.4865,1.2806,2.1554-.5932,4.5298-.1775,6.6858.7092,3.6772,3.2374,6.7973-.4759,9.7974-.9269.7489-1.3677,2.8584-.5029,3.6844,1.9324,1.8459,5.3336-1.5857,11.316,2.6883,2.343,1.6739.9801,5.2686,2.1087,7.3907,4.7696,8.9683,2.6293,5.7473-2.4121,19.2251,2.0558,2.3437,3.3248,3.6901,5.7967,5.5724,2.8835-7.1974,14.7044-5.7153,22.3926-5.9093,3.5541-.0897,7.118-3.4774,11.2739-2.692,3.9582.7481,13.3436,11.0623,8.0878,18.8308,3.4992-.1047,6.0619-.6902,8.3235,1.1292,6.5715,5.2864,6.2227,22.9291,2.7295,29.8417-.8911,1.7634-4.8044.1379-5.8407,1.1015-1.7555,1.6323-1.3503,6.5166,1.1972,7.168,3.4571-2.9279,7.7638-4.574,11.5766-6.0808,13.8744-5.483,16.0082,13.9334,28.6741,11.1788,1.9835-.4314,3.3895-2.769,4.9202-4.8109,6.903-9.2084,19.5981,1.2103,27.9005,5.1475,1.6321-.4478,2.6011-2.8994,3.209-4.1696,3.9778-8.3126,9.7103,1.5613,13.363-5.5984,1.8206-3.5686,5.4259-4.3925,9.0219-2.6715,8.3774,4.0094,8.9704-3.9814,13.8143-3.4262,1.5402.1765,3.7557.6295,4.5126,2.5813.9744,2.5125,3.0057,4.7381,3.6285,7.244.9522,3.8313,8.2676,11.0787,10.5794,15.3431,9.8232,18.1205,17.0524,8.2664,11.8339,22.2369,4.4573,1.2618,5.2941,4.2038,6.9004,8.5304l25.5709-179.1625,11.0148-79.2625c-3.4794-.7912-6.7044-1.9895-10.2454-1.9589-1.7061.0148-3.964,1.9019-5.3835.2507l-7.3381-8.5362c-1.493-1.7368-.1798-3.805-.4158-5.7096-1.0445-8.429-1.5398-16.7228-.1171-25.0548,1.2843-1.8245,4.8299-2.4737,5.2796-4.8841.5116-5.5165.9595-11.7141,5.2008-14.8849,5.197-3.8853,9.3985-4.5632,15.1383-2.4216,1.598.5962,4.9193-2.0239,7.1941-.3986l4.1222-31.7429c-3.6106-1.4654-6.6054.4947-9.8419.4255-5.5843-.1193-10.6208.0781-16.0621.8596-5.7579.8269-11.8067-.5122-17.6648.6424,3.0203,13.6878,10.73,9.0998-.1146,28.9595.003,3.9843,3.6792,8.1928,3.0362,12.0887-2.0553,3.3398-2.9375,5.0713-.8946,9.1167,1.7519,3.4694-1.3262,9.7306-4.2634,11.9363-3.2368,2.4306-7.566.8482-10.8967,2.2791-5.5551,2.3866-2.3072,6.822-14.3482,13.7227-2.2933,1.3143-6.9607-4.7938-10.0126-3.4734-.9657.4178-1.3732,1.5985-2.3357,2.4751-3.0024,2.7345-7.284.4004-8.7521-3.1706-.829-2.0165-2.1188-4.2172-4.6707-3.8591-3.8688.5429-4.9384-2.4197-7.6325-4.2153l-8.7964-5.8625c-2.7065-1.8038.8993-5.9391.992-8.4967.175-4.8277,2.4718-7.0514,4.6547-10.7957,1.1327-1.9428-.4637-6.058,1.9088-8.1026-.7886-1.7936-3.1906-2.7661-4.6969-3.6117-3.0297-1.7009-4.0246-5.1008-1.7546-7.7971,7.3492-8.7294,4.7469-12.2023,15.3804-17.1926-2.6307-1.0543-4.928.1457-5.807-1.8718l15.5639-.9923c1.1873-.0757,1.838-.6386,1.8415-1.2295.0032-.5456-.0483-1.3829-.4235-1.3699-.5759.0199-1.5547-.4454-2.2801-.3948l-26.6285,1.8584-35.9118,2.0929-13.4866.6095c-4.0912.1849-7.8034.7692-12.0004.9511l-39.2403,1.7004c-.6349-.9993-.9016-2.0469.1061-1.6111l39.2006-1.9358,14.8049-1.124c5.275-.4005,10.0593-.5879,15.1139-.8546l22.0382-1.1628c4.1881-.221,7.9737-.1794,12.1323-.8187,8.6855-1.3352,18.0346.6698,26.3737-1.8593,2.0477-4.1384,5.9081-6.2409,10.6-7.533,4.1605-1.1458,7.2052-4.508,12.2059-1.921,1.3795.7137,3.8748-.3377,5.036-1.457,1.8294-.4701,2.0212-1.8685.0812-1.416l-78.7493,4.9122c-1.8702-.3356-2.3098-2.5419.0146-1.8823l73.8652-4.5296,52.8014-3.1569,27.8018-1.5716-9.5123,66.9094c-.2243,1.5777-1.7579,3.513-2.3249,2.6451l9.6679-67.5104-24.2842,1.0391-9.7309,1.1806-36.009,1.6517c-2.7777,3.384,6.4822.4678,9.8858,9.7662,3.1613,2.5212,9.1718-.6465,12.9619-.516,5.4544.1879,10.0164-.7374,15.1515-.8539l18.5362-.4207c1.4739,2.9813-.3617,4.9141-.6986,7.426l-4.561,34.0013c11.5871,14.0597.7228,11.9797,9.9699,19.9836l-6.5377,48.4221c-.2167,1.6052-.9179,2.5689-2.0286,3.2482.0559-5.9052,1.6281-11.5075,2.3672-17.9106.135-1.1694-2.4694-1.1623-3.0366-.5439-2.3228,2.5322-1.6954,7.145-9.6777,8.9384l-36.5283,256.5208c9.5886,2.7444,4.6902,9.3692,8.5877,12.4104l23.6927-154.5975-21.8178,157.7732-7.0461,49.1872-5.7946,41.2844-38.6319,254.3261-352.7341,53.4393-274.2892,40.4686-60.1213,8.4454c.3476-8.192,3.221-15.8938,2.4766-23.6108-4.8164-3.9018-3.6306-17.1809,1.1837-19.9192.9763-5.3773,2.3032-12.4391,1.7995-17.8926-.3312-3.586,2.8095-4.0036,3.119-6.3266l10.7281-80.5366c-7.3645-10.7728,2.986-29.8541,2.476-27.8521,13.7519-53.9821-6.6385-40.1206,8.1811-60.4745,3.8585-8.6249,2.8976-22.5686,5.0896-33.2889l-97.0399-14.102,4.7692-36.4945,9.0551-1.4546c2.8637-.46,4.9332-1.2298,7.3858-1.4233l3.251,1.5537c-3.0421.4437-5.2157-.3883-8.1542.4059,2.3093,4.7623,6.4764-1.7333,7.2182,2.5706-5.226.576-10.4201.1099-16.731-.3159-1.6045,5.3671-1.8583,10.7455-2.6032,16.2808,4.5533,1.2063,8.345.3012,12.44,1.0162,5.3055.9263,10.6898,2.2193,16.0336,1.5342,3.8674-.4959,6.1707,2.8393,8.8491,3.2991,14.0292,2.4082,27.5125,2.6452,41.8726,3.8991l192.0801-113.393c-9.1217,24.4401-10.0554,29.5091-5.1564,53.9237.936,4.6648,3.3052,8.9156,5.8133,12.7833-2.5423-6.4355-2.8647-9.4204-4.6086-12.8857-.738-8.6148-3.9721-17.5442-.8989-26.6694,1.0261,13.1763.2854,26.001,7.3399,37.1176,1.394,2.1967-.153,4.9684.6354,6.4532,8.9723,16.8983,25.4427,27.2959,43.6692,33.1684-6.0153,14.8374-17.588,43.416-18.2006,58.0369-.9166,21.8763.7541,43.3398,5.1858,64.6622,1.2967,6.239,2.5635,12.4914,5.6196,17.8798l4.6257,8.156c6.1736,10.8852,11.1145,22.1967,19.6105,31.5423,1.0609,1.167,2.3516,2.2568,2.3506,3.5809-3.4856.5493-14.4862-16.0788-16.8866-18.8307,4.5065,8.6141,10.2214,16.2665,17.7916,22.3668.4499-1.6856-.906-2.4013-.905-3.5362,1.6725-.2636,2.6249,1.1504,4.2261,2.0448,10.4685,5.848,20.5899,12.143,32.0641,15.8001,26.9395,8.5861,50.1996,6.7031,76.0415-3.9534,19.7733-8.154,37.9724-18.0969,54.4655-31.7347,7.8723-6.5095,14.9011-12.8712,21.1682-21.0988,21.93-28.7899,27.5222-68.9204,32.1202-104.4591,1.6907,10.5216-1.4365,20.4996-2.9609,30.9894-2.3873,16.4282-6.6585,31.8844-12.6722,47.2151-7.36,18.7629-18.9614,33.8004-34.3197,46.6012-16.6202,13.8525-34.1463,24.3172-54.2271,32.7315-28.0798,11.7661-50.8575,14.9959-80.4068,5.1901-10.9428-3.6313-19.8537-9.9216-31.2355-14.4846,3.5239,5.1424,9.7242,7.1646,15.2549,9.9043l41.4183,20.5166c10.364,5.1338,21.5848,7.7386,33.5927,9.7329-6.4572-5.4103-14.6487-4.7268-21.8128-7.7992-8.7114-3.736-18.1478-4.8036-26.199-12.0052,19.2415,3.3146,37.1695,3.0612,55.3144-3.0667,20.6074-6.9596,39.0492-17.0964,57.2329-27.9628-.5613,2.0076-2.5818,3.1509-4.6466,4.4922-15.983,10.3823-33.0195,18.086-50.9352,24.8105-14.4726,5.4322-28.8562,5.886-45.1637,5.7791,10.5581,5.8081,21.3396,7.9874,32.7122,11.3241l125.4233-19.4275,13.3115-1.9c3.3336-.4758,6.4583-1.5048,9.2518-.1518l-143.8897,22.7982c3.277,5.1984,6.5374-1.1289,9.9685,2.9377-3.3928-1.191-7.9023,2.5634-11.4739,1.877-11.9534-2.2973-23.9448-5.1195-34.9511-10.6076l-47.3341-23.6024c-5.6035-2.7941-10.0718-6.4883-15.5349-10.3067-3.7847,5.7148-6.3271,11.1215-9.4192,16.6166-.9708,1.7252-.0491,3.6239,1.5468,4.4757,9.4934,5.0671,18.7366,9.1647,28.6402,13.5301l62.8082,27.6853,246.3478-37.3253c4.168-.6315,8.1881-.8911,13.3007-2.2979-3.9021-2.992-8.3881.4008-13.2981,1.2952-7.8558-9.9384-13.8091-2.8656-12.569-13.2795l-205.349,31.1159c-1.4833.2248-1.311-.0977-1.4587-.5282-.33-.9615.5328-.8777,1.8517-1.0784l203.5071-30.9758c1.3099-.1994,1.8237-.679,2.0949-.9983,3.2097-3.7801-8.0078-.5366-14.6154.3669l-47.2936,6.4667c-.0183-.4245.0541-.9385.3116-1.1872.3832-.3701.967-.4293,1.7416-.5409l23.8042-3.4293c-1.5417-5.5958-4.7807,1.3072-13.159-3.9051-1.4209-.884-3.7062-.347-4.9289-1.3717-1.7833-1.4945-3.2297-18.3557-.7155-22.2433l-4.2677-2.0586c-.0947-3.9227-3.3449-4.5682-5.9645-6.7645-5.0623-4.2442-3.1556-16.4695,3.3489-18.5352,5.0451-1.6023,5.7293-1.8981,8.2122-6.2266,2.3264-4.0556,11.2402-1.3159,12.796,2.892,3.5881,1.4352,6.6357-1.1024,9.7024.3517,4.9078,2.3272,8.5987,7.3081,10.3614,12.1516,1.796,4.9352-.9241,8.4329-4.7016,11.1539,1.5535,7.4752,9.8109-2.9504,17.8715,1.352,18.2231,9.7268,5.9321,8.4898,12.3098,16.9005-.4918-5.149-.6058-9.1208.4518-13.8919.9273-4.1837-1.1346-9.6124,1.2244-13.5692,1.9327-3.2418,4.7854-5.5325,5.2774-9.8263.5048-4.4056,4.152-8.4046,8.7186-8.7558,3.4774-.2674,4.135-1.8973,6.3953-4.0724,2.5846-2.4873,8.7176-2.6038,11.916-1.2883,2.966,1.2198,4.7926,3.8216,8.2227,3.0065l2.7359-4.6559c3.3787.3612,4.7724-3.2002,6.491-4.4865,3.838-.2277,8.9527,1.6696,12.1902,3.6183,11.7628,7.0802,5.3113-2.9191,19.3593,1.9169l27.0102-158.5076c-4.5267-.5943-8.6783-1.3524-13.4403-.8729.4073,5.4984-1.5078,8.4554-6.0097,9.9027-4.0055,1.2877-7.3069,4.4876-11.165,6.2016-1.1444,6.4556.359,12.1572.8048,18.4792-12.0329,1.503-6.823,4.1009-11.3579,6.2457-1.5745.7447-3.6573-.5991-5.3014-.0957-3.4863,1.0676-5.6925.3179-8.4095-2.8286-1.4294,5.9867-5.671,5.8196-9.1878,7.5182-4.1528,2.0058-7.6449,3.5982-12.2259,5.0394-3.1227.9824-5.8339,4.8206-9.5338,5.3666-6.1575,11.439.9295,6.4497-10.9769,13.0281,9.4364,19.9371,5.9508,47.69-8.2323,64.6286,3.542,1.1429,7.1691-.7743,9.4061,1.3623,6.2998,6.0167,8.9021,6.8751,9.0915,16.421.0835,4.2069-4.6801,10.0552-9.1299,9.8556-4.036-.1811-9.0672-.3092-12.5708-1.1855-5.9996-3.8961-6.5342-11.7468-6.0419-18.3996-14.8569,10.4664-33.3614,13.3963-49.5674,6.057l-6.7713,3.3019c-.7822,4.6733-4.1249,7.827-6.0995,11.7844-1.9425,3.8931-2.8619,6.584-8.232,5.9823-2.6654-.2987-6.5643,2.1234-9.3884.3167-2.7085-1.7328-2.7997-5.8798-3.5438-9.4106-4.1897,1.6378-7.449.9188-10.2331-2.49-1.6495-2.0197-5.6643-4.0131-5.1597-7.3361.6388-4.2068,3.3619-8.3821,5.708-11.7205,2.9398-4.1833,7.8594-3.967,11.4011-.7999.5566.4977,1.5569.8516,2.0002.9354,2.4374.4612,1.0353-5.326,3.0813-7.3397,1.2317-1.2124,3.1461-.8557,5.4636-1.6971-7.8153-9.7737-13.209-20.5462-20.3484-32.0606-4.9248,31.507-13.8682,66.7056-35.8281,89.6964-8.4346,8.8305-17.2301,17.8421-27.7498,22.9949l11.6656-10.0983c36.6125-31.6935,42.7376-59.4166,50.7916-107.9712,5.0646,7.1568,20.4062,39.4341,27.7609,38.8025-9.7871-12.67-18.0829-25.2623-24.7882-39.2789-4.96-10.3683.2262-19.5732-1.9669-30.5572-2.38,3.5444.3984,6.6289-1.126,10.2852-.8149-1.7308-2.5737-10.0571-.6969-11.635.6109-.5136,3.0292-.7264,3.2462.2838,2.5323,11.7901-3.4116,21.4011,3.2154,33.6891,5.9945,11.1152,12.5736,21.8503,20.0323,31.9282,2.7643,3.735,5.3877,4.2483,9.6329,3.7312,5.2701-.642,5.1704,5.257,6.3787,8.76,1.4457,4.1912,7.4661,6.4398,11.7705,7.3183,22.4498,4.582,37.1928-10.1828,39.8003-10.3973-5.9353,8.656-21.8317,12.5347-33.0046,12.9891-6.5325.2656-11.6109-3.2187-18.4254-4.7687,5.4693,6.9539,15.2541,7.3459,23.4651,6.8116,28.3292-1.8434,49.5131-26.7991,48.156-55.9413-.3671-7.8837.7637-17.0112-6.0779-23.4077,3.2337,12.0319,5.5903,22.5925,2.9681,34.4968-1.9355,8.7868-4.381,18.6753-11.8016,24.2986,6.8848-10.6597,11.4496-21.9246,11.0811-35.3692-.2037-7.4304-.407-15.0779-4.8019-21.2383-2.1863,1.0492-3.9479,2.0738-5.6992,1.8029-1.3809-.2136-2.6588-2.1134-3.2049-3.7918-2.2928-7.0469-9.4482-2.4671-12.6401-5.2169-2.5213-2.172.5216-6.4958-.9785-9.4576-4.5888,1.5308-5.9064-2.9329-8.3527-4.6389-4.341-3.0273-11.3346-.5095-15.5322-4.8009-2.6103-2.6686-3.7059-8.5702-2.4813-12.2168,3.9187-11.6694-2.1257-3.7146-.6303-15.7389-20.9879-6.7589-27.4964-.3354-45.0355,10.0793-3.0709-.1234-7.762-3.7054-8.0513-6.6943,1.5879.4301,2.879,1.4668,4.4302,2.8304,8.9531-6.0284,18.1622-11.7069,28.7919-14.7042,8.8802-2.504,18.7742,4.076,23.4067,2.3381-.1277-3.8739-4.8112-4.7813-5.5096-7.2024-2.4198-8.3883,1.011-16.9313,5.3894-24.0164,1.5806-2.5577-1.0047-6.5024-3.5339-7.0751-2.4458-.5538-4.3109-1.5305-4.7661-3.0278-2.0222-6.6513,6.4031-7.6511,2.5358-15.5374-.7627-1.5554.3242-4.0831-1.6229-5.195-1.4609-.8343-15.1331-3.3207-17.3996-3.134-2.5311.2085-6.5235,2.9564-8.8689.8952-3.2652-2.8696-5.5882-5.3076-10.1959-6.0205-3.6666-.5673-5.9735-4.5109-10.1826-4.8612-.4317,2.2756-.8862,5.0682-1.1097,7.8152-.4656,5.7228,14.6682,2.889,13.6682,10.7095-.8475,6.6274,1.1644,12.0341,5.0987,17.1003-.5095,2.8601-.9575,6.7023-.7923,9.3766.1626,2.6321-4.4108,3.0374-4.8902,4.8047-1.4983,5.5239-5.2151,8.6428-10.4062,9.6059-.8332,1.5741-1.0545,4.0473-2.0445,4.7027-1.1184.7404-4.709.1105-5.6046,1.0803-3.135,18.1473,3.1827,15.1405,3.6061,19.5151-8.6355-2.3389-5.0818-12.6186-6.2578-18.2916-14.5549,1.6517-6.041,12.9588-16.5855,25.143l-10.0078,1.4164c-1.8898,3.9741-.2575,8.4497-1.0802,12.6435-1.0787,5.4987-.8615,10.3196-1.0866,16.2237-4.2251-7.0095,1.1692-17.5392-.8942-27.5564-2.5446,3.8644-1.2088,8.0178-2.056,12.3091-3.3741,17.0895,3.1957,13.1221.5458,23.0997-6.2788-21.6926-1.7376-13.3471-2.1216-32.3239-2.271-.1558-4.4777,3.3203-6.1584,2.3619-4.7644-2.7169-10.1583-.4477-14.5527-1.9689-3.8183-1.3218-5.9952-4.6047-10.9529-2.8674-4.0057,1.4037-8.4954-1.1477-9.1257-5.3883-.3583-2.4108-1.1854-4.2711-2.2955-5.8552-.7295-1.041-1.2136-2.267-2.1732-3.1443-2.3209-12.7188,1.4995-14.7544,1.6943-16.3882.1202-1.0079-1.3966-1.0165-1.6103-1.7115-.3184-1.0354-1.4426-1.3115-2.0604-1.8268-1.9379-2.7454-4.524-5.2021-6.3977-8.447-2.6549-4.5979,5.5597-6.7209,2.9178-12.2122-19.0852-2.4565-39.5037-.4611-55.6067,9.6172-.3907.2445-.7585.5241-1.1207.8084-1.1444-.1458-1.8935.8021-2.8452,1.1076-1.2041.3866-2.0036,1.7625-3.0604,2.2126-3.3503,1.3126-5.9884,3.5424-7.9515,7.1737-9.8142,18.1546-26.5501,31.2182-46.9082,35.6765-1.3626.2984-2.3528.7041-2.2112,1.8322-2.5731-1.5187-5.6497-.9345-7.3254,1.2676-1.9687,2.5873-1.4676,4.5263-.6352,7.1287-.5124-.0503-.9795-.7736-1.8787-.7346-12.7633,31.8065-20.0311,48.2137-13.6961,83.5602.2306,1.2869-.2732,2.704,1.1527,3.0598,1.0212.2548,2.2835-.5329,2.5087-1.72l.8871.0157c1.5019,1.0163,3.3736.7973,5.1129.7218.4243-.0184.8319-.2334,1.2546-.2782.7178.2465,1.5642.3408,1.703.8915.2245.8909.2677,2.0186-.4931,2.3987-.6378-1.547-.7922-2.5201-2.0746-1.2244.907,2.8593.7624,5.4919,1.9336,7.9493.8672,1.8194,3.917,1.225,5.5122.7213.1571-2.4573.0936-5.0099-.8724-6.6866.3198-.2905.6667-.5486,1.0367-.7717-.0181,1.136.5729,6.6585,1.4251,6.9863.3643.1402,1.0658.1163,1.5295-.358.2746-.2808.2571-.5441.4549-1.1664l.727-.0131c-.1935.4578.0512.6757.8215.5958.7439-.0771,1.5271-.0081,3.042-.0446.4352-.0105,1.0043.0867,1.4675-.0168.3505-.0783,1.0107-.9678.5325-1.9832h1c.5252.5689,1.2357.9013,2,1h2c.2854.5613.7698,1.333,1,2h-1c-2.3441,0-4.798-.2789-6.8635.9738-.3013.1805-.928.0209-1.2939.0262-1.6545.0242-3.2685.3511-4.8399.8583-.314.1013-.8409.199-1.1653.1496-1.6744-.2551-3.4652-.2858-4.8583.7874-.3284.0156-.6679-.0814-.9948-.0499l-5.1706.4987c-.0728-.2987-.6022-.558-.5976-.9618.0071-.6206.7208-1.0344,1.0175-1.424.7989.2765,1.0554,1.3049,2.8705.9449-.3372-3.6871-.6501-7.3229-2.9364-10.4715-1.9058,1.5897-.4792,3.3437-1.312,4.6709-.3251-1.5148-2.6093-2.1396-3.8557-2.0026-.109-.3631-.0809-.9872-.3261-1.2264-2.8969-2.8272-1.5008,11.1196,1.166,10.0585.038.3994.1504.8079.1601,1.2126-4.159,1.7365,4.3664,12.7465-.3968,14.6626-3.93-19.3772-7.4909-38.1261-7.1064-57.6598.2772-14.0803,4.3103-26.7809,8.9014-39.6653,3.0286-8.4994,8.0416-15.8941,8.929-25.2006-7.3585,12.7543-11.6659,25.8947-15.9728,39.2022-5.3112,16.4105-4.8321,32.7031-2.5484,49.4973,3.0932,22.7479,5.9502,50.8837,21.2836,68.111,12.3636,13.8907,29.6123,21.3546,47.3778,25.4194,15.8653,3.6301,30.6926,1.495,44.9423-6.0286,19.2634-10.1708,43.6719-19.8519,58.211-37.807,9.1645-11.3177,14.9745-24.8195,19.0932-38.7145,2.3847-8.045,2.4998-16.2166,5.4298-24.0052,4.5814-12.1783,7.4758-24.08,7.0866-37.6909,3.9855,4.0253,1.1073,8.7888.8727,12.8874-.4848,8.4664-2.7189,15.9023-5.8122,23.5457-3.2146,7.9429-3.4294,16.1722-5.6221,24.5505-4.1836,15.9852-11.6531,31.4172-22.7615,43.7427-13.1218,14.5593-39.57,26.9039-57.2462,35.6309-12.2988,6.0721-25.2587,9.4286-38.9636,6.7173-19.4824-3.8544-38.5333-10.8404-52.4144-25.5343-10.5628-11.1813-15.7562-26.3144-18.5548-41.2565-3.1136-16.6233-5.4522-32.5366-6.2317-49.5076-1.0859-23.6397,10.5438-48.4454,19.6721-69.9861,25.4287-1.1317,47.882-15.064,59.6587-37.224,12.0785-22.7279,11.7257-49.6872-2.3735-71.1766-12.0695-.7684-7.6624-2.6512-15.3331-6.7566-.2192-.4203-.5688-.7415-.9475-1.0131-4.3521-3.1224-5.5382-9.786-9.0447-13.8678-27.5049-17.0202-63.1284-11.1475-85.4164,11.7333-10.4308,10.7083-15.3209,23.1733-18.8452,38.2-.753-8.6632,2.4796-17.0964,6.5509-24.249,20.0667-35.2541,62.1602-46.7146,98.2386-28.243-9.1924-10.4444-24.0572-10.6202-36.717-10.8809-28.8283-.5937-44.0257,16.3286-47.1441,16.4143.894-1.1207.8988-2.2142,2.5819-3.4252,23.3522-16.802,53.4986-20.1853,79.6999-7.0443,1.5198-2.3956,2.4405-4.8494,2.8536-7.6867-5.6068.1887-12.3607,1.0562-15.1624-4.3133-.8826-1.6916-1.0513-15.537-6.781-16.0232-7.8595,2.7629-15.1965,7.0397-23.6208,8.8094-7.7065,1.6189-14.4265,4.7797-20.8743,9.1439-7.4203,5.0226-29.1363,16.7842-25.0551,24.9268,2.6516-2.2833,3.8727-4.3191,6.3583-4.3874-2.837,3.5566-5.53,7.6195-10.375,10.5591.5434-4.7394.9661-12.5212,5.142-16.0234,10.638-8.9216,22.4229-17.4846,35.3794-22.9599,10.8974-4.6051,22.8226-5.4687,32.6801-12.9495,2.6547-22.8185,6.9295-10.497,18.2867-22.4201,3.8728-4.0658,14.5664-2.9921,18.7266.7939,3.4825,3.1692,5.1976,6.3659,10.535,5.477,2.3314-.3883,4.8135.0794,6.3167,1.6185,1.6534,1.6928,2.7966,4.0126,2.5245,6.984-.2959,3.2311.8157,5.6285,1.4267,8.5845l1.397,6.7585c3.5247-1.3681,16.0033,1.5168,16.8143,2.5065,2.4684,3.0124-.6645,11.9514,1.7059,12.3212,4.9782.7768,4.7137,4.7324,7.5285,6.9043l44.7909,34.5614c6.3103-7.6168,18.2347-2.6139,27.4149-4.7238,4.9701-1.1423,10.5411-5.2264,16.2582-3.0991,2.9281,1.0895,5.7369,6.8797,9.6024,5.8489,3.4316-.915,7.2829-3.4514,11.3672-1.683.4578-11.0656,11.7642-14.5399,4.0696-19.3226-6.9615-4.327-.7792-12.26-1.1008-21.5915-.4647-13.4844-1.402-26.5302-3.1951-39.7315-.3002-2.21-4.3308-4.2524-1.0291-6.585.4602,2.2852,1.429,4.5397,3.3751,3.606.0182-4.6785-.7682-9.1399.5633-13.3265,2.65,2.8369-.442,7.2761,1.2837,10.5551,1.5101,2.8695-1.6544,4.1821-1.6614,5.8204-.0565,13.205,1.9404,26.1409,2.6449,39.4028.0571,1.0753,3.1945.2099,3.9707-.113.8982-.3736,9.9812-28.3631,13.0024-34.6495,2.0113-4.1851,8.2314-1.934,11.5641-3.2685,3.7263-1.4921,5.1062-6.5232,9.7043-7.5742-2.4119-2.3009-4.122-2.3506-5.3144-3.8844-1.2737-1.6383.8075-5.1375-.5976-6.0659l-5.0983-3.3684c-1.1386-.7522-.1879-3.5256-1.1894-4.8327-1.4913-1.9464-10.3835.6816-11.2037-8.0242-.9644-10.2364-7.3303-8.1323-7.0771-19.0747-4.1778,1.2196-8.1536,1.0047-12.023-1.1189-1.7558,6.1439,4.2934,30.9052.9949,33.196-1.4034-.9205-1.8665-16.6529-2.1448-20.063l-1.4138-17.3219c-.0902-1.1057-.4951-1.9809-1.0386-2.2514-.5214-.2595-1.4006-.108-1.4145.2913-.2837,8.1771,2.4449,27.3287,2.0721,35.4127-.1933,4.1922,3.2428,8.5372-.5952,12.7824l-1.2993-15.787c-1.013-12.309-.9426-21.0463-2.5568-32.8637-4.2893.4659-8.4616-1.6641-12.6501-1.7097-3.5342-.0385-7.049,2.4335-10.8614,1.4047l1.9568,31.1382c.2009,3.1972,1.5637,4.6496,2.243,7.4109l3.2995,13.4112c.5982,2.4315-3.2797,4.4813-3.1145,6.3065.3769,4.1636,1.0804,7.7816.9955,11.91-.1418,6.892,3.3786,14.6253-.435,14.9712-.1974-4.3105.1566-8.1313-2.0901-11.9844-2.2057,3.3845-.7142,6.7561-.8873,9.9418-4.1752.4135-.7892-8.4127-2.5712-10.2722-2.1675-2.2617-5.0291.6022-6.4633,2.2237-1.9822,2.2409-5.5847,1.0263-7.8595,2.3532-5.0686,2.9567-10.1232,3.4771-15.8523,1.756-1.8044,1.7275-1.8756,4.4838-3.6642,5.7442-1.7608,1.2408-4.3273-.4067-6.6266.419-.9196,3.7631-1.1011,7.32-2.9187,10.9691,3.3765,3.4514,6.9878,5.7283,11.5573,8.9528l-.6592-19.2408c5.0672.0226,9.9488-2.1098,14.6636-1.5001,2.5449.3291,4.5236,2.7493,7.7162.8828.5572-.3258,1.9565.0889,2.6367.2296,1.02.2109,1.1408,4.5026,3.0267,5.7828,1.1489.7798,2.9159.0394,5.0507.4189l2.1581-4.6901c1.7688.5537-.5477,9.7481,2.9985,9.8807,1.5673-2.7844-1.3544-5.4194.8075-8.4886,1.3742,2.115,2.5913,7.2598.8309,8.6697l-6.0306,4.8299c-6.4967,5.2032-11.5435,12.0274-17.6225,17.8014l-28.4729-21.672c-2.5209-1.9188-6.9725.8466-9.1422,2.4955-2.1443,1.6296-8.6575,2.615-9.1442-.6528-.8231-5.5263-5.3677-7.7437-7.1517-11.7586-2.3791-5.3543-2.123-11.4864-6.4329-15.9962.8074.0218,1.6869.8812,2.5883.4989,2.4106-1.0224-1.6881-2.7422,10.6547-5.7299l-65.9613-50.1444c-6.3567-4.8324-11.3247-9.6669-18.5973-14.2535-1.5977,3.5717-4.1615,8.4025-2.4079,12.3707l68.5811,52.3003c2.3488,1.7912,3.5548,3.2967,5.1424,4.958-1.2935-.0349-2.3037-.4409-3.687-1.4989l-71.3876-54.6018c-2.2781-1.7425-6.7696-1.9875-9.0625-.2071-1.8335,1.4238-1.2739,5.0709-3.1341,6.755-3.0292,2.7425-7.3458,1.9191-10.7382,3.3879-1.6683.7223-1.7801,4.3204-4.0691,4.5728-2.029.2237-3.9132-.8937-6.087.4695,1.9906,4.016,13.2014,10.5215,16.9244,12.365,1.1783.5834.219,3.4615-.5161,4.0961-1.0336.8923-2.4992,1.608-4.0775,1.6359.4063-1.8506,3.1125-1.6796,3.1961-4.4757-2.8224.2427-4.3437,1.6945-6.3339,1.3457.6092-.8176,1.4274-1.6602,1.4279-2.5232.0012-2.1707-11.5572-10.7335-12.506-10.5399l-5.223,1.0658c-3.8882.7934-2.8233-11.3422-3.867-13.3227-5.0605,4.2128-11.8455,6.2751-17.0542,1.6119-1.313-2.6263-.2066-7.9355-3.0205-10.5814-2.2236-2.0908-5.9582,1.5088-8.6536-1.3526-1.0863-1.1532-2.8199-3.2308-2.0494-5.2057,1.4588-3.7391-1.0704-6.2324-1.404-9.306-.366-3.3717,2.5082-6.9575,1.1437-10.409-3.5489-.2173-7.2717,1.5781-10.8212,2.2933-5.0961,1.0269-6.7138-3.3527-8.6761-6.7901-1.3521-2.3684-3.0352-3.5798-3.1232-6.3873-.0695-2.2179,3.407-3.4432,3.8767-5.4034-.1229-3.6757-4.1445-6.3597-5.7808-9.5825-1.9838,3.4589-2.465,6.4762-5.6391,7.8779-3.2357,1.4289-5.682-.7231-8.0038-3.7798-4.3349,6.528-7.8256,13.1466-11.2839,20.1941,1.2767,9.3097.7136,17.9044.3235,27.0463l38.1788,58.2189c1.2817,1.9545,3.2497,4.4742,6.0404,2.6584,12.6827-8.2522,26.0624-14.6084,40.5807-19.0929,5.2721-1.6285,9.9061-3.7262,15.5341-6.6904-.4265,1.0326-1.0544,2.8903-3.0745,2.9678-21.7384,10.5771-35.0658,11.0539-56.3391,27.321l-42.8093-65.1433.6959-28.1029,10.1462-20.8676c-15.4878,7.1454-15.2262,44.4553-13.1557,48.7597l5.7118,11.8744c-2.6255-3.0341-6.7891-7.3115-7.3666-12.0389-1.2303-10.0709-1.5165-20.7338.6449-30.5302,1.1638-5.2751,6.2764-8.6526,6.7596-14.3905-5.4179.579-10.7825,1.6693-15.6244,3.6828-.3742,4.1769.3628,7.9911-1.2435,11.7962l-7.2337,2.9589-.0625,18.7635c-.0278,8.3547.4436,16.5599,5.2346,23.7101l36.9325,55.1186c-2.9759,13.1243-6.0964,24.8967-9.9176,37.5247l-153.0883,89.5828c-2.7954,2.924-2.2719,7.3578-5.5219,9.6158-9.1697,6.3709-25.5094,3.349-37.647,3.533-.4173-2.6695,1.8891-6.2746-.1368-7.7488-14.5617-10.5964-1.9956-14.8405-11.122-17.9431l-4.1028,31.7952-13.688.7548c3.2531-3.7612,11.0873-.1986,12.3815-3.1732-.8225,1.8904,6.0241-38.3737,3.885-39.5792-3.3721,13.3767-3.7482,26.0889-5.641,38.8831-4.7716-1.194-12.7557,3.3204-11.657-1.0127,2.9283.2458,5.7079-.2424,10.0313-.5121l12.3412-98.6607.8587-7.1277,8.4155-65.1539-75.923-37.7703c.59-3.4445,1.0763-6.183,2.1828-9.5271l29.7611-3.1878c6.6118-.7082,12.94-1.9542,19.5917-2.1386,3.2828-.091,6.8396-2.0786,9.8536.1674,1.873,1.3957,4.0812.8883,6.6453.4612,13.3529-2.224,26.5332-1.4817,39.9524-4.8442-2.9927-.9732-42.8405,4.0082-42.0415,4.2455-.5544-.1647-1.8044-.0044-1.5273-1.2248,3.9144-1.6801,8.1901-1.6482,12.7369-2.1725l52.4075-6.0429c-4.3652-6.1093-9.3265-14.2907-5.6155-21.4887,1.463-2.8376,1.5483-8.1154,4.5179-9.9031l10.1076-2.8729,10.2869-3.4775c7.4604-2.522,7.0844,10.2509,12.1621,11.002-.0335-8.7175,4.3416-17.476-4.6203-19.4057-.1731-4.098-.7229-9.4925.0816-13.7584,1.7487-9.2731-2.333-8.7452.9327-17.8422-3.1248-3.6779-8.2899-4.8226-11.0975-8.5944-1.8115-2.4336,3.8203-13.1895,3.1662-12.6939,1.2114-.9179,3.0417-.5454,4.4194.1545l13.9543,7.0886c1.4835.7536,3.4438.1684,4.0706-.9609.3845-.6929.8783-2.3405.0725-3.0629-3.9037-3.4999-2.2428-13.1184-1.9967-17.1037.4261-6.8973,1.842-12.785,8.1139-17.2145.7484-4.7898.9839-9.5587,2.4922-14.19,1.4216-1.7957,3.599-2.2325,5.4275-3.9177l21.2304-82.6925,85.0706-10.3468c1.4841-3.1252.1433-6.2168-1.5408-8.6785-.0009-3.5579-1.2734-7.9263.3864-11.1011,2.2267-4.2592,23.5163-5.9769,29.6805,1.6664,1.9785,2.4533,2.1674,4.2312,6.2192,4.8345,3.0957.4609,2.5886,5.8661,3.7598,8.7287l54.3392-6.755,7.486-6.8557c.3957-.3624,1.0306,1.2156.8645,1.4758-1.6021,1.3378-3.4485,2.6114-4.0877,5.1149,3.2653-.389,4.2714-2.9258,5.8646-4.7422.9075-1.0346,2.4724-2.2898,4.1514-2.7774-1.4046,3.6947-4.5548,5.0831-6.7728,8.8058l-62.8684,7.9066c-1.5615,3.4318-.3761,6.6729-1.0331,9.7772-.7651,3.6149-5.0706,4.1926-7.4058,6.0419-4.7861,3.79-14.4076,4.844-17.4298-.8771l-73.8337,79.0638c-.8916,3.9814,1.1281,8.4085,2.5272,12.1448l2.1341-4.2572c.49-.9776,4.355-.566,4.7476-1.6445,1.2988-4.1998,2.6984-8.0118,6.2821-10.6755,3.6697-2.7276,6.312-2.6082,10.8801-1.8926,4.7763.7483,10.3015-9.4027,13.6368-9.7156-1.333,4.1836-8.469,7.2761-5.4351,9.198,2.2565,1.4294,13.7329-14.4615,20.6615-18.9834-3.5813,7.7948-12.039,12.4666-16.746,19.4245-.124,1.5492,4.3368,3.5903,5.7808,1.8802,2.9548-3.4993,10.9743-11.3098,14.3087-10.7904,4.735.7376,6.309,6.7915,11.1534,2.9574,1.4724-1.1654,3.9635-1.1984,5.1524-2.7098,2.1416-2.7224,4.1319-4.9083,8.2838-4.5821l3.7632-8.52c2.3085-5.2265-1.2894-16.0502,2.7641-17.2728l4.944-1.4912c1.5458-.4662-.1419-6.1881,4.7551-7.5583,12.1656-3.404,7.1953-14.1693,13.7796-21.2891-7.07-1.3058-11.7447,2.4445-16.1346,6.865-5.0649,5.1002-9.5591,10.2163-14.4839,15.4467l-23.7249,25.1966c-1.3496,1.4334-2.4326,1.6841-3.5957,2.4432.7474-1.6267,1.2223-2.5722,2.827-4.2452l42.9704-44.7987c5.1973-5.4185,18.1055-.7082,16.5798-6.0804-4.3349.3042-9.6039-1.2447-13.4298.9511l-7.1797,3.8877c4.5176-8.7428,15.6517-4.466,21.6153-7.3523,2.2435-5.1314,7.6245-9.8883,13.6923-8.4525,2.9038.6871,5.3469,5.42,8.9243,4.7308,4.6688-.8995,8.7376-2.5361,13.9131-1.4533,2.1339.4465,4.5552-1.4987,7.1114-.256,2.9246,1.4217,8.7299,3.8881,11.5597.6955l31.9996-36.1031c2.1089-6.7716-4.2242-15.5913-.6693-19.8065,1.1363-1.3474,3.5946-3.2733,6.0198-3.2515,7.8582.0707,4.3424-4.7478,18.9059-6.2987,3.7714-.4016,7.3102.5404,11.0375-.1794,5.7432-1.1092,5.0539,6.9278,8.0598,8.2517,5.3474,2.3552,10.4739-5.4915,20.6671,5.1428,6.1262,1.9128,16.9826-1.5055,24.2484,1.2876,4.0569-1.4739,6.7408-4.9713,9.9115-7.757,4.1005-3.6026,6.7533,4.8026,12.0077.9405,1.9473-1.4313,5.0425-.092,6.1395,1.9979,1.8585,3.5408,4.9385,4.9335,7.6783,7.2674,3.0894,2.6317,1.4296,8.3932,3.6407,11.4748,8.959,12.4859-3.3011,12.6119,3.0485,23.0083,1.9456,3.1857,1.4908,9.7652-1.0651,12.3996-10.0902,4.7174-4.4442-1.2354-14.9568,7.4971l-17.563,82.4102c-1.7044,7.9973-2.5177,15.1982-3.4444,23.3778-3.8452-2.1543-1.4279-4.8506-1.0164-7.4527,2.5396-16.0586,6.0157-31.2142,9.4364-47.1117l11.0549-51.3771c-2.0098-.3342-2.9714,1.1691-3.3574,2.9388l-16.0041,73.3777c-.2967,1.3603-.5072,2.1585-1.6916,2.1821ZM624.6268,84.6875c-3.9161-.0098-8.1487-1.0866-12.209,1.2442,3.8754,2.94,8.2293.6451,12.209-1.2442ZM546.2027,118.1156c1.4123-1.6754,1.7199-3.9378,3.8545-5.2381,1.1125-.6776,1.2551-2.3168,1.1896-3.3048-.1429-2.1542-2.309-.2151-4.572-7.7243l-30.1667,34.1544c11.4637,4.8324,21.6034,11.4507,33.6468,14.0689,6.354,1.3813,11.7859-6.9108,12.7885-11.815,1.3718-4.193-26.4718-8.5973-16.7408-20.1412ZM935.9879,114.0453c3.8662.4202,7.2813-.626,10.9786-.9482,7.3737-.6426,14.4889,1.0361,21.9878-2.2895-7.6664-2.8268-38.1937,1.6484-44.9244.7835-1.1517-.148-1.7433,1.3234-1.7079,1.8651.1673,2.5645,6.9518-.1407,13.666.589ZM338.3278,222.901l19.7862-21.8804,14.5904-15.4268,17.1004-17.9293,23.2633-25.4369-8.0798-1.2248c-.9323-3.9585-3.3785-4.8032-7.0703-4.3358l-63.0944,7.9872c-4.6216.5851-9.065-.1256-13.4761,1.787l-18.0215,73.6792c4.3585-2.0054,6.3692-2.0079,9.5151.1003,4.1241,2.7638,7.0688,5.493,6.3581,11.5414,4.3385-1.5397,6.8111.9147,9.7727,1.3043,4.6332.6096,7.9851,1.914,12.1273,5.342l-2.7715-15.5074ZM522.5134,141.1763c-3.3586-2.161-7.368-4.1826-11.5342-2.8577,3.7792,2.443,6.9646,4.7443,11.5342,2.8577ZM544.084,150.748c-4.9374-2.7943-10.0959-4.6385-16.6872-7.5125,3.5816,5.023,12.5377,6.4924,16.5376,8.9377,1.6823,1.0285,3.287,4.4398,5.1579,6.1147,10.5999,1.5373,20.7855-7.896,20.0862-19.0441-.0736-1.1737-3.6605-1.9751-4.0015-1.1003-1.8246,4.681-3.932,9.0401-7.9753,11.9589-3.9076,2.8208-8.5764,2.8876-13.1177.6457ZM335.0105,141.5052c-.0681-.1879-12.9716.4511-13.1859,2.2392,2.9522.1318,13.93-.1864,13.1859-2.2392ZM320.0889,143.6919c-.5653-1.0453-1.0981-.6065-1.2278.5455.1606,2.3226,1.3644,2.0273,1.2278-.5455ZM319.1667,148.0742c-.2295-1.2525-1.1039-1.2525-1.3334,0,.1429,2.3082,1.1905,2.3082,1.3334,0ZM318.0889,151.6919c-.5653-1.0453-1.0981-.6065-1.2278.5455.1606,2.3226,1.3644,2.0273,1.2278-.5455ZM315.4367,162.116c.6707-2.2592,1.6991-4.3192,1.2592-7.2521-1.0476,2.1716-2.2443,4.3894-1.2592,7.2521ZM313.4367,170.116c.6707-2.2592,1.6991-4.3192,1.2592-7.2521-1.0476,2.1716-2.2443,4.3894-1.2592,7.2521ZM313.1667,172.0742c-.2295-1.2525-1.1039-1.2525-1.3334,0,.1429,2.3082,1.1905,2.3082,1.3334,0ZM312.1667,176.0742c-.2295-1.2525-1.1039-1.2525-1.3334,0,.1429,2.3082,1.1905,2.3082,1.3334,0ZM309.2902,186.1294c1.3859-2.0931,2.4507-4.314,1.2714-7.2297-.8446,2.22-1.9986,4.2546-1.2714,7.2297ZM969.768,188.7193c.3361-3.5493,1.658-6.0955.6538-8.5898-3.1306,2.311-1.2641,5.683-1.8107,9.3129-1.0952,2.3593,1.8923,2.1334,1.1569-.7231ZM309,187.5c0-.2761-.2239-.5-.5-.5s-.5.2239-.5.5.2239.5.5.5.5-.2239.5-.5ZM574.8478,213.9029c-.2685.2366-.6332.6497-.9186.8084-1.1754.0214-12.1227,6.3407-9.9291,8.2887l-1.0709-.2152c-2.0227-.4065-12.5528,6.1879-10.9291,8.2152-.3335.025-.7029-.1481-1.0315-.0945-4.2318.6903-7.8818,3.9653-10.9948,6.8399l-2.1076,1.1916c-13.263,7.4987-26.0118,16.3735-37.9318,25.8137-.54.4277-1.5041.8501-2.1312,1.21-9.6144,5.5172-18.7061,12.1313-28.3296,18.5353-.8699,2.4212,2.4184,5.8753,4.5395,6.5067.2506.7352,1.5439,1.1028,1.9186,1.6325,1.5727,2.2235,3.8416,3.836,5.1417,6.2152.4707.8613.7032,1.9668,1.8163,2.2336l-1.017,5.978c-.6237,3.6659,10.901,3.4494,13.2836,12.8495.4042,1.5946,1.5493,2.7682,2.7859,3.1121-.5129,2.3052.9235,5.225.7153,7.9242-.1589,2.0596,1.7958,2.3364,2.3976,3.0968,2.2703,2.8685,1.9032,7.3739,4.5873,10.1822,2.1571,2.2569,4.0044,5.0399,1.3045,7.7348-5.0591,5.0496,2.9607,8.6944,3.4128,16.1093.0868,1.4239.7059,2.9107,1.685,3.9081,1.7578,3.1242-7.7733,9.4578-12.9118,9.4629l36.9653,28.5577c8.0081,6.1867,15.4238,12.508,23.7313,17.4649.2041.1218.4945.0272.7139-.0105-.8949,1.2594,19.3293,16.4489,21.3333,16.9816l.7349-.0341c.2441,1.0186.7517,1.8448,1.369,2.3212,2.4002,1.8523,2.8863-1.6149,9.5128-3.7278-1.4988-3.8479-.2761-6.8765,1.4602-9.9433-1.6411-1.6822-2.3416-5.3178-3.7173-7.0927-2.5147-3.2442-5.5074-5.6695-5.4095-9.6544.6384-.3536,1.8136-1.5114,1.7428-2.2835,6.7248-2.2717,11.7113-9.2419,10.3602-16.8104,3.4017-3.0862,2.402-6.8601,1.1778-10.2106-.2435-.6664-.0595-1.5056-.2651-2.1863-.2433-3.6733,3.8166-8.063,8.031-7.7271,1.9515.1555,4.3454,3.0421,6.0372,3.0656.5861.0082,1.5888.7815,2.0945,1.0236,1.3784,1.5391,6.7129,3.3599,7.9609,1.013,3.2871-6.1818,4.2041-13.4374,5.7206-20.1185-.1813-1.2549-2.0762-2.276-2.1163-3.3722.3904-6.2373.7666-12.2448,1.5207-18.6312.4529-3.8359,6.8805-6.4727,6.5572-10.1797,1.0638.1485,1.4775,1.4474,3.3249,1.2597.3791-4.2509.2457-7.9207-1.4475-11.2466-1.1739.6112-.1084,3.3823-1.5126,2.3124.762-43.4265-11.373-88.2331-38.5285-123.3898-7.6261,5.2402-15.2389,9.4429-21.6369,15.0801ZM669.7132,308.2641c1.5759-3.1487-1.351-22.9873-1.4221-23.0411-.6041-.4567-2.0067-.1106-2.0635.4746-.0526.542-.3076,1.607-.1809,2.3129,1.7026,9.4867-.3164,22.2063,3.6665,20.2535ZM640,329c.0415.5666-.1763,1.1491.0189,1.5108.2849.5279.9898.7552,1.4839.4921.4082-.2174.9865-1.1595.4972-2.0029-2.5384-4.3754.724-14.3901-2.628-9.9347-1.4492,1.9262,1.0864,6.3574.628,9.9347ZM228.2045,524.2658l-9.945-.8535c-2.2282-.1912-3.2048-4.4839-4.7041-5.7659-6.9767-5.9656-1.7804-14.5953,2.0873-19.9353,2.4918-3.4403,2.2997-8.5248,4.2113-13.2859-6.4447-2.0726-11.2849-4.6482-16.6913-8.6844l-7.94,58.6196c2.1298,2.7146,5.8621,3.5463,7.2552,6.244l3.4029,6.5894c3.4466-1.9924,7.6312-4.617,11.0779-2.2786,2.2578,1.5317,1.0948,6.0537,2.7755,7.6789,4.0404,2.7039,11.4444,1.5772,14.3856,6.069l3.1155,10.9527c3.5658,12.5358-9.6382,7.8101-6.4083,17.7785l148.9904-87.3937,9.4713-35.603-35.1445-52.3161c-6.9214-10.3032-8.2208-21.0576-6.2193-33.0729.5999-3.6014-2.2674-7.539-.8142-12.4295-24.3119,6.3274-14.7644,10.4509-20.1974,13.0426-8.0835,3.856-9.0461-2.7972-12.84,2.3935-1.5957,2.1832-4.7169,2.6094-6.744.5631-2.5831-2.6075-6.5842-2.1413-9.0567-3.954-2.2085-1.6191-2.9253-4.9064-5.9636-6.0832-2.3051-.8928-1.7101-4.3232-2.5456-6.1338-1.3887-3.0093-2.9216-5.554-2.9782-9.1983-3.2838-1.4-6.46-1.2826-9.6183-2.1494l-3.6964,19.4738-90.3879,9.4539c-12.7994,1.3387-24.4479,1.7064-37.8549,4.0945l57.7296,27.293c2.4537,1.1601,7.1326.8668,7.1614,4.7139.0516,6.8989-2.8095,14.7714-2.3045,22.0058,10.4827.1522-2.1831-6.122,3.9474-13.5791,9.3608-11.3864,4.9576-14.3533,13.447-16.3432,2.2617-.5301,4.1823-4.918,6.8737-4.5146,4.4779.6712,7.5262,5.2376,11.9845,6.5466,3.5318,1.037,7.9-.0179,10.9118,2.0993,2.8805,2.0249,5.8188,3.6625,8.8284,5.0174,5.1406,2.3143,3.8602,8.2231,4.7148,12.4118.5708,2.7975,3.721,5.5576,2.2092,9.2633,4.8547,2.101,9.8273-1.0673,13.9929,1.5275,3.4368,2.1409,6.8827,6.8943,8.8467,10.4705,2.0446,3.7231,2.081,7.0234,6.4567,9.173,1.5528.7628,1.1691,4.664-.1325,5.7495-3.6005,3.0027-6.5949,6.5156-7.7323,11.0594-.6538,2.6117-2.7401,3.2274-4.192,5.2096-6.3877,8.7203-3.7286,18.6583-13.0894,19.3851-4.0844.3171-8.2967-1.436-12.1229-2.2349-6.1706,6.4787-8.8654,1.8946-13.3724,3.9439-5.4066,2.4584-6.2815,8.7471-8.645,13.4629-3.6677.3477-8.9611,3.8303-12.5366,3.5234ZM251.0053,372.9864c-5.6828,4.1784,23.4323-.4159,21.4066-.6662l2.2346-15.5788-4.474,14.4886c-.1934.6264-16.8774,2.0574-19.1672,1.7564ZM642.5612,391.9657c.5168-4.8469-.8062-9.3118-1.0654-14.3878-5.6596-1.611-8.9339-6.1501-11.1259-11.7158-1.8134,5.4207-3.3521,10.7925-4.5632,17.1795,2.7028-1.2064,5.7995-3.9746,8.0659-2.0872,2.927,2.4375-.1926,7.1946,8.6886,11.0112ZM648.064,410.9209l-1.665-30.3599c-.0693-1.2645-.8741-3.0718-2.4003-2.4763-.4891,7.3038,1.1612,14.6086,1.5035,21.9191.1909,4.0764-.682,8.0538,2.5618,10.9171ZM182.5119,539.4763c.3976-4.7532,6.3892-6.0088,10.6786-5.6654l9.7941-69.7608c.5669-4.0377,1.0144-8.1739-.3278-11.8123-1.2909-3.4995,1.1626-4.8962,1.8397-7.4661,2.145-8.141,2.6554-16.2141,3.7794-24.9204l-66.2817-30.8257c-2.0631-.9595-3.0854-3.035-6.0279-2.6512l-20.8726,2.7226c-1.921.2506-2.5122,4.8928-1.8717,6.9737l73.8541,36.856c1.9988.9975,3.1908,3.6495,4.4336,5.3619l-15.1226,118.7166c3.5041.0242,2.1097-4.0541,3.2409-5.393,3.1474-3.7251,2.4711-7.2015,2.8839-12.136ZM187.332,437.8518l-15.4764,121.9395,3.0773.3906,15.4764-121.9395-3.0773-.3906ZM632.0684,487.1916l-2.047-19.2248-13.3131,1.3391c.6723,5.8695-1.1601,12.6641,2.019,17.851,3.3452,1.6744,9.5792,2.0061,13.3412.0347ZM641.1331,482.8487c1.9811-4.6877.2989-9.8259-2.5844-13.2555-.9126-1.0854-5.2232-.2958-5.713,1.0474-1.446,3.965-.8109,8.8526,1.1389,12.5603,1.2009,2.2835,6.004,2.3797,7.1585-.3522ZM648.9541,475.6508c-2.2811-1.1326-3.2462-.5466-4.4237-.6473-.985-.0843-.6473,2.4945.2115,2.22,1.6984-.5428,2.6019-1.4737,4.2122-1.5726ZM620.134,490.2532c3.6678,3.8074,6.9356,6.2664,10.8378,9.1604,2.31-2.013,20.502-18.1557,18.835-20.4352-.1656-1.4857-4.9633-1.4737-5.8583-.3299-1.3537,1.7301-.4197,4.8166-2.0404,6.2815-2.3275,2.1036-5.9942,1.0549-8.7934.1217-.0676,1.3809,1.0488,3.7887-.3258,4.3104-4.2706,1.621-8.325.2874-12.655.8911ZM580.8898,563.6451c-1.616-2.9921-6.8103-3.0481-7.6613-5.3955-4.23-11.6683-8.0889-.5936-6.5716-23.2233,11.4041-7.5534.3611-4.6783,12.1193-9.5021,5.9168-2.4274,11.3547-3.7893,17.7104-.9575,1.6959.7556,4.4237-.2159,6.5177.2562,8.3144,1.8744.2009,10.4164,6.9333,17.3553-3.8157-11.5423,9.1616-10.4989.5794-16.8994l-37.7631-28.1635-.3217,9.4514c-.1499,4.4049-5.4208,5.3309-8.1658,7.8609-2.1461,1.9781-1.1711,6.2655-3.763,8.3315-2.1905,1.746-7.7254,4.6308-10.402,3.1112-3.8446-2.1826-5.9265-4.3733-10.7172-3.6-2.1139.3412-4.8026-2.5843-7.7053-.8181,12.4097,19.7216,13.2984,42.2752,5.8155,64.8891,23.9434-14.3232,37.8741-17.1025,65.5524-15.2157-.9878-4.3384-.4364-8.3727-3.6011-12.667-2.0962,5.6153-5.151,10.7943-11.4729,10.7733-3.119-.0104-5.5494-2.7468-7.0832-5.5867ZM917.7189,525.4403c1.7275,1.5441,1.0263,3.8989,2.7577,6.4109l4.8481-35.3341c-4.046,1.4147-8.7529,2.5169-11.2653,5.3121-2.6498,2.948-.9702,8.4455-1.1283,12.0729-.1384,3.1752-1.7917,5.9535-1.2288,8.7499.4865,2.417,4.3901,1.3343,6.0167,2.7883ZM264.645,906.6849c5.0128,6.6338-5.3284,8.1944-2.4281,12.1903l154.3155-23.1174,6.1393-1.0044,121.9586-18.0909-86.6935-38.9816c-2.888,3.5569-4.3309,7.3609-4.9042,11.959.4477,5.868,2.2987,15.5548-2.9399,19.1775l-7.4064,5.1218c-4.6146,3.1912-13.0349,2.972-17.284.1431-3.1734,2.5701-.6247,6.5587-2.3593,9.2789-1.594,2.4996-2.8878,7.0579-4.6774,8.7779-4.2794,4.1129-9.7626-2.3523-13.4717-2.3537-3.3931-.0012-5.1333-1.2967-7.952-1.9511-4.6138-1.0711-10.6849,2.5339-15.6561.5701-2.655-1.0489-5.3031-3.416-7.5132-5.0276-3.834-2.7958-2.1139-7.3341-2.5985-11.231-.4893-3.9344-4.7778-7.8054-3.5159-12.0016l4.1158-13.6865c.8179-2.7199,5.3146-3.805,5.5372-7.2486.2395-3.7058,2.0214-6.6057,6.1127-8.0678-.3978-1.648-2.8389-1.6006-1.9422-3.3542,1.8691.5342,1.8512,2.3723,3.0504,2.3361,2.756-.0833,1.5378-5.022,3.0501-7.0717,1.7106-2.3185,9.3773-.3042,11.2961-3.0954,2.3504-3.4192,5.4042-4.2885,8.8805-6.2506,3.1873-1.799,6.3954-6.3642,10.8504-5.0334,2.9141.8705,4.6001,4.8149,7.7426,6.1667,2.6572-1.2449,16.433-3.0988,17.7571-1.7789,4.479,4.4648,6.5328,10.2732,10.6561,15.6065,3.8953-5.8874,6.9631-10.8321,9.5004-16.3955-10.577-12.119-19.1967-25.845-22.9958-41.087-1.7416-6.9873-3.1387-13.192-5.5364-19.9912-3.4895-22.708-7.0701-45.3186-4.4499-68.3649,2.1644-19.0368,10.405-35.8263,17.177-53.918-19.8353-6.0197-34.8472-18.8378-45.2216-36.2548-6.5343-10.97-8.3091-23.6848-9.1659-36.771-.2826-9.1048,3.836-16.8715,5.1942-26.654l-186.9556,110.0814-43.1746-3.2894c-4.7577-.3625-9.0117-.0399-13.8154-.58l-23.0759-2.5945c-.6029,4.5534-1.4712,7.8684-1.242,12.1191l96.9594,13.8926-4.9522,37.4834c3.8368-2.4073,5.609-4.6759,9.4167-4.2412,3.1833.3634,5.2085,2.8061,7.5684,4.5452,4.7565,3.5052,2.8578,6.9885,3.2584,11.4967.7438,8.37,6.6685,2.4752-7.2636,20.9603-7.9792.2768-13.1405,3.5552-16.6523-3.4646l-3.8,29.7126c7.9678-3.6466,16.5541-4.9686,20.5845,3.6017,1.6493,3.5071,1.0754,7.849,1.6268,12.055.4836,3.6888,2.5416,8.0211.4305,11.4571-1.2291,2.0005-4.2781,3.8011-5.8955,5.6033-6.6969-.0003-13.6261-1.7453-20.4171-4.0388l-9.4461,71.2245c3.8893.1963,4.6806-3.6996,7.6136-4.0149,2.4169-.2598,4.5442,1.8366,6.9016,1.7268,3.1455-.1464,6.3575-.9714,9.1926-.197,3.5696,13.5815-4.5512,5.5629.7231,27.0407,1.1117,4.5271.4281,6.7021-1.8496,10.5715-1.9348,3.2867-.6766,10.3109-4.4942,12.7339-4.0097,2.5449-10.342-.4355-14.4048,1.7049-3.2957,1.7363-5.6783,4.4853-10.5988,2.8383l-2.6347,20.6917,55.6901-7.9433c-2.5696-3.693-6.3077-2.1519-9.6237-3.1396-4.3805-12.7858-2.9854-12.0439.9514-24.2553.5812-1.8029,1.337-5.0432,4.0808-3.9524,2.509.9975,6.0827.6146,8.1672,1.841,2.3327,1.3725,3.4334,3.5873,7.0346,3.1378,1.3572-.1694,3.1108.8314,3.8276,1.5302,2.4527,2.391-.7248,7.9784,1.6466,11.1166ZM909.8688,592c-1.2593,3.9319-3.8977,6.6261-9.371,5.8347l-26.7404,156.912c-.5996,3.5184.5179,6.9607.2161,10.2845-.6289,6.9273,3.2076,13.5221,3.3642,20.2345.1278,5.4752-6.8988,8.4796-9.2881,12.2724-2.6383,4.1882-.9655,9.684-2.1304,14.0843-10.1089,2.9693-8.3714.9771-19.9594,4.2801-8.2876,2.3623-2.9811,6.3885-7.6655,8.9734-1.0142.5597-2.9107.8463-4.3829.3922-4.2409-1.3081-7.2082.5518-10.9421,1.4389-2.8841.6852-5.3502.6714-6.129,4.3227l-3.8669,5.3404,63.2768-9.837,20.3486-133.0476.7963-4.6459,13.9934-96.8397c.4503-3.1166,2.9067-6.1769,1.1126-10.1474-1.1233,3.1859-1.7964,6.2664-2.6323,10.1474ZM198.7447,602.324c-3.397-1.5747-5.7558-5.4184-9.7581-6.3692-2.1076-.5007-2.9063,5.5137-1.2769,6.0714,3.5135,1.2025,7.176.2537,11.0351.2978ZM748.1559,611.0683c-.8655-1.2228-16.1822-4.7012-22.6946-2.4584-8.7807,3.0239-18.0703,6.5144-24.7058,13.9208,9.2885-3.298,16.1011-9.8815,25.6182-12.0721,10.5723-2.4335,24.7744,4.8371,21.7823.6097ZM161.6755,632.5949c-6.2398-1.0465-11.0736-.4348-16.7798-1.8904-9.786,1.4712,24.3872,4.8167,16.7798,1.8904ZM444.2152,772.461c-4.6578-3.6414,8.8802,22.4759,8.6385,19.5345-3.1835-6.2763-5.6821-12.0722-8.6385-19.5345ZM864.9414,799.4999c-.2598-7.6511-5.2888,6.7541-2.1609,7.9128,1.9499-2.2739,2.2675-4.7724,2.1609-7.9128ZM473,816c-.0674,1.1317,1.0223,1.2163,1,0,.1352-.5209-.1701-.7859-.5103-1.0091-.4369-.2868-1.1484.0256-1.4334.4538-.2019.3033.4212.6941.9437.5553Z" fill="#546444"/>
<path d="M396.1181,439.7972c-3.1013-2.2727-5.0062-6.1013-6.1811-9.5925,3.0539,2.1311,5.502,5.9074,6.1811,9.5925Z" fill="#546444"/>
<path d="M389.937,430.2047c-.5723-.3994-1.775-.4716-2.2998-1.5976-3.0262-6.4928-8.3919-11.2734-10.458-17.6859,1.9222.3208,11.43,15.3378,12.7579,19.2834Z" fill="#546444"/>
<path d="M377.1791,410.9213c-2.44-.4073-2.2424-2.4477-2.1791-3.9213,2.1793.3291,1.7054,2.4511,2.1791,3.9213Z" fill="#546444"/>
<path d="M380.937,206.9134c.2855-.896,1.1505-1.6849,2.063-1.9134-.1949.9508-1.0864,1.8218-2.063,1.9134Z" fill="#546444"/>
<path d="M385.1752,202.1122c-.2461,1.2203-.8086,2.5457-2.1752,2.8878.1409-.6877-.2937-1.5474.2188-2.3076.3716-.5512,1.2937-.5647,1.9564-.5802Z" fill="#546444"/>
<path d="M385.1752,202.1122c8.933-11.3432,19.3652-21.9855,29.9449-31.8779.2025,1.2829-.8908,2.8454-2.0873,3.9371-9.6865,8.8384-17.3495,19.8845-27.8575,27.9408Z" fill="#546444"/>
<path d="M417.9508,166.8701c-.0546.9551-.2847,1.9127-.8796,2.7105-.4246.5693-1.5155.316-1.9511.6537-.4255-2.6959,2.4729-2.4193,2.8307-3.3642Z" fill="#546444"/>
<path d="M421.2382,164.0945c-.4185.7131.1786,2.1707-1.1534,2.45-.6689.1402-1.3691.4031-2.134.3256.5519-1.7509,2.2882-2.149,3.2874-2.7756Z" fill="#546444"/>
<path d="M432.8445,151.8937c-2.7448,4.4689-6.6441,9.0891-11.6063,12.2008,2.7976-4.7674,7.1519-8.9436,11.6063-12.2008Z" fill="#546444"/>
<path d="M432.8445,151.8937c.5629-.9165.9649-1.5196,1.1555-1.8937-.189.6825-.5177,1.4273-1.1555,1.8937Z" fill="#546444"/>
<path d="M434,150c.1685-.3307,1.4583-1.4918,2-2-.1929,1.0755-.9008,1.8359-2,2Z" fill="#546444"/>
<path d="M690.3719,126.3672l-19.6243,92.0825c1.3291-17.2514,5.4616-33.6987,9.0638-50.6152l5.655-26.5566c1.2483-5.8623,1.7054-11.3995,3.6348-17.1415l13.8834-1.1493,36.0446-1.748c3.7576-.1822,7.2091-1.0283,10.1159,1.5459-4.6518.5926-8.6381-.0267-13.1184.2362l-32.0438,1.8809c-4.4597.2618-8.4764-.0301-13.6108,1.465Z" fill="#546444"/>
<path d="M639,222c.3945,7.2272-2.2305,13.4758-1.9921,19.8661-.399.0268-1.162.3653-1.4887.1313-.4211-.3016-.7541-1.1548-.6341-2.0012l2.1303-15.0279c.1229-.867-.1118-1.5594.0959-2.3309.1806-.6709,1.0119-.8631,1.8888-.6374Z" fill="#546444"/>
<path d="M862,120c.5435.2228,1.9917-.46,1.9769.8094l-12.9645.3417c-5.8365.1539-20.9408,1.3618-29.0243,1.7992l-50.9476,2.7569c-2.7087.1466-5.3259,1.1579-7.0405-.7072.3984-1.4891,2.3388-.8928,3.9868-.9782l55.9943-2.9009c1.659-.086,32.4625-1.8655,30.0414-2.1899l7.9774,1.069Z" fill="#546444"/>
<path d="M794.7262,220.8244l-8.0974-2.0123c-3.3319-.828-9.5926,3.8113-12.4901-.9656-4.2241-6.9639-11.1774-3.636-18.6317-9.4063-1.4742-2.4185-1.931-6.3436-4.4067-8.5407-2.1556-1.9131-2.1025-9.9352.5498-11.1509,3.7431-1.7157,6.7661-3.3931,7.3152-8.1761.193-1.6814,4.0087-3.1947,4.1033-5.9022.1375-3.9335,4.338-5.688,7.8504-4.4486,3.2195,1.1361,5.1197.4688,7.1933-2.1812.6242-.7977,2.195-1.0603,2.6711-1.8092.6605-1.0388-4.3727-13.603,14.8569-20.5191,5.7236-2.0585,9.5541-2.3835,15.3023-.4279,4.3499,1.4799,7.5603,2.2919,10.0999,6.7511,8.6795,15.2398-.573,15.0449,8.3965,18.7678,2.6743,1.11,2.1136,5.7616,3.9158,7.6456,2.1329,2.2296,3.8877,3.5198,4.1932,6.27.3372,3.0355-1.4279,4.8391-3.5671,7.3531-2.3505,2.7623.1257,7.3788-1.602,10.4403l-4.6911,8.3126c-1.6018,2.8385-4.3236,4.9795-4.0059,9.093l-9.2342.6008c-2.7506,2.7403-5.4154,3.3075-9.4243,3.644-2.1976.1845-4.9844,3.0787-6.2794,1.5147l-4.0181-4.8527Z" fill="#546444"/>
<path d="M519.3672,559.3079c0,27.6654-22.4272,50.0926-50.0926,50.0926s-50.0926-22.4272-50.0926-50.0926,22.4272-50.0926,50.0926-50.0926,50.0926,22.4272,50.0926,50.0926ZM517.6281,559.3219c0-26.6754-21.6247-48.3001-48.3001-48.3001s-48.3001,21.6247-48.3001,48.3001,21.6247,48.3001,48.3001,48.3001,48.3001-21.6247,48.3001-48.3001Z" fill="#546444"/>
<path d="M632.9705,725.8957c.2823-.3449.7195-.5785,1.0295-.8957l-1.0295.8957Z" fill="#546444"/>
<path d="M635.8209,718.9468c-4.9676,6.4406-13.2142,9.8271-20.9166,12.7532,6.0858,1.8093,13.7713-5.1118,18.0662-5.8043-.5359.6546-1.0133,1.8275-1.9337,2.0676-1.2738.3323-1.9848,1.4661-3.0367,2.0814-4.7438,2.7745-9.5188,3.7841-14.8215,3.79l-.1102-1.8373c.1411-1.95,1.7597-2.4403,3.7146-2.9922,11.5233-3.2536,14.5494-9.0699,19.038-10.0583Z" fill="#546444"/>
<path d="M643.0984,718.0591c-.3929,1.3064-1.8181,1.8104-3.0984,1.9409.151-1.5994,2.1425-1.5585,3.0984-1.9409Z" fill="#546444"/>
<path d="M639,721c.2118-.3687.8464-.6434,1-1-.2984.3668-.6349.6997-1,1Z" fill="#546444"/>
<path d="M549,810c2.1662-.5627,12.6044-.6331,11.8688-5.8189-.109-.7684-.1179-1.5965-.0446-2.3569l.1758-1.8242-.4462-2.1129c.4728-1.7032.0321-3.4671-2.0711-4.429,2.5808-3.3973.4701-6.4178,3.8768-6.466-1.235,1.4404-.5369,3.086-.1429,5.0466.9321,4.6383-1.0985,8.7759.4692,14.3553l30.2131-15.4529c12.5724-6.4303,23.9925-14.0855,33.0005-25.0229.5419-.6579,1.1064-1.7492.8203-2.1057-.313-.39-1.5852-.8776-1.83-1.0225.9139.2364,2.1834.0452,2.9639.107,1.3142.104,6.8287-12.6018,5.1464-10.0493,6.6257-10.0528,10.1674-22.1721,12.0547-34.5923.0598-.3937-2.1727-.0756-1.9562-.1964.3572-2.19,3.2794-3.9182,2.4129-6.6314-4.5222,2.2384-5.8326,6.6697-9.6905,7.5192,1.02-1.3224,1.7581-3.2263,3.554-4.5353,10.5378-7.6809,12.864-19.3731,15.6571-32.298,2.0843,10.2085-4.0888,19.9069-8.9084,28.0321,2.1829,1.7909,1.9607,3.5956,1.4577,6.3543-6.6896,36.6914-21.8847,59.7524-55.3133,76.7168l-21.4322,10.8765c-11.1754,5.6713-22.8783,10.0298-35.6233,8.6203-32.7372-3.6205-65.7507-22.4107-70.7729-57.3305,4.9398,9.2848,6.3938,18.681,12.6846,26.566,10.79,13.5243,26.053,21.9407,42.8436,26.0669,9.8535,2.4214,19.7332,4.3997,29.0322,1.9841Z" fill="#546444"/>
<path d="M639,721c-.0469,1.1272-.8717,1.9586-2,2,.3895-.7308.6543-2.2093,2-2Z" fill="#546444"/>
<path d="M637,723c-.0623.6631-.283,1.4519-.7991,1.7253-.7399.3919-1.5051.3013-2.2009.2747.2897-1.468,1.8909-1.6385,3-2Z" fill="#546444"/>
<path d="M495.769,643.769c.4223.4188.72,1.0078,1.1732,1.3963,1.0836.9289,2.6189,1.9598,2.3097,3.5787-.7755.0126-1.5475.1858-2.3202.2375-.1687-1.3999-1.3687-2.259-2.7507-2.0184.2126-.8362-.3611-1.9294-.2126-2.8137.5052-.1289,1.3798-.1077,1.8005-.3806Z" fill="#546444"/>
<path d="M493.9685,644.1496c-.6127.1563-1.336-.1737-1.9685-.1496-.0945-1.0723-.0253-2.1416.6483-3,1.6629-.0328,1.5229,1.9433,1.3202,3.1496Z" fill="#546444"/>
<path d="M501.1155,648.9633c-.1669.7447-.0289,1.5755-.2388,2.3097-.6139-.1734-1.4253.013-2.3541-.3036-1.2514-.4266.5906-1.4983.7294-2.2252.6219-.0101,1.2455.1754,1.8635.2192Z" fill="#546444"/>
</svg>
