<?xml version="1.0" encoding="UTF-8" standalone="no"?>
<!DOCTYPE svg PUBLIC "-//W3C//DTD SVG 1.1//EN"
 "http://www.w3.org/Graphics/SVG/1.1/DTD/svg11.dtd">
<!-- Generated by graphviz version 2.43.0 (0)
 -->
<!-- Title: granular_flow Pages: 1 -->
<svg width="207pt" height="224pt"
 viewBox="0.00 0.00 207.00 224.00" xmlns="http://www.w3.org/2000/svg" xmlns:xlink="http://www.w3.org/1999/xlink">
<g id="graph0" class="graph" transform="scale(1 1) rotate(0) translate(4 220)">
<title>granular_flow</title>
<!-- A -->
<g id="node1" class="node">
<title>A</title>
<path fill="white" stroke="black" d="M180.5,-216C180.5,-216 18.5,-216 18.5,-216 12.5,-216 6.5,-210 6.5,-204 6.5,-204 6.5,-175 6.5,-175 6.5,-169 12.5,-163 18.5,-163 18.5,-163 180.5,-163 180.5,-163 186.5,-163 192.5,-169 192.5,-175 192.5,-175 192.5,-204 192.5,-204 192.5,-210 186.5,-216 180.5,-216"/>
<text text-anchor="middle" x="99.5" y="-200.8" font-family="Helvetica Neue" font-size="14.00">Datos</text>
<text text-anchor="middle" x="99.5" y="-185.8" font-family="Helvetica Neue" font-size="14.00">(población, empleo,</text>
<text text-anchor="middle" x="99.5" y="-170.8" font-family="Helvetica Neue" font-size="14.00">uso de suelo, movilidad)</text>
</g>
<!-- B -->
<g id="node2" class="node">
<title>B</title>
<path fill="white" stroke="black" d="M187,-127C187,-127 12,-127 12,-127 6,-127 0,-121 0,-115 0,-115 0,-101 0,-101 0,-95 6,-89 12,-89 12,-89 187,-89 187,-89 193,-89 199,-95 199,-101 199,-101 199,-115 199,-115 199,-121 193,-127 187,-127"/>
<text text-anchor="middle" x="99.5" y="-111.8" font-family="Helvetica Neue" font-size="14.00">Tipologías rurales</text>
<text text-anchor="middle" x="99.5" y="-96.8" font-family="Helvetica Neue" font-size="14.00">(agrupación de territorios)</text>
</g>
<!-- A&#45;&gt;B -->
<g id="edge1" class="edge">
<title>A&#45;&gt;B</title>
<path fill="none" stroke="black" d="M99.5,-162.91C99.5,-154.74 99.5,-145.65 99.5,-137.3"/>
<polygon fill="black" stroke="black" points="103,-137.24 99.5,-127.24 96,-137.24 103,-137.24"/>
</g>
<!-- C -->
<g id="node3" class="node">
<title>C</title>
<path fill="white" stroke="black" d="M174,-53C174,-53 25,-53 25,-53 19,-53 13,-47 13,-41 13,-41 13,-12 13,-12 13,-6 19,0 25,0 25,0 174,0 174,0 180,0 186,-6 186,-12 186,-12 186,-41 186,-41 186,-47 180,-53 174,-53"/>
<text text-anchor="middle" x="99.5" y="-37.8" font-family="Helvetica Neue" font-size="14.00">Política pública</text>
<text text-anchor="middle" x="99.5" y="-22.8" font-family="Helvetica Neue" font-size="14.00">(agua, agricultura,</text>
<text text-anchor="middle" x="99.5" y="-7.8" font-family="Helvetica Neue" font-size="14.00">servicios, gobernanza)</text>
</g>
<!-- B&#45;&gt;C -->
<g id="edge2" class="edge">
<title>B&#45;&gt;C</title>
<path fill="none" stroke="black" d="M99.5,-88.96C99.5,-81.32 99.5,-72.14 99.5,-63.23"/>
<polygon fill="black" stroke="black" points="103,-63 99.5,-53 96,-63 103,-63"/>
</g>
</g>
</svg>
