<?xml version='1.0' encoding='UTF-8' standalone='no'?>
<svg width="296.926mm" xmlns:xlink="http://www.w3.org/1999/xlink" height="209.973mm" xmlns="http://www.w3.org/2000/svg" viewBox="0 0 3507 2480" version="1.2" baseProfile="tiny" xmlns:cc="http://creativecommons.org/ns#">
 <defs/>
 <g stroke-width="1" stroke-linecap="square" fill-rule="evenodd" stroke-linejoin="bevel" fill="none" stroke="black">
  <g stroke-width="1" font-size="54.1667" stroke-linecap="square" stroke-linejoin="bevel" transform="matrix(1,0,0,1,0,0)" font-style="normal" fill="none" stroke="#000000" stroke-opacity="1" font-family=".AppleSystemUIFont" font-weight="400"/>
  <g stroke-width="1" font-size="54.1667" stroke-linecap="square" stroke-linejoin="bevel" transform="matrix(1,0,0,1,0,0)" font-style="normal" fill="none" stroke="#000000" stroke-opacity="1" font-family=".AppleSystemUIFont" font-weight="400"/>
  <g stroke-width="1" font-size="54.1667" stroke-linecap="square" stroke-linejoin="bevel" transform="matrix(11.8081,0,0,11.8081,0,0)" font-style="normal" fill="none" stroke="#000000" stroke-opacity="1" font-family=".AppleSystemUIFont" font-weight="400"/>
  <g stroke-width="1" font-size="54.1667" stroke-linecap="square" stroke-linejoin="bevel" transform="matrix(0.999751,0,0,0.999751,0,0)" font-style="normal" fill="none" stroke="#000000" stroke-opacity="1" font-family=".AppleSystemUIFont" font-weight="400"/>
  <g font-size="54.1667" transform="matrix(0.999751,0,0,0.999751,0,0)" fill-opacity="1" font-style="normal" fill="#ffffff" stroke="none" font-family=".AppleSystemUIFont" font-weight="400">
   <path fill-rule="evenodd" d="M-2,-2 L3510,-2 L3510,2483 L-2,2483 L-2,-2" vector-effect="none"/>
  </g>
  <g stroke-width="1" font-size="54.1667" stroke-linecap="square" stroke-linejoin="bevel" transform="matrix(0.999751,0,0,0.999751,0,0)" font-style="normal" fill="none" stroke="#000000" stroke-opacity="1" font-family=".AppleSystemUIFont" font-weight="400"/>
  <g stroke-width="1" font-size="54.1667" stroke-linecap="square" stroke-linejoin="bevel" transform="matrix(11.8081,0,0,11.8081,0,0)" font-style="normal" fill="none" stroke="#000000" stroke-opacity="1" font-family=".AppleSystemUIFont" font-weight="400"/>
  <g stroke-width="1" font-size="54.1667" stroke-linecap="square" stroke-linejoin="bevel" transform="matrix(11.8081,0,0,11.8081,0,0)" font-style="normal" fill="none" stroke="#000000" stroke-opacity="1" font-family=".AppleSystemUIFont" font-weight="400"/>
  <g stroke-width="1" font-size="54.1667" stroke-linecap="square" stroke-linejoin="bevel" transform="matrix(11.8081,0,0,11.8081,0,0)" font-style="normal" fill="none" stroke="#000000" stroke-opacity="1" font-family=".AppleSystemUIFont" font-weight="400"/>
  <g stroke-width="1" font-size="54.1667" stroke-linecap="square" stroke-linejoin="bevel" transform="matrix(11.8081,0,0,11.8081,0,0)" font-style="normal" fill="none" stroke="#000000" stroke-opacity="1" font-family=".AppleSystemUIFont" font-weight="400"/>
  <g stroke-width="1" font-size="54.1667" stroke-linecap="square" stroke-linejoin="bevel" transform="matrix(11.8081,0,0,11.8081,0,0)" font-style="normal" fill="none" stroke="#000000" stroke-opacity="1" font-family=".AppleSystemUIFont" font-weight="400"/>
  <g font-size="54.1667" transform="matrix(11.8081,0,0,11.8081,0,0)" fill-opacity="1" font-style="normal" fill="#ffffff" stroke="none" font-family=".AppleSystemUIFont" font-weight="400">
   <path fill-rule="evenodd" d="M0,0 L297,0 L297,210 L0,210 L0,0" vector-effect="none"/>
  </g>
  <g stroke-width="1" font-size="54.1667" stroke-linecap="square" stroke-linejoin="bevel" transform="matrix(11.8081,0,0,11.8081,0,0)" font-style="normal" fill="none" stroke="#000000" stroke-opacity="1" font-family=".AppleSystemUIFont" font-weight="400"/>
  <g stroke-width="1" font-size="54.1667" stroke-linecap="square" stroke-linejoin="bevel" transform="matrix(11.8081,0,0,11.8081,0,0)" font-style="normal" fill="none" stroke="#000000" stroke-opacity="1" font-family=".AppleSystemUIFont" font-weight="400"/>
  <g font-size="54.1667" transform="matrix(0.999751,0,0,0.999751,0,0)" fill-opacity="0" font-style="normal" fill="#000000" stroke="none" font-family=".AppleSystemUIFont" font-weight="400">
   <rect width="3508" y="0" height="2480" x="0"/>
  </g>
  <g stroke-width="1" font-size="54.1667" stroke-linecap="square" stroke-linejoin="bevel" transform="matrix(0.999751,0,0,0.999751,0,0)" font-style="normal" fill="none" stroke="#000000" stroke-opacity="1" font-family=".AppleSystemUIFont" font-weight="400"/>
  <g stroke-width="3.07087" font-size="54.1667" stroke-linecap="square" stroke-linejoin="bevel" transform="matrix(0.999751,0,0,0.999751,0,0)" fill-opacity="1" font-style="normal" fill="#ff7f00" stroke="#f7f7f7" stroke-opacity="1" font-family=".AppleSystemUIFont" font-weight="400">
   <path fill-rule="evenodd" d="M2239.45,2326.4 L2238.48,2327.77 L2229.47,2334.66 L2217.63,2340.32 L2207.68,2344.18 L2199.96,2347.36 L2192.39,2349.73 L2185.61,2351.78 L2170.35,2354.51 L2156.59,2356.14 L2145.47,2356.44 L2136.37,2358.67 L2122.85,2364.68 L2115.65,2365.84 L2109.23,2370.61 L2104.17,2368.75 L2096.57,2376.34 L2092.76,2376.76 L2089.96,2378.19 L2087.19,2381.36 L2084.29,2385.45 L2083.1,2391.61 L2081.81,2393.08 L2072.87,2394.52 L2069.26,2394.87 L2062.9,2396.15 L2061.98,2395.65 L2055.48,2396.6 L2052.37,2397.07 L2049.51,2397.52 L2046.95,2398.35 L2034.26,2399 L2029.33,2399.48 L2024.71,2401.36 L2023.95,2401.52 L2009.76,2404.69 L2009.55,2404.94 L2008.58,2405 L2006.39,2405.79 L2006.29,2409.61 L1967.62,2413.15 L1967.6,2419.66 L1965.06,2420.95 L1952.31,2420.62 L1937.04,2408.24 L1919.67,2407.23 L1895.94,2417.35 L1895.02,2417.22 L1894.85,2415.15 L1889.42,2416.4 L1889.16,2416.36 L1868.78,2415.4 L1845.93,2411.04 L1803.62,2417.28 L1800.99,2414.49 L1796.98,2414.71 L1793.79,2415.09 L1791.47,2414.53 L1787.78,2413.59 L1786.72,2412.43 L1785.99,2409.87 L1781.84,2406.62 L1780.41,2403.31 L1779.95,2401.24 L1778.32,2401.39 L1776.75,2400.43 L1775.95,2400.05 L1774.89,2402.06 L1773.8,2401.09 L1773.16,2400.31 L1772.6,2401.51 L1771.87,2400.66 L1770.39,2399.95 L1769.11,2398.89 L1768.68,2398.43 L1768.23,2397.77 L1767.38,2396.63 L1766.49,2395.66 L1765.7,2394.74 L1765.28,2393.83 L1764.75,2391.71 L1763.61,2389.8 L1761.69,2388.48 L1761.07,2387.7 L1761.03,2386.74 L1761.81,2385.76 L1763.38,2385.06 L1764.36,2383.87 L1764.81,2382.96 L1764.61,2381.77 L1763.69,2380.78 L1762.91,2379.78 L1761.59,2379.16 L1760.41,2378.81 L1758.41,2377.49 L1756.15,2377.09 L1755.12,2376.93 L1754.51,2376.1 L1754.15,2375.17 L1753.2,2374.57 L1752.24,2374.91 L1751.17,2375.57 L1749.53,2373.2 L1747.9,2372.6 L1747.4,2371.55 L1747.31,2371.02 L1744.52,2369.46 L1743.58,2369 L1743.05,2368.73 L1742.61,2368.56 L1742.11,2368.25 L1741.24,2367.96 L1737.7,2367.97 L1737.27,2367.13 L1736.86,2366.08 L1736.49,2365.14 L1736.05,2364.13 L1735.55,2363.65 L1734.83,2363.28 L1733.76,2362.97 L1732.77,2361.25 L1731.88,2360.59 L1731.24,2360.48 L1730.61,2360.61 L1730.19,2361.09 L1729.59,2361.34 L1729.22,2361.23 L1728.93,2360.87 L1728.91,2360.45 L1728.77,2359.81 L1728.11,2359.77 L1727.45,2359.28 L1727.19,2358.82 L1726.83,2358.34 L1724.54,2356.95 L1723.38,2356.14 L1722.68,2355.47 L1722.05,2354.63 L1720.61,2353.49 L1719.77,2352.9 L1718.64,2352.41 L1716.96,2351.53 L1715.91,2350.61 L1715.58,2349.77 L1715.06,2348.97 L1715.59,2348.16 L1714.92,2346.36 L1714.56,2345.45 L1714.32,2344.58 L1713.94,2344.15 L1714.52,2343.55 L1714.48,2342.85 L1714.13,2341.85 L1714.52,2339.84 L1716.09,2337.91 L1716.26,2335.8 L1714.8,2334.67 L1710.15,2327.08 L1702.76,2322.62 L1685.7,2315.49 L1683.52,2315.85 L1682.41,2315.74 L1677.97,2317.38 L1675.96,2318.53 L1671.32,2324.54 L1668.55,2329.42 L1663.43,2336.41 L1658.89,2341.56 L1654.1,2341.89 L1650.22,2342.22 L1647.92,2342.63 L1645.27,2345.71 L1639.89,2350.17 L1633.48,2354.26 L1625.22,2359.56 L1613.08,2373.74 L1599.41,2372.52 L1593.53,2376.72 L1587.76,2381.88 L1582.78,2384.19 L1574.4,2385.92 L1564.93,2387.1 L1556.57,2389 L1556.06,2389.12 L1553.05,2391.05 L1545.55,2372.71 L1524.43,2357.7 L1508.13,2346.12 L1486.1,2274 L1481.81,2256.97 L1477.94,2259.58 L1474.07,2256.27 L1467.26,2262.08 L1462.26,2257.65 L1461.25,2254.61 L1456.64,2250.32 L1453.68,2247.05 L1452.58,2244.79 L1450.55,2242.45 L1446.81,2237.23 L1448.34,2236.35 L1452.07,2237.26 L1455.15,2237.51 L1456.79,2237.74 L1457.48,2235.91 L1459.02,2234.97 L1460.62,2233.18 L1461.08,2227.33 L1458.79,2226.49 L1459.17,2224.76 L1460.29,2222.77 L1457.23,2220.77 L1454.4,2219.36 L1451.51,2217.14 L1449.35,2216.31 L1447.82,2214.15 L1446.35,2211.41 L1445.14,2208.48 L1443.92,2206.14 L1441.55,2204.27 L1439,2199.76 L1437.44,2197.23 L1435.12,2194.56 L1433.81,2192.53 L1432.05,2189.77 L1430.12,2187.13 L1428.7,2185.29 L1427.95,2182.93 L1427.08,2181.18 L1423.81,2179.92 L1421.7,2178.18 L1420.2,2176.06 L1419.2,2173.32 L1418.45,2170.57 L1414.84,2167.34 L1410.36,2174.09 L1408.66,2173.69 L1406.58,2172.79 L1405.22,2171.34 L1405.31,2168.63 L1404.23,2167.1 L1403.18,2166.04 L1401.64,2165.27 L1399.8,2164.33 L1393.52,2158.88 L1391.77,2157.62 L1381.25,2147.53 L1362.66,2134.46 L1362.58,2134.06 L1362.25,2132.28 L1362.89,2130.96 L1364.63,2129.28 L1366.8,2128.36 L1369.24,2127.89 L1371.86,2127.49 L1374.35,2127.44 L1377.03,2127.55 L1378.3,2127.48 L1380.91,2125.48 L1384.42,2122.65 L1386.38,2122.08 L1388.66,2122.63 L1390.66,2122.19 L1392.66,2121.02 L1393.37,2119.33 L1394.82,2116.99 L1395.95,2115.35 L1397.39,2113.37 L1398.69,2112.06 L1400.21,2109.95 L1401.44,2108.12 L1402.59,2105.73 L1403.47,2103.83 L1404.46,2099.02 L1404.61,2094.6 L1402.8,2093.56 L1401.61,2094.35 L1401.42,2095.01 L1397.21,2093.43 L1352.07,2070.63 L1327.47,2066.5 L1323.65,2065.06 L1321.53,2063.45 L1227.02,1974.21 L1170.88,1891.54 L1166.01,1883.58 L1164.72,1879.35 L1181.09,1802.36 L1143.66,1767.08 L1016.02,1659.19 L971.717,1619.84 L958.259,1609.16 L961.042,1594.27 L927.317,1562.36 L874.162,1472.6 L894.867,1482.92 L837.848,1377.48 L839.351,1371.34 L884.093,1344.49 L994.634,1300.75 L1059.51,1275.07 L1030.92,1307.49 L1065.19,1340.35 L1079.98,1320.8 L1070.19,1298.93 L1070.93,1297.37 L1071.28,1296.26 L1071.22,1295.17 L1071.57,1293.89 L1072.31,1291.81 L1073.79,1289.97 L1074.43,1287.8 L1074.76,1286.43 L1074.99,1285.02 L1076.41,1283.36 L1077.02,1281.04 L1077.02,1278.73 L1076.81,1276.81 L1076.41,1275.37 L1228.4,1278.09 L1346.12,1197.87 L1381.35,1169.67 L1361.37,1154 L1368.75,1147.23 L1369.48,1147.62 L1372.08,1145.34 L1372.23,1145.6 L1372.35,1145.82 L1372.46,1146.02 L1372.56,1146.19 L1372.65,1146.35 L1372.75,1146.49 L1372.84,1146.62 L1372.94,1146.74 L1373.04,1146.86 L1373.14,1146.97 L1373.25,1147.07 L1373.37,1147.17 L1373.49,1147.26 L1373.61,1147.35 L1373.75,1147.44 L1373.88,1147.53 L1374.03,1147.61 L1374.17,1147.68 L1374.32,1147.75 L1374.47,1147.81 L1374.63,1147.87 L1374.79,1147.91 L1374.95,1147.95 L1375.11,1147.98 L1375.29,1148 L1375.49,1148.01 L1375.71,1148.01 L1375.96,1148 L1376.24,1147.99 L1376.56,1147.97 L1376.92,1147.94 L1377.32,1147.91 L1377.75,1147.87 L1378.19,1147.84 L1378.64,1147.81 L1379.09,1147.78 L1379.53,1147.76 L1379.96,1147.75 L1380.35,1147.75 L1380.73,1147.76 L1381.09,1147.78 L1381.43,1147.81 L1381.77,1147.84 L1382.1,1147.89 L1382.42,1147.93 L1382.76,1147.98 L1383.1,1148.04 L1383.45,1148.09 L1383.8,1148.15 L1384.16,1148.21 L1384.51,1148.27 L1384.87,1148.33 L1385.23,1148.4 L1385.58,1148.46 L1385.92,1148.52 L1386.26,1148.58 L1386.58,1148.64 L1386.89,1148.7 L1387.18,1148.75 L1387.45,1148.8 L1387.7,1148.85 L1387.92,1148.89 L1388.12,1148.93 L1388.28,1148.96 L1388.43,1148.99 L1388.56,1149.01 L1388.67,1149.04 L1388.77,1149.06 L1388.87,1149.09 L1388.96,1149.11 L1389.05,1149.14 L1389.14,1149.17 L1389.23,1149.2 L1389.32,1149.23 L1389.42,1149.27 L1389.52,1149.31 L1389.63,1149.34 L1389.75,1149.38 L1389.87,1149.43 L1390,1149.47 L1390.14,1149.51 L1390.28,1149.56 L1390.43,1149.61 L1390.59,1149.65 L1390.75,1149.7 L1390.91,1149.75 L1391.08,1149.8 L1391.24,1149.86 L1391.41,1149.91 L1391.59,1149.96 L1391.76,1150.02 L1391.93,1150.07 L1392.1,1150.12 L1392.27,1150.18 L1392.43,1150.23 L1392.59,1150.28 L1392.75,1150.33 L1392.91,1150.38 L1393.06,1150.42 L1393.21,1150.47 L1393.36,1150.51 L1393.5,1150.54 L1393.64,1150.57 L1393.77,1150.6 L1393.9,1150.62 L1394.03,1150.64 L1394.16,1150.67 L1394.29,1150.69 L1394.41,1150.71 L1394.54,1150.74 L1394.68,1150.76 L1394.81,1150.8 L1394.95,1150.83 L1395.09,1150.87 L1395.24,1150.91 L1395.39,1150.96 L1395.54,1151 L1395.71,1151.06 L1395.88,1151.11 L1396.05,1151.18 L1396.23,1151.24 L1396.41,1151.31 L1396.6,1151.37 L1396.78,1151.45 L1396.96,1151.52 L1397.13,1151.59 L1397.31,1151.67 L1397.47,1151.74 L1397.63,1151.82 L1397.79,1151.89 L1397.94,1151.97 L1398.08,1152.05 L1398.23,1152.13 L1398.36,1152.22 L1398.49,1152.3 L1398.62,1152.39 L1398.75,1152.49 L1398.88,1152.58 L1399,1152.69 L1399.13,1152.8 L1399.27,1152.91 L1399.41,1153.03 L1399.55,1153.16 L1399.71,1153.3 L1399.86,1153.44 L1400.02,1153.59 L1400.18,1153.74 L1400.34,1153.89 L1400.5,1154.05 L1400.65,1154.2 L1400.8,1154.35 L1400.95,1154.49 L1401.08,1154.63 L1401.21,1154.77 L1401.34,1154.9 L1401.45,1155.03 L1401.56,1155.15 L1401.66,1155.26 L1401.75,1155.36 L1401.83,1155.46 L1401.9,1155.55 L1401.97,1155.64 L1402.04,1155.73 L1402.1,1155.82 L1402.16,1155.92 L1402.22,1156.01 L1402.28,1156.12 L1402.34,1156.23 L1402.41,1156.34 L1402.47,1156.46 L1402.54,1156.58 L1402.61,1156.7 L1402.68,1156.83 L1402.75,1156.96 L1402.83,1157.09 L1402.9,1157.22 L1402.98,1157.36 L1403.06,1157.49 L1403.14,1157.64 L1403.23,1157.78 L1403.31,1157.93 L1403.4,1158.08 L1403.5,1158.23 L1403.59,1158.39 L1403.69,1158.56 L1403.79,1158.72 L1403.88,1158.88 L1403.98,1159.05 L1404.07,1159.21 L1404.16,1159.37 L1404.24,1159.53 L1404.32,1159.68 L1404.39,1159.83 L1404.46,1159.98 L1404.52,1160.12 L1404.57,1160.25 L1404.62,1160.38 L1404.67,1160.5 L1404.71,1160.61 L1404.74,1160.71 L1404.77,1160.81 L1404.8,1160.91 L1404.83,1161.01 L1404.85,1161.12 L1404.88,1161.22 L1404.92,1161.34 L1404.96,1161.46 L1405,1161.6 L1405.05,1161.73 L1405.09,1161.88 L1405.14,1162.03 L1405.19,1162.18 L1405.24,1162.33 L1405.28,1162.48 L1405.33,1162.63 L1405.37,1162.78 L1405.41,1162.93 L1405.44,1163.07 L1405.48,1163.22 L1405.51,1163.36 L1405.55,1163.51 L1405.58,1163.65 L1405.62,1163.79 L1405.66,1163.94 L1405.7,1164.08 L1405.74,1164.23 L1405.79,1164.37 L1405.84,1164.52 L1405.89,1164.67 L1405.95,1164.81 L1406.02,1164.96 L1406.09,1165.11 L1406.16,1165.26 L1406.24,1165.41 L1406.32,1165.57 L1406.4,1165.72 L1406.48,1165.88 L1406.56,1166.03 L1406.64,1166.19 L1406.73,1166.35 L1406.81,1166.5 L1406.89,1166.66 L1406.96,1166.82 L1407.04,1166.97 L1407.12,1167.13 L1407.19,1167.28 L1407.26,1167.43 L1407.33,1167.57 L1407.4,1167.72 L1407.47,1167.85 L1407.53,1167.99 L1407.59,1168.11 L1407.65,1168.23 L1407.71,1168.35 L1407.76,1168.45 L1407.82,1168.55 L1407.87,1168.64 L1407.92,1168.73 L1407.98,1168.81 L1408.04,1168.89 L1408.09,1168.97 L1408.16,1169.05 L1408.22,1169.12 L1408.29,1169.2 L1408.36,1169.28 L1408.44,1169.36 L1408.51,1169.44 L1408.59,1169.52 L1408.68,1169.61 L1408.76,1169.7 L1408.85,1169.78 L1408.93,1169.87 L1409.02,1169.96 L1409.11,1170.05 L1409.2,1170.14 L1409.3,1170.23 L1409.39,1170.31 L1409.49,1170.39 L1409.59,1170.47 L1409.69,1170.55 L1409.79,1170.62 L1409.89,1170.69 L1409.98,1170.76 L1410.08,1170.83 L1410.17,1170.89 L1410.25,1170.95 L1410.33,1171.01 L1410.4,1171.07 L1410.47,1171.13 L1410.53,1171.19 L1410.59,1171.25 L1410.65,1171.3 L1410.7,1171.35 L1410.76,1171.4 L1410.81,1171.46 L1410.87,1171.5 L1410.93,1171.55 L1410.98,1171.6 L1411.04,1171.65 L1411.11,1171.71 L1411.17,1171.76 L1411.24,1171.82 L1411.31,1171.88 L1411.39,1171.95 L1411.48,1172.02 L1411.57,1172.1 L1411.67,1172.19 L1411.77,1172.29 L1411.89,1172.4 L1412.02,1172.52 L1412.16,1172.66 L1412.32,1172.8 L1412.49,1172.96 L1412.67,1173.12 L1412.86,1173.29 L1413.06,1173.47 L1413.28,1173.64 L1413.51,1173.82 L1413.75,1173.99 L1414,1174.17 L1414.25,1174.33 L1414.5,1174.49 L1414.73,1174.64 L1414.95,1174.77 L1415.15,1174.89 L1415.31,1174.98 L1415.44,1175.06 L1415.55,1175.12 L1415.63,1175.16 L1415.69,1175.2 L1415.75,1175.22 L1415.8,1175.24 L1415.86,1175.26 L1415.93,1175.28 L1416.01,1175.3 L1416.1,1175.33 L1416.2,1175.35 L1416.31,1175.38 L1416.41,1175.41 L1416.51,1175.44 L1416.6,1175.46 L1416.84,1175.53 L1416.85,1175.53 L1416.86,1175.53 L1416.86,1175.53 L1416.86,1175.53 L1416.86,1175.53 L1416.86,1175.53 L1416.86,1175.53 L1416.87,1175.54 L1416.88,1175.54 L1416.91,1175.54 L1416.97,1175.55 L1417.04,1175.56 L1417.15,1175.57 L1417.29,1175.59 L1417.47,1175.62 L1417.68,1175.65 L1417.92,1175.68 L1418.19,1175.72 L1418.48,1175.76 L1418.78,1175.8 L1419.09,1175.85 L1419.4,1175.9 L1419.71,1175.95 L1420.01,1176 L1420.32,1176.06 L1420.62,1176.11 L1420.92,1176.16 L1421.22,1176.2 L1421.52,1176.25 L1421.82,1176.28 L1422.12,1176.32 L1422.42,1176.34 L1422.71,1176.36 L1423,1176.38 L1423.28,1176.39 L1423.55,1176.39 L1423.81,1176.39 L1424.06,1176.38 L1424.3,1176.37 L1424.52,1176.36 L1424.73,1176.34 L1424.94,1176.33 L1425.13,1176.31 L1425.32,1176.29 L1425.51,1176.27 L1425.69,1176.26 L1425.87,1176.25 L1426.04,1176.24 L1426.22,1176.23 L1426.39,1176.23 L1426.55,1176.22 L1426.72,1176.22 L1426.88,1176.21 L1427.03,1176.21 L1427.19,1176.2 L1427.34,1176.18 L1427.48,1176.17 L1427.63,1176.16 L1427.77,1176.14 L1427.92,1176.13 L1428.06,1176.12 L1428.21,1176.11 L1428.37,1176.11 L1428.52,1176.11 L1428.68,1176.11 L1428.84,1176.11 L1429.01,1176.12 L1429.18,1176.13 L1429.35,1176.15 L1429.52,1176.16 L1429.69,1176.18 L1429.86,1176.2 L1430.04,1176.22 L1430.22,1176.25 L1430.4,1176.27 L1430.58,1176.29 L1430.76,1176.3 L1430.95,1176.32 L1431.14,1176.33 L1431.33,1176.34 L1431.51,1176.34 L1431.69,1176.35 L1431.86,1176.35 L1432.01,1176.35 L1432.14,1176.35 L1432.25,1176.35 L1432.34,1176.35 L1432.41,1176.35 L1432.47,1176.35 L1432.51,1176.36 L1432.56,1176.37 L1432.6,1176.39 L1432.65,1176.41 L1432.72,1176.44 L1432.81,1176.48 L1432.92,1176.53 L1433.08,1176.58 L1433.29,1176.64 L1433.57,1176.71 L1433.93,1176.78 L1434.38,1176.86 L1434.93,1176.95 L1435.58,1177.04 L1436.33,1177.13 L1437.15,1177.22 L1438.01,1177.31 L1438.9,1177.39 L1439.78,1177.47 L1440.64,1177.54 L1441.45,1177.61 L1442.2,1177.66 L1442.88,1177.71 L1443.51,1177.75 L1444.1,1177.78 L1444.64,1177.81 L1445.16,1177.84 L1445.65,1177.87 L1446.12,1177.9 L1446.58,1177.94 L1447.03,1177.98 L1447.48,1178.03 L1447.91,1178.07 L1448.34,1178.13 L1448.76,1178.18 L1449.16,1178.24 L1449.56,1178.29 L1449.94,1178.35 L1450.32,1178.41 L1450.67,1178.47 L1451.01,1178.53 L1451.32,1178.59 L1451.61,1178.64 L1451.87,1178.69 L1452.09,1178.74 L1452.29,1178.78 L1452.45,1178.82 L1452.58,1178.85 L1452.69,1178.88 L1452.78,1178.91 L1452.85,1178.94 L1452.92,1178.96 L1452.98,1178.99 L1453.03,1179.01 L1453.08,1179.04 L1453.13,1179.06 L1453.18,1179.09 L1453.23,1179.11 L1453.28,1179.13 L1453.32,1179.16 L1453.36,1179.18 L1453.41,1179.21 L1453.45,1179.23 L1453.49,1179.25 L1453.53,1179.28 L1453.57,1179.3 L1453.62,1179.33 L1453.67,1179.36 L1453.71,1179.39 L1453.77,1179.42 L1453.82,1179.45 L1453.88,1179.49 L1453.94,1179.52 L1454,1179.56 L1454.06,1179.6 L1454.12,1179.63 L1454.18,1179.67 L1454.24,1179.71 L1454.3,1179.75 L1454.36,1179.78 L1454.42,1179.82 L1454.47,1179.86 L1454.53,1179.89 L1454.58,1179.93 L1454.64,1179.97 L1454.7,1180.01 L1454.75,1180.05 L1454.81,1180.09 L1454.86,1180.13 L1454.92,1180.17 L1454.98,1180.21 L1455.04,1180.25 L1455.09,1180.3 L1455.15,1180.35 L1455.21,1180.39 L1455.27,1180.44 L1455.34,1180.5 L1455.4,1180.55 L1455.46,1180.6 L1455.53,1180.66 L1455.6,1180.72 L1455.66,1180.78 L1455.73,1180.83 L1455.8,1180.89 L1455.87,1180.95 L1455.94,1181.01 L1456,1181.07 L1456.06,1181.12 L1456.12,1181.17 L1456.18,1181.22 L1456.23,1181.27 L1456.27,1181.31 L1456.32,1181.36 L1456.36,1181.4 L1456.4,1181.44 L1456.44,1181.48 L1456.49,1181.52 L1456.53,1181.56 L1456.57,1181.6 L1456.62,1181.64 L1456.66,1181.68 L1456.71,1181.72 L1456.76,1181.76 L1456.8,1181.8 L1456.85,1181.84 L1456.89,1181.89 L1456.94,1181.93 L1456.99,1181.99 L1457.03,1182.04 L1457.08,1182.11 L1457.13,1182.19 L1457.19,1182.28 L1457.25,1182.39 L1457.53,1178.67 L1461.04,1133.09 L1465.71,1072.42 L1538.46,939.246 L1783.4,490.83 L1853.37,362.704 L1978.32,133.894 L2013.8,68.9052 L2019.19,59.0476 L2023.63,68.23 L2032.17,78.3755 L2036.1,83.3939 L2042.83,91.7961 L2048.76,99.258 L2058.12,111.109 L2061.56,115.443 L2068.78,124.542 L2071.89,128.409 L2072.76,129.064 L2073.16,130.109 L2074.06,131.071 L2074.78,132.562 L2074.8,133.184 L2074.26,134.145 L2073.45,134.687 L2072.75,135.456 L2071.7,136.789 L2071.35,137.658 L2071.94,138.922 L2072.46,140.221 L2072.49,141.595 L2072.02,142.654 L2071.84,143.429 L2071.29,143.998 L2071.33,145.732 L2071.16,146.619 L2071.8,148.91 L2072.29,150.439 L2073.13,151.501 L2073.69,152.537 L2074,153.848 L2074.04,155.484 L2074.69,156.976 L2075.43,157.517 L2075.44,158.237 L2076.27,158.677 L2076.29,159.627 L2075.97,160.027 L2076.35,160.903 L2077.12,161.246 L2077.66,162.086 L2077.91,164.227 L2078.09,165.304 L2078.6,165.948 L2078.66,168.774 L2079.08,169.944 L2079.09,170.565 L2079.59,171.111 L2079.4,172.241 L2079.09,173.426 L2079.12,174.932 L2079.91,176.388 L2079.7,176.81 L2080.12,177.972 L2080.51,179.035 L2081.16,179.823 L2082.07,182.413 L2082.76,184.035 L2082.78,184.7 L2083.17,186.003 L2083.18,186.602 L2083.35,187.47 L2083.58,188.082 L2084,189.09 L2084.02,189.779 L2084.51,190.068 L2084.88,190.369 L2085.27,190.401 L2104.34,189.913 L2149.34,255.57 L2128.91,270.082 L2134.51,285.716 L2133.4,288.643 L2107.4,357.452 L2095.58,357.58 L2084.21,357.709 L2044.7,358.146 L2031.38,358.293 L2014.12,358.484 L2014.25,367.278 L2014.56,387.418 L2014.78,402.377 L2015.06,420.546 L2015.36,440.18 L2015.98,481.39 L2129.7,526.385 L2350.37,613.697 L2355.24,735.872 L2358.78,744.168 L2407.81,859.082 L2457.69,1026.19 L2503.02,1178.06 L2519.59,1233.6 L2530.34,1266.68 L2590.99,1596.81 L2598.09,1651.73 L2598.34,1653.61 L2599.81,1664.98 L2602.07,1682.39 L2630.8,1903.98 L2630.85,1904.34 L2644.82,2012.09 L2625.44,2168.55 L2625.26,2170.01 L2634.03,2169.77 L2649.19,2168.69 L2649.65,2171.15 L2668.47,2165.86 L2668.62,2169.19 L2668.94,2172.58 L2668.87,2175.01 L2670.15,2184.69 L2662.69,2187.49 L2660.96,2190.85 L2657.79,2200.48 L2656.88,2202.09 L2655.77,2203.72 L2654.27,2207.01 L2654.22,2207.12 L2653.72,2208.21 L2653.75,2209.4 L2652.84,2211.43 L2652.12,2213.8 L2652.15,2215.48 L2650.77,2217.71 L2650.11,2218.79 L2649.62,2221.11 L2648.93,2222.62 L2648.94,2222.99 L2648.22,2223.25 L2647.97,2224.09 L2647.26,2224.88 L2646.41,2225.32 L2644.37,2225.8 L2642.78,2226.92 L2640.71,2226.51 L2639.88,2226.85 L2638.87,2227.14 L2637.65,2227.87 L2636.54,2228.4 L2635.67,2228.43 L2634.83,2228.31 L2624.95,2230.24 L2615.83,2231.7 L2614.06,2232.29 L2611.81,2233.42 L2610.34,2233.85 L2610,2233.85 L2610.01,2232.98 L2591.83,2235.59 L2583.28,2237.35 L2583.2,2237.04 L2560.14,2237.93 L2560.3,2239.32 L2523.08,2241.04 L2522.9,2244.65 L2521.8,2252.4 L2516.68,2260.02 L2515.36,2270.78 L2503.1,2267.66 L2497.38,2276.49 L2481.14,2294.01 L2481.05,2297.04 L2381.5,2295.1 L2343.96,2291.16 L2343.91,2291.16 L2343.13,2291.14 L2341.3,2291.09 L2339.37,2291.05 L2336.36,2290.98 L2333.64,2290.93 L2330.91,2290.86 L2328.2,2290.81 L2322.38,2290.68 L2316.76,2290.56 L2291.36,2290.06 L2274.06,2289.7 L2254.23,2289.28 L2254.12,2289.27 L2252.25,2308.97 L2252.07,2309.22 L2251.03,2310.62 L2246.61,2316.24 L2239.45,2326.4" vector-effect="none"/>
  </g>
  <g stroke-width="1" font-size="54.1667" stroke-linecap="square" stroke-linejoin="bevel" transform="matrix(0.999751,0,0,0.999751,0,0)" font-style="normal" fill="none" stroke="#000000" stroke-opacity="1" font-family=".AppleSystemUIFont" font-weight="400"/>
  <g stroke-width="1" font-size="54.1667" stroke-linecap="square" stroke-linejoin="bevel" transform="matrix(11.8081,0,0,11.8081,0,0)" font-style="normal" fill="none" stroke="#000000" stroke-opacity="1" font-family=".AppleSystemUIFont" font-weight="400"/>
  <g stroke-width="1" font-size="54.1667" stroke-linecap="square" stroke-linejoin="bevel" transform="matrix(11.8081,0,0,11.8081,0,0)" font-style="normal" fill="none" stroke="#000000" stroke-opacity="1" font-family=".AppleSystemUIFont" font-weight="400"/>
  <g stroke-width="1" font-size="54.1667" stroke-linecap="square" stroke-linejoin="bevel" transform="matrix(11.8081,0,0,11.8081,0,0)" font-style="normal" fill="none" stroke="#000000" stroke-opacity="1" font-family=".AppleSystemUIFont" font-weight="400"/>
  <g stroke-width="1" font-size="54.1667" stroke-linecap="square" stroke-linejoin="bevel" transform="matrix(1,0,0,1,0,0)" font-style="normal" fill="none" stroke="#000000" stroke-opacity="1" font-family=".AppleSystemUIFont" font-weight="400"/>
  <g stroke-width="1" font-size="54.1667" stroke-linecap="square" stroke-linejoin="bevel" transform="matrix(11.8081,0,0,11.8081,0,0)" font-style="normal" fill="none" stroke="#000000" stroke-opacity="1" font-family=".AppleSystemUIFont" font-weight="400"/>
  <g stroke-width="1" font-size="54.1667" stroke-linecap="square" stroke-linejoin="bevel" transform="matrix(11.8081,0,0,11.8081,0,0)" font-style="normal" fill="none" stroke="#000000" stroke-opacity="1" font-family=".AppleSystemUIFont" font-weight="400"/>
  <g stroke-width="1" font-size="54.1667" stroke-linecap="square" stroke-linejoin="bevel" transform="matrix(11.8081,0,0,11.8081,0,0)" font-style="normal" fill="none" stroke="#000000" stroke-opacity="1" font-family=".AppleSystemUIFont" font-weight="400"/>
  <g stroke-width="1" font-size="54.1667" stroke-linecap="square" stroke-linejoin="bevel" transform="matrix(11.8081,0,0,11.8081,0,0)" font-style="normal" fill="none" stroke="#000000" stroke-opacity="1" font-family=".AppleSystemUIFont" font-weight="400"/>
  <g stroke-width="1" font-size="54.1667" stroke-linecap="square" stroke-linejoin="bevel" transform="matrix(1,0,0,1,0,0)" font-style="normal" fill="none" stroke="#000000" stroke-opacity="1" font-family=".AppleSystemUIFont" font-weight="400"/>
 </g>
 <metadata>
  <rdf:RDF xmlns:dc="http://purl.org/dc/elements/1.1/" xmlns:rdf="http://www.w3.org/1999/02/22-rdf-syntax-ns#" xmlns:rdfs="http://www.w3.org/2000/01/rdf-schema#">
   <rdf:Description dc:description="" dc:identifier="" dc:date="2025-06-29T05:38:08" dc:title="" dc:format="image/svg+xml">
    <dc:creator>
     <rdf:Bag>
      <rdf:li>Nestor Arriaga gallegos</rdf:li>
     </rdf:Bag>
    </dc:creator>
    <dc:publisher>
     <rdf:Bag>
      <rdf:li>QGIS 3.40.4-Bratislava</rdf:li>
     </rdf:Bag>
    </dc:publisher>
    <dc:subject>
     <rdf:Bag/>
    </dc:subject>
   </rdf:Description>
   <cc:Work rdf:about="">
    <dc:format>image/svg+xml</dc:format>
    <dc:title></dc:title>
    <dc:date>2025-06-29T05:38:08</dc:date>
    <dc:identifier></dc:identifier>
    <dc:description></dc:description>
    <dc:creator>
     <cc:Agent>
      <dc:title>Nestor Arriaga gallegos</dc:title>
     </cc:Agent>
    </dc:creator>
    <dc:publisher>
     <cc:Agent>
      <dc:title>QGIS 3.40.4-Bratislava</dc:title>
     </cc:Agent>
    </dc:publisher>
   </cc:Work>
  </rdf:RDF>
 </metadata>
</svg>
